<?xml version="1.0" encoding="UTF-8"?>
<svg viewBox="0 0 70 58" version="1.1" xmlns="http://www.w3.org/2000/svg" >
    <g id="Page-1" stroke="none" stroke-  fill-rule="evenodd">
        <g id="flowChartScreen" transform="translate(-15.000000, 0.000000)">
            <g id="Group" transform="translate(15.000000, 0.000000)">
                <rect id="Rectangle-path" x="0.13" y="0.699"  ></rect>
                <rect id="Rectangle-path" x="0.13" y="0.699"  ></rect>
                <path d="M45.743,42.773 L42.668,42.773 L45.253,54.3 L24.747,54.298 L27.332,42.774 L24.259,42.774 L21.72,54.09 C21.67,54.311 21.461,55.454 22.202,56.379 C22.538,56.8 23.173,57.301 24.29,57.301 L45.712,57.301 C45.938,57.301 47.102,57.254 47.841,56.328 C48.178,55.908 48.528,55.178 48.282,54.09 L45.743,42.773 Z" id="Shape"  fill-rule="nonzero"></path>
                <g id="Clipped">
                    <mask id="mask-2" >
                        <use xlink:href="#path-1"></use>
                    </mask>
                    <g id="b"></g>
                    <path d="M64.118,44.273 L5.882,44.273 C1.661,44.273 0.13,40.834 0.13,38.521 L0.13,6.451 C0.13,2.231 3.569,0.699 5.882,0.699 L64.118,0.699 C68.339,0.699 69.87,4.139 69.87,6.451 L69.87,38.521 C69.87,42.742 66.432,44.273 64.118,44.273 Z M5.882,3.699 C5.245,3.71 3.13,3.941 3.13,6.451 L3.13,38.521 C3.141,39.158 3.371,41.273 5.882,41.273 L64.11,41.273 C64.762,41.259 66.872,41.027 66.872,38.521 L66.872,6.451 C66.86,5.815 66.631,3.699 64.12,3.699 L5.882,3.699 Z" id="Shape"  fill-rule="nonzero" mask="url(#mask-2)"></path>
                </g>
                <rect id="Rectangle-path" x="0.13" y="0.699"  ></rect>
                <rect id="Rectangle-path" x="0.13" y="0.699"  ></rect>
                <rect id="Rectangle-path" x="0.13" y="0.699"  ></rect>
                <rect id="Rectangle-path" x="0.13" y="0.699"  ></rect>
                <rect id="Rectangle-path" x="0.13" y="0.699"  ></rect>
                <rect id="Rectangle-path" x="0.13" y="0.699"  ></rect>
                <rect id="Rectangle-path" x="0.13" y="0.699"  ></rect>
                <rect id="Rectangle-path" x="0.13" y="0.699"  ></rect>
                <rect id="Rectangle-path" x="0.13" y="0.699"  ></rect>
                <rect id="Rectangle-path" x="0.13" y="0.699"  ></rect>
                <path d="M51.127,21.82 L51.127,14.633 C51.127,14.266 50.926,13.929 50.604,13.754 L35.625,5.645 C35.328,5.484 34.97,5.484 34.673,5.645 L19.694,13.754 C19.372,13.928 19.171,14.266 19.171,14.633 L19.171,21.727 C17.812,22.144 16.814,23.396 16.814,24.89 C16.814,26.384 17.812,27.637 19.172,28.053 L19.172,32.336 C19.172,32.705 19.375,33.043 19.7,33.217 L30.913,39.215 C31.061,39.293 31.223,39.333 31.385,39.333 C31.547,39.333 31.709,39.293 31.857,39.215 L43.07,33.217 C43.394,33.043 43.597,32.705 43.597,32.336 L43.597,27.991 C44.854,27.516 45.754,26.311 45.754,24.89 C45.754,23.058 44.263,21.567 42.431,21.567 C40.599,21.567 39.109,23.058 39.109,24.89 C39.109,26.432 40.171,27.721 41.597,28.094 L41.597,31.737 L31.385,37.2 L24.883,33.721 L28.058,31.935 C28.373,31.759 28.568,31.425 28.568,31.064 L28.568,28.042 C29.91,27.615 30.891,26.371 30.891,24.89 C30.891,23.058 29.401,21.567 27.568,21.567 C25.736,21.567 24.245,23.058 24.245,24.89 C24.245,26.371 25.225,27.615 26.568,28.042 L26.568,30.48 L22.793,32.603 L21.172,31.736 L21.172,28.031 C22.496,27.593 23.46,26.359 23.46,24.89 C23.46,23.421 22.495,22.185 21.171,21.748 L21.171,15.229 L26.946,12.103 C27.029,12.211 27.133,12.306 27.26,12.375 L34.191,16.126 L34.191,21.343 C34.191,21.455 34.221,21.558 34.254,21.658 C32.78,21.998 31.677,23.315 31.677,24.89 C31.677,26.722 33.167,28.213 35,28.213 C36.832,28.213 38.322,26.722 38.322,24.89 C38.322,23.441 37.384,22.219 36.09,21.765 C36.151,21.636 36.191,21.494 36.19,21.342 L36.19,15.53 C36.19,15.163 35.989,14.826 35.667,14.651 L28.952,11.016 L35.15,7.661 L49.129,15.228 L49.129,21.654 C47.65,21.99 46.541,23.31 46.541,24.889 C46.541,26.721 48.03,28.212 49.864,28.212 C51.696,28.212 53.186,26.721 53.186,24.889 C53.186,23.506 52.333,22.318 51.127,21.82 Z" id="Shape"  fill-rule="nonzero"></path>
            </g>
        </g>
    </g>
</svg>