<?xml version="1.0" encoding="UTF-8"?>
<svg viewBox="0 0 506 963" version="1.1" xmlns="http://www.w3.org/2000/svg" >
    <g id="Page-1" stroke="none" stroke-  fill-rule="evenodd">
        <g id="flower" transform="translate(-235.000000, 0.000000)" fill-rule="nonzero" >
            <g id="Group" transform="translate(235.000000, 0.000000)">
                <path d="M205.54,5.47 C209.41,1.8 214.94,1.28 219.9,0.14 C231.53,-0.53 242.8,3.25 253.46,7.5 C267.38,13.92 279.36,24.13 288.88,36.07 C292.13,40.05 294.23,44.77 296.86,49.15 C299.72,53.9 301.06,59.33 302.84,64.54 C309.43,58.21 316.46,52.35 323.49,46.53 C328.82,43.15 334.85,41.03 340.65,38.58 C349.9,34.61 360.04,33.53 369.99,33.03 C373.48,33.02 377.15,33.03 380.34,34.65 C383.61,36.34 387.28,37.48 389.98,40.11 C397.38,46.92 402.87,55.5 407.74,64.23 C413.54,75.62 416.22,88.4 416.91,101.09 C417.84,109.13 416.51,117.17 414.84,125.01 C414.17,130.59 411.4,135.55 409.63,140.81 C422.4,140.74 435.69,138.44 448.02,142.88 C456.73,145.63 465.61,148.54 473.06,153.99 C478.1,157.47 483.45,160.87 487.22,165.78 C489.56,170.59 492.28,175.51 492.25,181.02 C493.25,197.25 490.31,214.03 482.29,228.3 C479.7,233.51 476.18,238.16 472.99,243 C467.76,250.39 460.38,255.77 453.53,261.53 C449.9,263.94 445.92,265.77 442.1,267.87 C450.12,273.76 458.12,279.77 465.1,286.87 C473.49,297.57 480.53,309.68 483.61,323.03 C484.81,328.28 486.78,333.82 485.16,339.2 C483.95,342.88 483.52,346.93 481.15,350.12 C476.06,356.94 470.4,363.4 463.68,368.67 C457.25,374.8 449.09,378.57 440.97,381.9 C433.16,384.79 425.13,387.34 416.85,388.39 C406.44,388.89 395.83,389.05 385.71,386.18 C387.96,398.58 392.51,411.04 390.31,423.77 C389.34,434.05 387.26,444.38 382.56,453.64 C380,459.02 377.63,464.99 372.48,468.45 C369.39,470.44 366.64,473.17 362.99,474.12 C352.92,476.83 342.46,477.31 332.09,477.16 C322.37,476.51 312.99,473.59 303.97,470.02 C295.91,466.59 287.81,462.69 281.53,456.42 C276.06,452.26 271.4,447.24 267.16,441.85 C267.05,490.53 267.15,539.21 267.12,587.89 C334.43,587.87 401.74,587.9 469.06,587.87 C473.42,588.04 477.59,589.56 481.89,590.23 C488.46,592.05 491.87,598.5 495.04,603.98 C512.49,631.96 506.95,671.48 483.27,694.22 C481.58,695.94 479.29,697.47 478.94,700.06 C460.24,780.36 441.48,860.66 422.79,940.97 C421.89,944.5 421.5,948.33 419.33,951.38 C415.28,956.7 410.54,963.16 403.04,962.82 C304.67,962.87 206.31,962.81 107.95,962.85 C99.24,963.31 92.69,955.52 90.29,947.9 C71.22,863.56 52.43,779.15 33.28,694.83 C26.36,690.18 21.05,683.58 16.14,676.94 C12.15,669.7 7.93,662.37 6.32,654.14 C1.49,636.14 4.06,616.33 13.11,600.07 C15.2,595.68 19.03,591.81 23.99,591.03 C28.48,590.53 32.33,587.49 36.96,587.88 C103.69,587.89 170.43,587.88 237.16,587.88 C237.16,551.91 237.18,515.93 237.15,479.96 C228.83,486.58 219.15,491.57 208.95,494.59 C204.31,495.47 199.49,494.73 194.87,494.04 C186.21,490.82 178.3,485.74 171.39,479.64 C160.51,471.45 153.28,459.51 147.46,447.43 C141.05,434.38 139.24,419.59 139.74,405.21 C135.14,407.22 130.6,409.36 125.84,410.95 C120.94,412.62 116.25,415.15 111.05,415.75 C99.43,416.77 87.55,417.61 76.11,414.76 C70.11,413.19 63.8,411.91 58.56,408.46 C55.64,405.78 52.65,403.09 50.25,399.94 C47.42,394.3 45.31,388.3 43.64,382.22 C39.04,366.04 40.26,348.74 44.75,332.69 C48.64,319.33 56.07,307.14 65.67,297.13 C57.66,294.77 49.75,292.03 41.96,289.01 C37.12,287.26 33.03,284.06 28.99,280.98 C24.25,277.1 19.1,273.6 15.23,268.78 C10.18,262.65 5.14,256.34 1.83,249.07 C0.62,244.86 0.72,240.34 0.52,235.99 C2.15,226.45 6.32,217.51 11.28,209.26 C16.26,199.68 24.47,192.43 32.5,185.47 C35.88,182.83 39.47,180.46 43.03,178.08 C49.23,174 56.41,171.93 63.34,169.47 C68.22,167.75 73.44,167.46 78.51,166.59 C73.77,159.78 69.63,152.59 65.57,145.36 C62.5,140.06 61.36,133.95 60.05,128.04 C56.9,115.06 57.31,101.28 60.36,88.33 C63.31,82.68 67.35,77.23 72.98,73.99 C81.63,68.03 91.68,64.49 101.71,61.6 C114.76,59.08 128.32,59.15 141.4,61.49 C152.33,64.08 162.88,68.45 172.18,74.8 C172.72,67.35 174.34,60.04 175.39,52.65 C176.13,44.23 181.07,37.13 184.81,29.8 C189.78,20.27 197.41,12.38 205.54,5.47 L205.54,5.47 Z M205.43,55.3 C204.07,61.41 203.37,67.65 202.28,73.81 C200.95,79.55 203.35,85.13 203.61,90.83 C211.04,88.33 218.8,87.15 226.43,85.44 C225.73,79.56 224.59,72.74 228.85,67.87 C234.16,60.58 246.17,60.26 251.87,67.24 C256.06,71.54 255.61,77.88 256.08,83.4 C262.77,83.62 269.46,84.13 276.12,84.96 C275.07,68.7 267.13,52.86 253.98,43.07 C245.39,35.57 234.22,31.11 222.93,30.01 C214.82,36.57 209.51,45.86 205.43,55.3 L205.43,55.3 Z M340.45,71.41 C335.37,75.29 330.67,79.63 325.87,83.85 C321.9,87.12 320.19,92.15 317.26,96.25 C324.36,99.38 331.38,102.73 338,106.81 C341.29,101.37 346,95.49 352.98,95.46 C361.51,94.6 369.54,102.49 368.79,111.03 C368.97,116.35 364.96,120.22 362.32,124.38 C367.41,128.68 371.99,133.54 376.54,138.41 C383.15,129.63 386.3,118.75 387.33,107.93 C387.35,99.44 385.97,90.94 383.29,82.88 C380.39,75.53 375.82,68.96 370.77,62.93 C360.07,62.83 349.78,66.43 340.45,71.41 L340.45,71.41 Z M108.51,90.76 C101.66,93.03 94.29,95.04 88.69,99.8 C86.32,109.78 88.51,120.13 91.35,129.78 C94.32,135.91 98.01,141.68 101.65,147.44 C104.56,152.37 109.76,155.18 113.49,159.39 C117.78,152.77 122.74,146.62 127.67,140.48 C123.32,136.48 117.84,132.41 117.51,125.96 C116.24,117.2 124.21,108.69 133.03,109.45 C140.17,109.3 144.41,115.61 149.24,119.8 C154.38,115.6 159.86,111.83 165.55,108.41 C159.33,101.67 151.61,96.2 142.88,93.28 C132.08,88.77 119.88,88.8 108.51,90.76 L108.51,90.76 Z M246.34,113.6 C231.3,114.49 216.21,117.27 202.35,123.31 C173.54,134.51 149.31,156.28 134.14,183.1 C117.17,213.36 112.2,250.18 121.19,283.75 C124.09,293.68 126.92,303.79 132.29,312.73 C142.06,331.27 155.93,347.72 173.08,359.83 C186.51,370.19 202.59,376.32 218.56,381.59 C234.03,385.4 250.17,386.39 266.03,385 C278.36,384.67 290.13,380.51 301.78,376.85 C306.93,375.34 311.67,372.8 316.37,370.27 C329.3,363.58 341.01,354.66 351.26,344.35 C360.52,333.6 369.59,322.36 375.52,309.37 C381.79,296.77 385.94,283.1 387.74,269.14 C394.26,228.34 380.02,185.16 351.44,155.48 C324.81,126.95 285.15,111.77 246.34,113.6 L246.34,113.6 Z M401.14,174.27 C404.52,181.25 407.9,188.28 410.19,195.71 C415.73,193.55 422.52,192.45 427.62,196.27 C434.87,200.95 436.3,212.19 430.39,218.49 C427.17,222.41 422.01,223.49 417.38,224.79 C418.23,231.35 419.02,237.93 419.2,244.56 C427.48,242.46 435.2,238.31 441.55,232.61 C446.9,228.86 450.32,223.22 453.81,217.85 C457.7,211.5 460.81,204.52 461.68,197.05 C462.24,192.42 463.58,187.5 462.05,182.95 C455.79,177.53 448.16,174.04 440.23,171.79 C432.49,168.74 424.08,170.37 416.02,170.4 C410.77,170.23 405.97,172.57 401.14,174.27 L401.14,174.27 Z M60.47,202.55 C52.91,207 46.03,212.67 40.33,219.35 C36.25,225.48 32.43,231.93 30.42,239.07 C33.98,244.54 37.74,250.12 43.1,254 C46.9,256.87 50.41,260.35 54.99,261.98 C60.59,264.05 66.23,266.03 71.94,267.75 C77.14,269.42 82.64,268.47 87.98,268.9 C86.87,261.19 86.65,253.37 86.87,245.59 C81.03,245.08 74.26,245.71 69.76,241.18 C62.86,235.28 63.49,223.18 70.99,218.06 C76.49,213.64 83.81,215.63 90.21,216.03 C91.78,209.52 93.39,203.02 95.43,196.63 C83.51,194.59 71.26,197.45 60.47,202.55 L60.47,202.55 Z M414.79,288.08 C413.19,295.72 410.38,303.02 407.97,310.43 C413.43,312.27 418.85,315.89 420.31,321.81 C422.88,330.14 416.76,339.73 408.06,340.67 C403.17,341.58 398.7,339.14 394.46,337.1 C390.9,342.76 386.79,348.05 382.85,353.45 C392.73,358.36 404.01,359.7 414.89,358.46 C423.69,356.62 432.37,353.7 440.16,349.15 C445.95,344.94 451.34,340.09 455.55,334.26 C453.68,324.07 448.72,314.73 442.51,306.54 C437.36,301.66 431.69,297.37 426,293.15 C422.68,290.62 418.5,289.82 414.79,288.08 L414.79,288.08 Z M79.71,327.7 C73.08,337.43 70.95,349.46 70.5,361.02 C70.89,368.85 72.52,376.78 76.01,383.86 C86.3,387.07 97.33,387.85 107.91,385.75 C114.79,383.11 121.8,380.74 128.39,377.41 C131.84,375.1 134.82,372.16 138.25,369.82 C132.5,364.48 127.24,358.67 122.37,352.53 C117.9,355.95 113.04,360.02 107.03,359.55 C97.84,359.6 90.61,349.83 93.07,341.02 C94.42,334.25 101.08,331.17 106.12,327.48 C102.82,321.66 100.18,315.53 97.56,309.39 C90.52,314.29 83.93,320.12 79.71,327.7 L79.71,327.7 Z M331.7,396.12 C334.44,401.27 336.81,407.44 334.21,413.16 C331.03,421.36 320.15,424.95 312.71,420.26 C307.93,417.65 306.18,412.25 304,407.63 C297.66,409.6 291.27,411.36 284.8,412.82 C288.93,423.29 297.11,431.45 306.16,437.81 C312.11,441.28 318.59,443.79 325.19,445.71 C334.26,448.33 343.89,447.46 353.05,445.77 C358.34,436.74 360.56,426.33 360.96,415.97 C360.75,411.53 359.44,407.24 358.64,402.88 C357.75,399.04 357.52,394.97 355.68,391.41 C354.32,388.81 352.9,386.24 351.57,383.63 C345.2,388.18 338.58,392.37 331.7,396.12 L331.7,396.12 Z M172.13,394.84 C167.5,409.2 169.1,425.44 176.51,438.58 C179.48,444.01 182.55,449.51 187.09,453.81 C192.03,458.07 197.08,462.3 203.03,465.12 C212.66,461.7 220.84,455.19 227.77,447.82 C231.1,442.72 234.37,437.48 236.85,431.91 C237.56,426.3 236.98,420.6 237.16,414.96 C231.05,414.4 225,413.38 218.95,412.44 C217.28,417 216.72,422.39 212.72,425.67 C206.21,432.07 194.16,430.28 189.75,422.3 C185.96,416.42 188.3,409.29 190.34,403.25 C184.13,400.76 178.08,397.89 172.13,394.84 L172.13,394.84 Z M37.7,617.81 C32.2,629.84 32.83,644.24 39.02,655.89 C42.35,662.54 47,669.13 53.98,672.27 C57.64,674.14 60.23,677.78 61.15,681.77 C79.96,765.48 98.79,849.18 117.63,932.89 C209.71,932.87 301.79,932.9 393.87,932.87 C413.01,850.88 432.12,768.88 451.22,686.89 C452.16,682.3 455.36,678.63 458.97,675.84 C471.95,665.42 478.26,647.16 473.8,631.03 C472.56,626.46 471.19,621.63 468.08,617.95 C435.74,617.68 403.39,617.92 371.05,617.84 C259.93,617.82 148.82,617.88 37.7,617.81 Z" id="Shape"></path>
                <path d="M90.14,670.26 C132.08,669.94 174.05,670.22 216,670.12 C221.19,669.9 226.36,672.56 229.14,676.96 C232.32,681.74 232.35,688.33 229.21,693.14 C226.44,697.58 221.24,700.3 216,700.08 C174.67,700.08 133.34,700.06 92.01,700.09 C86.57,700.29 81.23,697.17 78.65,692.4 C73.28,683.61 79.84,670.89 90.14,670.26 Z" id="Shape"></path>
                <path d="M249.32,672.54 C254.39,670.91 259.81,671.88 265.04,671.63 C271.05,671.27 277.04,674.83 279.49,680.35 C282.61,686.83 280.2,695.31 274.11,699.15 C268.78,702.82 262.05,701.31 256.01,701.61 C249.6,702.09 243.08,698.35 240.71,692.29 C237.4,684.79 241.59,675.23 249.32,672.54 Z" id="Shape"></path>
            </g>
        </g>
    </g>
</svg>