<?xml version="1.0" encoding="UTF-8"?>
<svg viewBox="0 0 24 58" version="1.1" xmlns="http://www.w3.org/2000/svg" >
    <g id="Page-1" stroke="none" stroke-  fill-rule="evenodd">
        <g id="girl" transform="translate(-38.000000, 0.000000)" fill-rule="nonzero" >
            <g id="Group" transform="translate(38.000000, 0.000000)">
                <path d="M23.56,51.35 L21.56,38.23 C22.111535,37.5018639 22.4100172,36.6134402 22.41,35.7 L22.41,28.16 C22.4073616,25.6362586 20.4659524,23.5381437 17.95,23.34 C17.2805262,22.885725 16.4890348,22.6451395 15.68,22.65 L14.79,22.65 L14.79,20.34 C15.8662708,19.9946493 16.8672882,19.4483314 17.74,18.73 L17.74,19.5 C17.7009686,19.8810485 17.9553457,20.2302781 18.33,20.31 L18.53,20.31 C19.07,20.31 19.7,19.48 22.86,11.44 C22.875685,11.3574047 22.875685,11.2725953 22.86,11.19 C22.86,5.18666477 17.9933352,0.32 11.99,0.32 C5.98666477,0.32 1.12,5.18666477 1.12,11.19 C1.10454973,11.2726172 1.10454973,11.3573828 1.12,11.44 C4.71,20.44 5.03,20.38 5.66,20.26 C6.02493717,20.1855298 6.27765368,19.85143 6.25,19.48 L6.25,18.71 C7.12352215,19.427131 8.12430033,19.9733185 9.2,20.32 L9.2,22.63 L8.31,22.63 C7.50096516,22.6251395 6.70947381,22.865725 6.04,23.32 C3.52404756,23.5181437 1.58263835,25.6162586 1.58,28.14 L1.58,35.7 C1.57998277,36.6134402 1.87846504,37.5018639 2.43,38.23 L0.43,51.35 C0.397388139,51.5458274 0.453299653,51.7460339 0.582656479,51.8966284 C0.712013306,52.0472229 0.901494023,52.1326969 1.1,52.13 L5.46,52.13 L5.46,55.07 C5.40003265,56.0355493 5.88110423,56.9545534 6.70872624,57.4554758 C7.53634826,57.9563982 8.57365174,57.9563982 9.40127376,57.4554758 C10.2288958,56.9545534 10.7099673,56.0355493 10.65,55.07 L10.65,52.79 L13.34,52.79 L13.34,55.06 C13.425131,56.430716 14.5616429,57.4988324 15.935,57.4988324 C17.3083571,57.4988324 18.444869,56.430716 18.53,55.06 L18.53,52.13 L22.89,52.13 C23.088506,52.1326969 23.2779867,52.0472229 23.4073435,51.8966284 C23.5367003,51.7460339 23.5926119,51.5458274 23.56,51.35 L23.56,51.35 Z M21,28.16 L21,34.76 L19.65,26.08 C19.6070786,25.8069504 19.5367224,25.5389269 19.44,25.28 C20.4116041,25.9162332 20.9978971,26.9986203 21,28.16 L21,28.16 Z M5,10.87 L5,17 C4.3,15.42 3.37,13.2 2.53,11.1 C2.85511761,6.09223611 7.01169345,2.19676576 12.03,2.19676576 C17.0483065,2.19676576 21.2048824,6.09223611 21.53,11.1 C20.69,13.23 19.76,15.48 19.06,17.1 L19.06,6.78 C19.06,6.40444637 18.7555536,6.1 18.38,6.1 C18.1433933,6.07152177 17.9146827,6.19590826 17.81,6.41 C17.7613151,6.48270282 17.7273423,6.56423776 17.71,6.65 C17.71,6.78 17.11,9.65 14.9,10.16 L14.9,6.72 C14.8806143,6.38343376 14.6175583,6.11188241 14.281778,6.08181253 C13.9459976,6.05174265 13.6388782,6.27223352 13.56,6.6 C13.56,6.6 12.86,10.2 10.07,10.2 L5.63,10.2 C5.27791671,10.2259332 5.00423794,10.5169884 5,10.87 Z M6.36,16.87 L6.36,16.87 L6.36,11.55 L10.13,11.55 C11.4999606,11.5453038 12.7868858,10.8925694 13.6,9.79 L13.6,10.87 C13.5993263,11.0504007 13.6714304,11.2234506 13.8,11.35 C13.932457,11.4745705 14.1081888,11.5427115 14.29,11.54 C15.6571063,11.5066685 16.9329718,10.8466109 17.75,9.75 L17.75,16.84 C16.3056781,18.4695433 14.2324933,19.4023198 12.055,19.4023198 C9.87750672,19.4023198 7.8043219,18.4695433 6.36,16.84 L6.36,16.87 Z M12,20.77 C12.4688194,20.769853 12.9369106,20.7330744 13.4,20.66 L13.4,23.32 C13.3999598,23.6916828 13.6983574,23.9945341 14.07,24 L15.4,24 C15.080456,25.6276266 13.6536973,26.8015129 11.995,26.8015129 C10.3363027,26.8015129 8.90954403,25.6276266 8.59,24 L9.92,24 C10.2916426,23.9945341 10.5900402,23.6916828 10.59,23.32 L10.59,20.66 C11.0563577,20.7338438 11.5278326,20.7706256 12,20.77 L12,20.77 Z M3,28.16 C3.00144019,27.0036206 3.58378902,25.925336 4.55,25.29 C4.45802447,25.5428458 4.39103796,25.8040933 4.35,26.07 L3,34.76 L3,28.16 Z M8.05,56.3 C7.52068985,56.2984146 7.0507436,55.9610173 6.88,55.46 L9.23,55.46 C9.0626988,55.9649667 8.59195093,56.306963 8.06,56.31 L8.05,56.3 Z M9.3,54.11 L6.81,54.11 L6.81,52.11 L7,52.11 C7.00546592,52.4816426 7.3083172,52.7800402 7.68,52.78 L9.31,52.78 L9.3,54.11 Z M16.69,52.78 C16.8753496,52.7807911 17.0527456,52.7047643 17.18,52.57 L17.18,54.11 L14.69,54.11 L14.69,52.79 L16.69,52.78 Z M15.93,56.3 C15.4006899,56.2984146 14.9307436,55.9610173 14.76,55.46 L17.11,55.46 C16.9426988,55.9649667 16.4719509,56.306963 15.94,56.31 L15.93,56.3 Z M17.36,50.77 L17.36,41.77 C17.36,41.3972078 17.0577922,41.095 16.685,41.095 C16.3122078,41.095 16.01,41.3972078 16.01,41.77 L16.01,51.45 L8.35,51.45 L8.35,41.77 C8.35,41.3972078 8.04779221,41.095 7.675,41.095 C7.30220779,41.095 7,41.3972078 7,41.77 L7,50.77 L1.89,50.77 L5.68,26.28 C5.81992664,25.3707845 6.41640346,24.5968748 7.26,24.23 C7.69274745,26.5036819 9.68050232,28.1487925 11.995,28.1487925 C14.3094977,28.1487925 16.2972525,26.5036819 16.73,24.23 C17.5735965,24.5968748 18.1700734,25.3707845 18.31,26.28 L22.1,50.77 L17.36,50.77 Z" id="Shape"></path>
                <path d="M9.69,13.16 C9.29057683,13.2051532 8.9887412,13.5430327 8.9887412,13.945 C8.9887412,14.3469673 9.29057683,14.6848468 9.69,14.73 C10.0894232,14.6848468 10.3912588,14.3469673 10.3912588,13.945 C10.3912588,13.5430327 10.0894232,13.2051532 9.69,13.16 L9.69,13.16 Z" id="Shape"></path>
                <path d="M14.31,14.73 C14.7094232,14.6848468 15.0112588,14.3469673 15.0112588,13.945 C15.0112588,13.5430327 14.7094232,13.2051532 14.31,13.16 C13.9105768,13.2051532 13.6087412,13.5430327 13.6087412,13.945 C13.6087412,14.3469673 13.9105768,14.6848468 14.31,14.73 L14.31,14.73 Z" id="Shape"></path>
            </g>
        </g>
    </g>
</svg>