<?xml version="1.0" encoding="UTF-8"?>
<svg viewBox="0 0 90 78" version="1.1" xmlns="http://www.w3.org/2000/svg" >
    <g id="Page-1" stroke="none" stroke-  fill-rule="evenodd">
        <g id="halfCourt" transform="translate(-5.000000, 0.000000)">
            <g id="Group" transform="translate(5.000000, 0.000000)">
                <path d="M82.283,40.798 C83.238,40.798 84.016,39.822 84.016,38.626 C84.016,37.429 83.238,36.454 82.283,36.454 C81.332,36.454 80.554,37.429 80.554,38.626 C80.554,39.822 81.332,40.798 82.283,40.798 Z" id="Shape"></path>
                <path d="M52.921,43.039 C54.612,58.35 69.294,70.408 87.328,70.941 L87.328,48.119 L63.918,48.119 C59.13,48.119 55.013,46.044 52.921,43.039 Z" id="Shape"></path>
                <path d="M53.142,38.623 C53.142,42.93 57.981,46.434 63.918,46.434 L87.328,46.434 L87.328,30.814 L63.918,30.814 C57.98,30.813 53.142,34.317 53.142,38.623 Z M82.283,35.248 C82.948,35.248 83.521,35.541 84.016,35.956 L84.016,33.875 L85.254,33.875 L85.254,43.977 L84.016,43.977 L84.016,41.294 C83.521,41.708 82.948,42.003 82.283,42.003 C80.649,42.003 79.319,40.487 79.319,38.625 C79.319,36.762 80.649,35.248 82.283,35.248 Z" id="Shape"></path>
                <path d="M53.67,33.212 C55.931,30.751 59.672,29.127 63.918,29.127 L87.328,29.127 L87.328,9.235 C70.872,9.723 57.219,19.811 53.67,33.212 Z" id="Shape"></path>
                <path d="M7.083,27.619 C11.526,28.246 14.956,31.95 14.956,36.456 C14.956,40.959 11.526,44.663 7.083,45.289 L7.083,74.595 L87.329,74.595 L87.329,73.355 C66.786,72.78 50.272,58.1 50.272,40.088 C50.272,22.078 66.786,7.398 87.328,6.822 L87.328,2.652 L7.083,2.652 L7.083,27.619 Z" id="Shape"></path>
                <path d="M12.486,36.457 C12.486,33.281 10.164,30.628 7.082,30.032 L7.082,42.877 C10.164,42.281 12.486,39.631 12.486,36.457 Z" id="Shape"></path>
                <path d="M10.385,36.454 C10.385,31.947 6.955,28.244 2.512,27.617 L2.512,30.029 C5.594,30.625 7.916,33.278 7.916,36.454 C7.916,39.629 5.594,42.278 2.512,42.876 L2.512,45.287 C6.955,44.661 10.385,40.957 10.385,36.454 Z" id="Shape"  fill-rule="nonzero"></path>
                <path d="M0.091,0.542 L0.091,77.309 L89.798,77.008 L89.798,0.241 L0.091,0.542 Z M87.328,70.941 C69.294,70.408 54.612,58.35 52.921,43.039 C55.013,46.044 59.13,48.119 63.918,48.119 L87.328,48.119 L87.328,70.941 Z M87.328,46.434 L63.918,46.434 C57.98,46.434 53.142,42.93 53.142,38.623 C53.142,34.317 57.981,30.813 63.918,30.813 L87.328,30.813 L87.328,46.434 Z M87.328,29.127 L63.918,29.127 C59.672,29.127 55.931,30.751 53.67,33.212 C57.219,19.811 70.872,9.723 87.328,9.235 L87.328,29.127 Z M87.328,6.822 C66.786,7.397 50.272,22.078 50.272,40.088 C50.272,58.1 66.786,72.78 87.328,73.355 L87.328,74.595 L2.558,74.898 L2.558,45.591 L2.558,43.18 L2.558,30.333 L2.558,27.921 L2.558,2.955 L87.328,2.653 L87.328,6.822 Z" id="Shape"  fill-rule="nonzero"></path>
                <path d="M82.283,42.004 C82.948,42.004 83.521,41.709 84.016,41.295 L84.016,43.978 L85.254,43.978 L85.254,33.875 L84.016,33.875 L84.016,35.956 C83.521,35.541 82.948,35.248 82.283,35.248 C80.649,35.248 79.319,36.762 79.319,38.626 C79.319,40.488 80.649,42.004 82.283,42.004 Z M82.283,36.454 C83.238,36.454 84.016,37.429 84.016,38.626 C84.016,39.822 83.238,40.798 82.283,40.798 C81.332,40.798 80.554,39.822 80.554,38.626 C80.554,37.429 81.332,36.454 82.283,36.454 Z" id="Shape"  fill-rule="nonzero"></path>
            </g>
        </g>
    </g>
</svg>