<svg preserveAspectRatio="true" xmlns="http://www.w3.org/2000/svg" viewBox="0 0 62 36" > 
    <g id="treeMap" fill-rule="nonzero" >
        <path d="M45,28 C44.277,28 43.593,28.162 42.971,28.439 L38.651,22.391 C39.481,21.499 40,20.312 40,19 C40,16.243 37.757,14 35,14 C34.276,14 33.593,14.162 32.971,14.44 L28.651,8.392 C29.481,7.499 30,6.312 30,5 C30,2.243 27.757,0 25,0 C22.243,0 20,2.243 20,5 C20,6.312 20.519,7.499 21.349,8.392 L17.029,14.44 C16.407,14.162 15.724,14 15,14 C12.243,14 10,16.243 10,19 C10,20.313 10.519,21.5 11.351,22.394 L7.03,28.44 C6.408,28.162 5.724,28 5,28 C2.243,28 0,30.243 0,33 C0,35.757 2.243,38 5,38 C7.757,38 10,35.757 10,33 C10,31.688 9.481,30.502 8.652,29.609 L12.974,23.562 C13.594,23.839 14.277,24 15,24 C15.723,24 16.407,23.838 17.028,23.561 L21.348,29.609 C20.519,30.502 20,31.688 20,33 C20,34.312 20.519,35.499 21.349,36.392 L17.029,42.44 C16.407,42.162 15.724,42 15,42 C12.243,42 10,44.243 10,47 C10,49.757 12.243,52 15,52 C17.757,52 20,49.757 20,47 C20,45.688 19.481,44.501 18.651,43.608 L22.971,37.56 C23.592,37.838 24.276,38 25,38 C25.723,38 26.407,37.838 27.029,37.561 L31.348,43.61 C30.518,44.503 30,45.689 30,47 C30,49.757 32.243,52 35,52 C37.757,52 40,49.757 40,47 C40,44.243 37.757,42 35,42 C34.276,42 33.591,42.162 32.969,42.441 L28.651,36.392 C29.481,35.499 30,34.312 30,33 C30,30.243 27.757,28 25,28 C24.276,28 23.592,28.162 22.97,28.44 L18.651,22.392 C19.481,21.5 20,20.313 20,19 C20,17.688 19.481,16.501 18.651,15.608 L22.971,9.56 C23.592,9.838 24.276,10 25,10 C25.724,10 26.407,9.838 27.029,9.56 L31.349,15.608 C30.519,16.501 30,17.688 30,19 C30,21.757 32.243,24 35,24 C35.724,24 36.407,23.838 37.029,23.56 L41.349,29.607 C40.519,30.501 40,31.688 40,33 C40,35.757 42.243,38 45,38 C47.757,38 50,35.757 50,33 C50,30.243 47.757,28 45,28 Z M5,36 C3.346,36 2,34.654 2,33 C2,31.346 3.346,30 5,30 C6.654,30 8,31.346 8,33 C8,34.654 6.654,36 5,36 Z M12,19 C12,17.346 13.346,16 15,16 C16.654,16 18,17.346 18,19 C18,20.654 16.654,22 15,22 C13.346,22 12,20.654 12,19 Z M15,50 C13.346,50 12,48.654 12,47 C12,45.346 13.346,44 15,44 C16.654,44 18,45.346 18,47 C18,48.654 16.654,50 15,50 Z M38,47 C38,48.654 36.654,50 35,50 C33.346,50 32,48.654 32,47 C32,45.346 33.346,44 35,44 C36.654,44 38,45.346 38,47 Z M28,33 C28,34.654 26.654,36 25,36 C23.346,36 22,34.654 22,33 C22,31.346 23.346,30 25,30 C26.654,30 28,31.346 28,33 Z M22,5 C22,3.346 23.346,2 25,2 C26.654,2 28,3.346 28,5 C28,6.654 26.654,8 25,8 C23.346,8 22,6.654 22,5 Z M32,19 C32,17.346 33.346,16 35,16 C36.654,16 38,17.346 38,19 C38,20.654 36.654,22 35,22 C33.346,22 32,20.654 32,19 Z M45,36 C43.346,36 42,34.654 42,33 C42,31.346 43.346,30 45,30 C46.654,30 48,31.346 48,33 C48,34.654 46.654,36 45,36 Z" id="Shape"></path>
    </g>
</svg>