<?xml version="1.0" encoding="UTF-8"?>
<svg viewBox="0 0 80 82" version="1.1" xmlns="http://www.w3.org/2000/svg" >
    <g id="Page-1" stroke="none" stroke-  fill-rule="evenodd">
        <g id="hijab" transform="translate(-10.000000, 0.000000)" fill-rule="nonzero" >
            <g id="Group" transform="translate(10.000000, 0.000000)">
                <path d="M38.2,7.9 C29.7,7.9 24.2,16.7 21.5,25.6 C26.9,23.9 32.5,23 38.1,22.9 L38.2,22.9 C43.9,23.1 49.5,24 54.9,25.6 C52.2,16.7 46.6,7.9 38.2,7.9 Z" id="Shape"></path>
                <path d="M10.3,68.9 C12.7,68.3 15.1,68 17.5,67.9 C14.6,68.3 11.8,69.1 9,70 C6.3,71 3.8,72.3 1.4,73.8 C0.9,74.1 0.7,74.7 1,75.2 C1.2,75.5 1.5,75.7 1.9,75.7 C2.1,75.7 2.3,75.6 2.4,75.5 C4.7,74 7.2,72.8 9.8,71.9 L9.8,71.9 C15.2,69.9 20.8,68.8 26.5,68.4 C22.9,64 19.6,59.1 17,54 C16.5,57.5 15.1,64.1 10.3,68.9 Z" id="Shape"></path>
                <path d="M78.5,73.8 C65.2,66.7 60.5,57.2 62,37 C62.8,25.6 59.5,14.9 52.8,7.7 C48.5,3.1 43.3,0.5 38.3,0.5 L38.3,0.5 C33.3,0.5 28.3,2.9 24.1,7.3 C17.3,14.4 13.7,25.3 14.3,37.1 C14.5,42.2 15.5,47.3 17.3,52.1 L17.3,52.1 C20,58 23.6,63.5 28,68.4 C32.4,72.5 37.4,76 42.8,78.5 C47,80.5 51.6,81.5 56.3,81.5 C66.2,81.5 73.4,74.5 78.3,75.3 C78.7,75.3 79.1,75.1 79.1,74.6 L79.1,74.6 C79.1,74.2 78.8,73.9 78.5,73.8 Z M57.5,37.9 C57.3,37.9 57.1,37.8 57,37.7 C55.5,42.5 53.2,47 50.3,51.2 C46.1,57.2 41.1,59.4 38.2,59.4 C36.9,59.4 35.7,59.1 34.5,58.7 C44.8,67.7 57.6,65.9 57.2,66.1 C55.4,66.6 53.6,66.9 51.7,66.8 C44.8,66.8 35.5,63.1 28.5,55.2 L28.4,55 L28.4,55 C28,54.6 27.7,54.2 27.3,53.7 C23.4,49.1 20.6,43.7 19,37.9 L18.8,37.9 C18.4,37.9 18,37.6 18,37.1 C18,26.1 24.7,6.3 38.1,6.3 C45.6,6.3 50.4,12.3 53.2,17.4 C56.4,23.5 58.1,30.2 58.2,37 C58.2,37.5 57.9,37.9 57.5,37.9 L57.5,37.9 L57.5,37.9 Z" id="Shape"></path>
            </g>
        </g>
    </g>
</svg>