<svg xmlns="http://www.w3.org/2000/svg" version="1.1" x="0px" y="0px"
viewBox="0 0 100 125" style="enable-background:new 0 0 100 100;">
    <path d="M93,91h-2V57.2l4-19.7c0,0,0-0.1,0-0.1c0-0.1,0-0.1,0-0.2v-0.3c0,0,0,0,0-0.1c0-0.1,0-0.1,0-0.2c0-0.1,0-0.1,0-0.2  c0-0.1,0-0.1-0.1-0.2c0-0.1-0.1-0.1-0.1-0.2c0,0-0.1-0.1-0.1-0.1c0-0.1-0.1-0.1-0.1-0.2c0,0-0.1-0.1-0.1-0.1c-0.1,0-0.1-0.1-0.2-0.1  c0,0-0.1-0.1-0.2-0.1c-0.1,0-0.1-0.1-0.2-0.1c-0.1,0-0.1-0.1-0.2-0.1c-0.1,0-0.1,0-0.2,0c0,0-0.1,0-0.1,0c0,0-0.1,0-0.1,0  c-0.1,0-0.1,0-0.2,0c-0.1,0-0.2,0-0.2,0h-0.1L79,36.6V22c0-1.1-0.9-2-2-2s-2,0.9-2,2v15.2l-9,1V28c0-1.1-0.9-2-2-2s-2,0.9-2,2v10.7  l-27,3.1v-5.9h1c1.1,0,2-0.9,2-2c0-1.1-0.9-2-2-2h-1.5l-0.6-4L36.4,17h0.4c1.1,0,2-0.9,2-2c0-1.1-0.9-2-2-2h-2.5V8c0-1.6-1.3-3-3-3  H12.6c-1.7,0-3,1.4-3,3V13H7.2c-1.1,0-2,0.9-2,2c0,1.1,0.9,2,2,2h0.4l2.5,10.9l-0.6,4H8c-1.1,0-2,0.9-2,2c0,1.1,0.9,2,2,2h1V91H7  c-1.1,0-2,0.9-2,2c0,1.1,0.9,2,2,2h86c1.1,0,2-0.9,2-2C95,91.9,94.1,91,93,91z M13.6,9h16.8V13H13.6V9z M31,91H13V35.9h18V91z   M13.5,31.9l0.3-2.1h16.3l0.3,2.1H13.5z M30.3,25.8H13.7L11.7,17h20.7L30.3,25.8z M45,91H35V68.9h10V91z M45,64.9H35v-6.1h10V64.9z   M59,91H49V68.9h10V91z M59,64.9H49v-6.1h10V64.9z M73,91H63V68.9h10V91z M73,64.9H63v-6.1h10V64.9z M87,91H77V68.9h10V91z M87,64.9  H77v-6.1h10V64.9z M87.4,54.8H35v-9l55.5-6.5L87.4,54.8z M18,51.9h8c1.1,0,2-0.9,2-2v-8c0-1.1-0.9-2-2-2h-8c-1.1,0-2,0.9-2,2v8  C16,51,16.9,51.9,18,51.9z M20,43.9h4v4h-4V43.9z M18,67.9h8c1.1,0,2-0.9,2-2v-8c0-1.1-0.9-2-2-2h-8c-1.1,0-2,0.9-2,2v8  C16,67,16.9,67.9,18,67.9z M20,59.9h4v4h-4V59.9z M18,83.9h8c1.1,0,2-0.9,2-2v-8c0-1.1-0.9-2-2-2h-8c-1.1,0-2,0.9-2,2v8  C16,83,16.9,83.9,18,83.9z M20,75.9h4v4h-4V75.9z M39.6,81.4C39.2,81,39,80.5,39,80c0-0.1,0-0.3,0-0.4c0-0.1,0.1-0.3,0.1-0.4  c0-0.1,0.1-0.2,0.2-0.3c0.1-0.1,0.1-0.2,0.2-0.3c0.7-0.8,2.1-0.8,2.8,0c0.1,0.1,0.2,0.2,0.2,0.3c0.1,0.1,0.1,0.2,0.2,0.3  c0.1,0.1,0.1,0.2,0.1,0.4c0,0.1,0,0.3,0,0.4c0,0.5-0.2,1-0.6,1.4C42,81.8,41.5,82,41,82S40,81.8,39.6,81.4z M53.6,81.4  C53.2,81,53,80.5,53,80c0-0.1,0-0.3,0-0.4c0-0.1,0.1-0.3,0.1-0.4c0-0.1,0.1-0.2,0.2-0.3c0.1-0.1,0.1-0.2,0.2-0.3  c0.1-0.1,0.2-0.2,0.3-0.2s0.2-0.1,0.3-0.2s0.2-0.1,0.4-0.1c0.2,0,0.5,0,0.8,0c0.1,0,0.2,0.1,0.4,0.1c0.1,0,0.2,0.1,0.3,0.2  s0.2,0.2,0.3,0.2c0.1,0.1,0.2,0.2,0.2,0.3c0.1,0.1,0.1,0.2,0.2,0.3c0.1,0.1,0.1,0.2,0.1,0.4c0,0.1,0,0.3,0,0.4c0,0.5-0.2,1-0.6,1.4  c-0.1,0.1-0.2,0.2-0.3,0.3c-0.1,0.1-0.2,0.1-0.3,0.2c-0.1,0-0.2,0.1-0.4,0.1c-0.1,0-0.3,0-0.4,0C54.5,82,54,81.8,53.6,81.4z   M67.6,81.4C67.2,81,67,80.5,67,80c0-0.1,0-0.3,0-0.4c0-0.1,0.1-0.3,0.1-0.4c0-0.1,0.1-0.2,0.2-0.3c0.1-0.1,0.1-0.2,0.2-0.3  c0.1-0.1,0.2-0.2,0.3-0.2s0.2-0.1,0.3-0.2s0.2-0.1,0.4-0.1c0.7-0.1,1.3,0.1,1.8,0.5c0.1,0.1,0.2,0.2,0.2,0.3  c0.1,0.1,0.1,0.2,0.2,0.3c0.1,0.1,0.1,0.2,0.1,0.4c0,0.1,0,0.3,0,0.4c0,0.5-0.2,1-0.6,1.4c-0.1,0.1-0.2,0.2-0.3,0.3  c-0.1,0.1-0.2,0.1-0.3,0.2s-0.2,0.1-0.4,0.1c-0.1,0-0.3,0-0.4,0c-0.3,0-0.5,0-0.8-0.1C68,81.7,67.8,81.6,67.6,81.4z M81,80.3  c0-0.1,0-0.3,0-0.4s0-0.3,0-0.4c0-0.1,0.1-0.3,0.1-0.4c0-0.1,0.1-0.2,0.2-0.3c0.1-0.1,0.1-0.2,0.2-0.3c0.1-0.1,0.2-0.2,0.3-0.2  s0.2-0.1,0.3-0.2s0.2-0.1,0.4-0.1c0.3,0,0.5,0,0.8,0c0.1,0,0.2,0.1,0.4,0.1c0.1,0,0.2,0.1,0.3,0.2s0.2,0.2,0.3,0.2  c0.1,0.1,0.2,0.2,0.2,0.3c0.1,0.1,0.1,0.2,0.2,0.3c0.1,0.1,0.1,0.2,0.1,0.4c0,0.1,0,0.3,0,0.4s0,0.3,0,0.4c0,0.1-0.1,0.3-0.1,0.4  c0,0.1-0.1,0.2-0.2,0.3c-0.1,0.1-0.2,0.2-0.3,0.3c-0.1,0.1-0.2,0.2-0.3,0.2c-0.1,0.1-0.2,0.1-0.3,0.2c-0.1,0-0.2,0.1-0.4,0.1  c-0.1,0-0.3,0-0.4,0c-0.5,0-1-0.2-1.4-0.6c-0.1-0.1-0.2-0.2-0.3-0.3c-0.1-0.1-0.1-0.2-0.2-0.3C81.1,80.6,81.1,80.5,81,80.3z"
    />
</svg>