<svg xmlns="http://www.w3.org/2000/svg" viewBox="0 0 64.000001 80.00000125"
version="1.1" x="0px" y="0px">
    <g transform="translate(0,-988.36216)">
        <g transform="translate(192,-1.4853682e-5)" style="opacity:1">
            <path style="color:#000000;font-style:normal;font-variant:normal;font-weight:normal;font-stretch:normal;font-size:medium;line-height:normal;font-family:sans-serif;text-indent:0;text-align:start;text-decoration:none;text-decoration-line:none;text-decoration-style:solid;text-decoration-color:#000000;letter-spacing:normal;word-spacing:normal;text-transform:none;direction:ltr;block-progression:tb;writing-mode:lr-tb;baseline-shift:baseline;text-anchor:start;white-space:normal;clip-rule:nonzero;display:inline;overflow:visible;visibility:visible;opacity:1;isolation:auto;mix-blend-mode:normal;color-interpolation:sRGB;color-interpolation-filters:linearRGB;solid-color:#000000;solid-opacity:1;fill:#000000;fill-opacity:1;fill-rule:nonzero;stroke:none;stroke-width:1;stroke-linecap:round;stroke-linejoin:round;stroke-miterlimit:4;stroke-dasharray:none;stroke-dashoffset:0;stroke-opacity:1;color-rendering:auto;image-rendering:auto;shape-rendering:auto;text-rendering:auto;enable-background:accumulate"
            d="M 5.5 4 A 0.50005 0.50005 0 0 0 5 4.5 L 5 56 L 3.5 56 A 0.50004997 0.50004997 0 0 0 3 56.5 L 3 59.5 A 0.50004997 0.50004997 0 0 0 3.5 60 L 28.5 60 A 0.50004997 0.50004997 0 0 0 29 59.5 L 29 56.5 A 0.50004997 0.50004997 0 0 0 28.5 56 L 27 56 L 27 23.771484 L 37 29.539062 L 37 56 L 35.5 56 A 0.50004997 0.50004997 0 0 0 35 56.5 L 35 59.5 A 0.50004997 0.50004997 0 0 0 35.5 60 L 60.5 60 A 0.50004997 0.50004997 0 0 0 61 59.5 L 61 56.5 A 0.50004997 0.50004997 0 0 0 60.5 56 L 59 56 L 59 4.5 A 0.50005 0.50005 0 0 0 58.5 4 L 37.5 4 A 0.50005 0.50005 0 0 0 37 4.5 L 37 22.292969 L 27 16.525391 L 27 4.5 A 0.50005 0.50005 0 0 0 26.5 4 L 5.5 4 z M 6 5 L 26 5 L 26 16.8125 A 0.50005 0.50005 0 0 0 26.25 17.246094 L 37.25 23.589844 A 0.50005 0.50005 0 0 0 38 23.15625 L 38 5 L 58 5 L 58 56 L 49 56 L 49 39.5 A 0.50005 0.50005 0 0 0 48.5 39 L 40.5 39 A 0.50005 0.50005 0 0 0 40 39.5 L 40 56 L 38 56 L 38 29.25 A 0.50005 0.50005 0 0 0 37.75 28.818359 L 26.75 22.474609 A 0.50005 0.50005 0 0 0 26 22.90625 L 26 56 L 24 56 L 24 39.5 A 0.50004997 0.50004997 0 0 0 23.5 39 L 15.5 39 A 0.50004997 0.50004997 0 0 0 15 39.5 L 15 56 L 6 56 L 6 5 z M 8.5 8 A 0.50005 0.50005 0 0 0 8 8.5 L 8 15.5 A 0.50005 0.50005 0 0 0 8.5 16 L 14.5 16 A 0.50005 0.50005 0 0 0 15 15.5 L 15 8.5 A 0.50005 0.50005 0 0 0 14.5 8 L 8.5 8 z M 17.5 8 A 0.50005 0.50005 0 0 0 17 8.5 L 17 15.5 A 0.50005 0.50005 0 0 0 17.5 16 L 23.5 16 A 0.50005 0.50005 0 0 0 24 15.5 L 24 8.5 A 0.50005 0.50005 0 0 0 23.5 8 L 17.5 8 z M 40.5 8 A 0.50005 0.50005 0 0 0 40 8.5 L 40 15.5 A 0.50005 0.50005 0 0 0 40.5 16 L 46.5 16 A 0.50005 0.50005 0 0 0 47 15.5 L 47 8.5 A 0.50005 0.50005 0 0 0 46.5 8 L 40.5 8 z M 49.5 8 A 0.50005 0.50005 0 0 0 49 8.5 L 49 15.5 A 0.50005 0.50005 0 0 0 49.5 16 L 55.5 16 A 0.50005 0.50005 0 0 0 56 15.5 L 56 8.5 A 0.50005 0.50005 0 0 0 55.5 8 L 49.5 8 z M 9 9 L 14 9 L 14 15 L 9 15 L 9 9 z M 18 9 L 23 9 L 23 15 L 18 15 L 18 9 z M 41 9 L 46 9 L 46 15 L 41 15 L 41 9 z M 50 9 L 55 9 L 55 15 L 50 15 L 50 9 z M 8.5 18 A 0.50005 0.50005 0 0 0 8 18.5 L 8 25.5 A 0.50005 0.50005 0 0 0 8.5 26 L 14.5 26 A 0.50005 0.50005 0 0 0 15 25.5 L 15 18.5 A 0.50005 0.50005 0 0 0 14.5 18 L 8.5 18 z M 17.5 18 A 0.50005 0.50005 0 0 0 17 18.5 L 17 25.5 A 0.50005 0.50005 0 0 0 17.5 26 L 23.5 26 A 0.50005 0.50005 0 0 0 24 25.5 L 24 18.5 A 0.50005 0.50005 0 0 0 23.5 18 L 17.5 18 z M 40.5 18 A 0.50005 0.50005 0 0 0 40 18.5 L 40 25.5 A 0.50005 0.50005 0 0 0 40.5 26 L 46.5 26 A 0.50005 0.50005 0 0 0 47 25.5 L 47 18.5 A 0.50005 0.50005 0 0 0 46.5 18 L 40.5 18 z M 49.5 18 A 0.50005 0.50005 0 0 0 49 18.5 L 49 25.5 A 0.50005 0.50005 0 0 0 49.5 26 L 55.5 26 A 0.50005 0.50005 0 0 0 56 25.5 L 56 18.5 A 0.50005 0.50005 0 0 0 55.5 18 L 49.5 18 z M 9 19 L 14 19 L 14 25 L 9 25 L 9 19 z M 18 19 L 23 19 L 23 25 L 18 25 L 18 19 z M 41 19 L 46 19 L 46 25 L 41 25 L 41 19 z M 50 19 L 55 19 L 55 25 L 50 25 L 50 19 z M 8.5 28 A 0.50005 0.50005 0 0 0 8 28.5 L 8 35.5 A 0.50005 0.50005 0 0 0 8.5 36 L 14.5 36 A 0.50005 0.50005 0 0 0 15 35.5 L 15 28.5 A 0.50005 0.50005 0 0 0 14.5 28 L 8.5 28 z M 17.5 28 A 0.50005 0.50005 0 0 0 17 28.5 L 17 35.5 A 0.50005 0.50005 0 0 0 17.5 36 L 23.5 36 A 0.50005 0.50005 0 0 0 24 35.5 L 24 28.5 A 0.50005 0.50005 0 0 0 23.5 28 L 17.5 28 z M 40.5 28 A 0.50005 0.50005 0 0 0 40 28.5 L 40 35.5 A 0.50005 0.50005 0 0 0 40.5 36 L 46.5 36 A 0.50005 0.50005 0 0 0 47 35.5 L 47 28.5 A 0.50005 0.50005 0 0 0 46.5 28 L 40.5 28 z M 49.5 28 A 0.50005 0.50005 0 0 0 49 28.5 L 49 35.5 A 0.50005 0.50005 0 0 0 49.5 36 L 55.5 36 A 0.50005 0.50005 0 0 0 56 35.5 L 56 28.5 A 0.50005 0.50005 0 0 0 55.5 28 L 49.5 28 z M 9 29 L 14 29 L 14 35 L 9 35 L 9 29 z M 18 29 L 23 29 L 23 35 L 18 35 L 18 29 z M 41 29 L 46 29 L 46 35 L 41 35 L 41 29 z M 50 29 L 55 29 L 55 35 L 50 35 L 50 29 z M 8.5 38 A 0.50005 0.50005 0 0 0 8 38.5 L 8 45.5 A 0.50005 0.50005 0 0 0 8.5 46 L 12.5 46 A 0.50005 0.50005 0 0 0 13 45.5 L 13 38.5 A 0.50005 0.50005 0 0 0 12.5 38 L 8.5 38 z M 51.5 38 A 0.50005 0.50005 0 0 0 51 38.5 L 51 45.5 A 0.50005 0.50005 0 0 0 51.5 46 L 55.5 46 A 0.50005 0.50005 0 0 0 56 45.5 L 56 38.5 A 0.50005 0.50005 0 0 0 55.5 38 L 51.5 38 z M 9 39 L 12 39 L 12 45 L 9 45 L 9 39 z M 52 39 L 55 39 L 55 45 L 52 45 L 52 39 z M 16 40 L 23 40 L 23 56 L 16 56 L 16 40 z M 41 40 L 48 40 L 48 56 L 41 56 L 41 40 z M 21.037109 47.833984 A 0.50005 0.50005 0 0 0 20.544922 48.339844 L 20.544922 50.5 A 0.50005 0.50005 0 1 0 21.544922 50.5 L 21.544922 48.339844 A 0.50005 0.50005 0 0 0 21.037109 47.833984 z M 43.037109 47.833984 A 0.50005 0.50005 0 0 0 42.544922 48.339844 L 42.544922 50.5 A 0.50005 0.50005 0 1 0 43.544922 50.5 L 43.544922 48.339844 A 0.50005 0.50005 0 0 0 43.037109 47.833984 z M 4 57 L 5.5 57 L 15.5 57 L 26.5 57 L 28 57 L 28 59 L 4 59 L 4 57 z M 36 57 L 37.5 57 L 40.5 57 L 58.5 57 L 60 57 L 60 59 L 36 59 L 36 57 z "
            transform="translate(-192,988.36217)" />
        </g>
    </g>
</svg>