<svg xmlns="http://www.w3.org/2000/svg" version="1.1" x="0px" y="0px"
viewBox="0 0 100 125" style="enable-background:new 0 0 100 100;">
    <style type="text/css">
        .st0{fill:none;stroke:#000000;stroke-width:2;stroke-linecap:round;stroke-linejoin:round;stroke-miterlimit:10;}
    </style>
    <path d="M61.2,64.1c-0.6,0-1,0.4-1,1v1.5c0,0.6,0.4,1,1,1s1-0.4,1-1v-1.5C62.2,64.6,61.7,64.1,61.2,64.1z"
    />
    <path d="M66.9,64.1c-0.6,0-1,0.4-1,1v1.5c0,0.6,0.4,1,1,1s1-0.4,1-1v-1.5C67.9,64.6,67.4,64.1,66.9,64.1z"
    />
    <path d="M72.6,64.1c-0.6,0-1,0.4-1,1v1.5c0,0.6,0.4,1,1,1s1-0.4,1-1v-1.5C73.6,64.6,73.1,64.1,72.6,64.1z"
    />
    <path d="M61.2,56.4c0.6,0,1-0.4,1-1v-6.9c0-0.6-0.4-1-1-1s-1,0.4-1,1v6.9C60.2,56,60.6,56.4,61.2,56.4z"
    />
    <path d="M66.9,56.4c0.6,0,1-0.4,1-1v-6.9c0-0.6-0.4-1-1-1s-1,0.4-1,1v6.9C65.9,56,66.3,56.4,66.9,56.4z"
    />
    <path d="M72.6,56.4c0.6,0,1-0.4,1-1v-6.9c0-0.6-0.4-1-1-1s-1,0.4-1,1v6.9C71.6,56,72,56.4,72.6,56.4z"
    />
    <path d="M61.2,44c0.6,0,1-0.4,1-1v-6.9c0-0.6-0.4-1-1-1s-1,0.4-1,1V43C60.2,43.5,60.6,44,61.2,44z"
    />
    <path d="M66.9,44c0.6,0,1-0.4,1-1v-6.9c0-0.6-0.4-1-1-1s-1,0.4-1,1V43C65.9,43.5,66.3,44,66.9,44z"
    />
    <path d="M72.6,44c0.6,0,1-0.4,1-1v-6.9c0-0.6-0.4-1-1-1s-1,0.4-1,1V43C71.6,43.5,72,44,72.6,44z"
    />
    <path d="M61.2,31.6c0.6,0,1-0.4,1-1v-6.9c0-0.6-0.4-1-1-1s-1,0.4-1,1v6.9C60.2,31.1,60.6,31.6,61.2,31.6z"
    />
    <path d="M66.9,31.6c0.6,0,1-0.4,1-1v-6.9c0-0.6-0.4-1-1-1s-1,0.4-1,1v6.9C65.9,31.1,66.3,31.6,66.9,31.6z"
    />
    <path d="M72.6,31.6c0.6,0,1-0.4,1-1v-6.9c0-0.6-0.4-1-1-1s-1,0.4-1,1v6.9C71.6,31.1,72,31.6,72.6,31.6z"
    />
    <path d="M80.9,83.4H78v-65c0-0.6-0.4-1-1-1H56.3c-0.6,0-1,0.4-1,1v65h-4.4v-10h1.7c0.6,0,1-0.4,1-1s-0.4-1-1-1h-1.7v-10h1.7  c0.6,0,1-0.4,1-1s-0.4-1-1-1h-1.7v-10h1.7c0.6,0,1-0.4,1-1s-0.4-1-1-1h-1.7v-10h1.7c0.6,0,1-0.4,1-1s-0.4-1-1-1h-1.7V23.7  c0-0.6-0.4-1-1-1H24.5c-0.6,0-1,0.4-1,1v11.8h-1.7c-0.6,0-1,0.4-1,1s0.4,1,1,1h1.7v10h-1.7c-0.6,0-1,0.4-1,1s0.4,1,1,1h1.7v10h-1.7  c-0.6,0-1,0.4-1,1s0.4,1,1,1h1.7v10h-1.7c-0.6,0-1,0.4-1,1s0.4,1,1,1h1.7v10h-3.6c-0.6,0-1,0.4-1,1s0.4,1,1,1h60.9c0.6,0,1-0.4,1-1  S81.4,83.4,80.9,83.4z M57.3,61.2H76v8.5H57.3V61.2z M76,19.4v39.8H57.3V19.4H76z M57.3,71.7H76v11.7h-9.3v-7.3c0-0.6-0.4-1-1-1  h-5.2c-0.6,0-1,0.4-1,1v7.3h-2.1V71.7z M64.7,83.4h-3.2v-6.3h3.2V83.4z M25.5,24.7h23.4v10.8H35.1v-7.5c0-0.6-0.4-1-1-1h-5.2  c-0.6,0-1,0.4-1,1v7.5h-2.3V24.7z M33.1,35.4h-3.2v-6.5h3.2V35.4z M25.5,37.4h23.4v10H35.1v-7.5c0-0.6-0.4-1-1-1h-5.2  c-0.6,0-1,0.4-1,1v7.5h-2.3V37.4z M33.1,47.4h-3.2v-6.5h3.2V47.4z M25.5,49.4h23.4v10H35.1v-7.5c0-0.6-0.4-1-1-1h-5.2  c-0.6,0-1,0.4-1,1v7.5h-2.3V49.4z M33.1,59.4h-3.2v-6.5h3.2V59.4z M25.5,61.4h23.4v10H35.1v-7.5c0-0.6-0.4-1-1-1h-5.2  c-0.6,0-1,0.4-1,1v7.5h-2.3V61.4z M33.1,71.4h-3.2v-6.5h3.2V71.4z M25.5,73.4h23.4v10H35.1v-7.3c0-0.6-0.4-1-1-1h-5.2  c-0.6,0-1,0.4-1,1v7.3h-2.3V73.4z M33.1,83.4h-3.2v-6.3h3.2V83.4z"
    />
    <path d="M39.4,81.3c0.6,0,1-0.4,1-1v-3.6c0-0.6-0.4-1-1-1s-1,0.4-1,1v3.6C38.4,80.8,38.9,81.3,39.4,81.3z"
    />
    <path d="M44.5,81.3c0.6,0,1-0.4,1-1v-3.6c0-0.6-0.4-1-1-1s-1,0.4-1,1v3.6C43.5,80.8,43.9,81.3,44.5,81.3z"
    />
    <path d="M39.4,69.2c0.6,0,1-0.4,1-1v-3.6c0-0.6-0.4-1-1-1s-1,0.4-1,1v3.6C38.4,68.8,38.9,69.2,39.4,69.2z"
    />
    <path d="M44.5,69.2c0.6,0,1-0.4,1-1v-3.6c0-0.6-0.4-1-1-1s-1,0.4-1,1v3.6C43.5,68.8,43.9,69.2,44.5,69.2z"
    />
    <path d="M39.4,57.2c0.6,0,1-0.4,1-1v-3.6c0-0.6-0.4-1-1-1s-1,0.4-1,1v3.6C38.4,56.7,38.9,57.2,39.4,57.2z"
    />
    <path d="M44.5,57.2c0.6,0,1-0.4,1-1v-3.6c0-0.6-0.4-1-1-1s-1,0.4-1,1v3.6C43.5,56.7,43.9,57.2,44.5,57.2z"
    />
    <path d="M39.4,45.1c0.6,0,1-0.4,1-1v-3.6c0-0.6-0.4-1-1-1s-1,0.4-1,1v3.6C38.4,44.7,38.9,45.1,39.4,45.1z"
    />
    <path d="M44.5,45.1c0.6,0,1-0.4,1-1v-3.6c0-0.6-0.4-1-1-1s-1,0.4-1,1v3.6C43.5,44.7,43.9,45.1,44.5,45.1z"
    />
    <path d="M39.4,33c0.6,0,1-0.4,1-1v-3.6c0-0.6-0.4-1-1-1s-1,0.4-1,1V32C38.4,32.6,38.9,33,39.4,33z"
    />
    <path d="M44.5,33c0.6,0,1-0.4,1-1v-3.6c0-0.6-0.4-1-1-1s-1,0.4-1,1V32C43.5,32.6,43.9,33,44.5,33z"
    />
</svg>