<svg xmlns="http://www.w3.org/2000/svg" version="1.1" x="0px" y="0px"
viewBox="0 0 100 125" style="enable-background:new 0 0 100 100;">
    <path d="M41.4,59.6c0.8,0.8,0.8,2,0,2.8l-4,4C37,66.8,36.5,67,36,67s-1-0.2-1.4-0.6c-0.8-0.8-0.8-2,0-2.8l4-4  C39.4,58.8,40.6,58.8,41.4,59.6z M40.4,52.6c-0.8-0.8-2-0.8-2.8,0l-10,10c-0.8,0.8-0.8,2,0,2.8C28,65.8,28.5,66,29,66s1-0.2,1.4-0.6  l10-10C41.2,54.6,41.2,53.4,40.4,52.6z M29.4,58.4l4-4c0.8-0.8,0.8-2,0-2.8c-0.8-0.8-2-0.8-2.8,0l-4,4c-0.8,0.8-0.8,2,0,2.8  C27,58.8,27.5,59,28,59S29,58.8,29.4,58.4z M88,36v55h5c1.1,0,2,0.9,2,2c0,1.1-0.9,2-2,2H7c-1.1,0-2-0.9-2-2c0-1.1,0.9-2,2-2h5V36H8  c-1.7,0-3-1.4-3-3v-6.7c0-5.3,4.3-9.7,9.6-9.7h18.4C35.8,9.7,42.6,5,50,5s14.2,4.7,16.9,11.6h18.4c5.3,0,9.6,4.4,9.6,9.7V33  c0,1.7-1.3,3-3,3H88z M52,73H16v3h10c1.1,0,2,0.9,2,2c0,1.1-0.9,2-2,2H16v4h19c1.1,0,2,0.9,2,2c0,1.1-0.9,2-2,2H16v3h36V73z   M52.1,48c-0.8-0.5-1.5-1-2.1-1.7c-1.5,1.7-3.6,2.7-6,2.7s-4.5-1.1-6-2.7c-1.5,1.7-3.6,2.7-6,2.7s-4.5-1.1-6-2.7  c-1.5,1.7-3.6,2.7-6,2.7c-1.5,0-2.8-0.4-4-1.1V69h36V48H52.1z M20,45c2.2,0,4-1.8,4-4v-5h-8v5C16,43.2,17.8,45,20,45z M32,45  c2.2,0,4-1.8,4-4v-5h-8v5C28,43.2,29.8,45,32,45z M44,45c2.2,0,4-1.8,4-4v-5h-8v5C40,43.2,41.8,45,44,45z M56,45c2.2,0,4-1.8,4-4v-5  h-8v5C52,43.2,53.8,45,56,45z M77,66H63v25h14V66z M77,56H63v6h14V56z M84,47.9c-1.2,0.7-2.5,1.1-4,1.1c-2.4,0-4.5-1.1-6-2.7  c-1.5,1.7-3.6,2.7-6,2.7s-4.5-1.1-6-2.7c-1.5,1.7-3.6,2.7-6,2.7v42h3V55c0-1.7,1.3-3,3-3h16c1.7,0,3,1.3,3,3v36h3V47.9z M68,45  c2.2,0,4-1.8,4-4v-5h-8v5C64,43.2,65.8,45,68,45z M84,36h-8v5c0,2.2,1.8,4,4,4s4-1.8,4-4V36z M91,32v-5.7c0-3.1-2.5-5.7-5.6-5.7H64  l-0.4-1.4C61.8,13.2,56.2,9,50,9c-6.2,0-11.8,4.2-13.6,10.2L36,20.6H14.6c-3.1,0-5.6,2.6-5.6,5.7V32H91z M73,77c0.1,0,0.3,0,0.4,0  c0.1,0,0.3-0.1,0.4-0.1s0.2-0.1,0.3-0.2c0.1-0.1,0.2-0.1,0.3-0.2c0.1-0.1,0.2-0.2,0.2-0.3c0.1-0.1,0.1-0.2,0.2-0.3  c0.1-0.1,0.1-0.2,0.1-0.4c0-0.1,0-0.3,0-0.4c0-0.5-0.2-1-0.6-1.4c-0.1-0.1-0.2-0.2-0.3-0.2s-0.2-0.1-0.3-0.2c-0.1,0-0.2-0.1-0.4-0.1  c-0.3,0-0.5,0-0.8,0c-0.1,0-0.3,0.1-0.4,0.1c-0.1,0.1-0.2,0.1-0.3,0.2s-0.2,0.2-0.3,0.2C71.2,74,71,74.5,71,75c0,0.5,0.2,1,0.6,1.4  C72,76.8,72.5,77,73,77z"
    />
</svg>