<svg xmlns="http://www.w3.org/2000/svg" version="1.1" x="0px" y="0px"
viewBox="0 0 100 125" style="enable-background:new 0 0 100 100;">
    <g>
        <path d="M93,91h-3V43.3l3.4-3.4c0.4-0.4,0.6-0.9,0.6-1.4V28c0,0,0,0,0-0.1c0-0.1,0-0.1,0-0.2c0-0.1,0-0.1,0-0.2c0-0.1,0-0.1,0-0.2   c0-0.1,0-0.1-0.1-0.2c0,0,0-0.1-0.1-0.2c0-0.1-0.1-0.1-0.1-0.2c0,0,0,0,0-0.1l-17.1-21c-0.4-0.5-1-0.7-1.5-0.7H25.1   c-0.6,0-1.2,0.3-1.5,0.7l-17.1,21c0,0,0,0,0,0.1c0,0.1-0.1,0.1-0.1,0.2c0,0-0.1,0.1-0.1,0.2c0,0.1,0,0.1-0.1,0.2c0,0.1,0,0.1,0,0.2   c0,0.1,0,0.1,0,0.2c0,0.1,0,0.1,0,0.2C6,28,6,28,6,28v10.5c0,0.5,0.2,1,0.6,1.4l4.4,4.4v8.5c-2.9,0.9-5,3.5-5,6.7v20   c0,3.2,2.1,5.8,5,6.7V91H7c-1.1,0-2,0.9-2,2c0,1.1,0.9,2,2,2h86c1.1,0,2-0.9,2-2C95,91.9,94.1,91,93,91z M90,37.7l-8.5,8.5L73,37.7   V30h17V37.7z M74,9l13.8,17H72.4L65.6,9H74z M52,9h9.2c0,0,0,0,0,0.1L68,26H52V9z M52,30h17v7.7l-8.5,8.5L52,37.7V30z M38.8,9H48   v17H32L38.8,9C38.7,9,38.7,9,38.8,9z M48,30v7.7l-8.5,8.5L31,37.7V30H48z M10,59.5c0-1.7,1.3-3,3-3c0.9,0,1.7,0.4,2.2,1L10,59.5   L10,59.5z M10,63.8l6-2.4v4.7l-6,2.4V63.8z M10,72.8l6-2.4v4.7l-6,2.4V72.8z M10.8,81.5l5.2-2.1v0c0,1.6-1.3,3-3,3   C12.1,82.5,11.3,82.1,10.8,81.5z M27,91H15v-4.8c2.9-0.9,5-3.5,5-6.7v-20c0-3.2-2.1-5.8-5-6.7v-4.5l2.1,2.1   c0.4,0.4,0.9,0.6,1.4,0.6c0.5,0,1-0.2,1.4-0.6l7.1-7.1V91z M27,37.7l-8.5,8.5L10,37.7V30h17V37.7z M12.2,26L26,9h8.4l-6.8,17H12.2z    M78,91H62V66c0-4.4,3.6-8,8-8s8,3.6,8,8V91z M86,91h-4V66c0-6.6-5.4-12-12-12s-12,5.4-12,12v25H31V43.3l7.1,7.1   c0.4,0.4,0.9,0.6,1.4,0.6s1-0.2,1.4-0.6l9.1-9.1l9.1,9.1c0.4,0.4,0.9,0.6,1.4,0.6s1-0.2,1.4-0.6l9.1-9.1l9.1,9.1   c0.4,0.4,0.9,0.6,1.4,0.6c0.5,0,1-0.2,1.4-0.6l3.1-3.1V91z"
        />
        <path d="M73.8,72.2c0-0.1-0.1-0.2-0.2-0.3c-0.1-0.1-0.1-0.2-0.2-0.3c-0.1-0.1-0.2-0.2-0.3-0.2s-0.2-0.1-0.3-0.2   c-0.1,0-0.2-0.1-0.4-0.1c-0.3,0-0.5,0-0.8,0c-0.1,0-0.3,0.1-0.4,0.1c-0.1,0.1-0.2,0.1-0.3,0.2s-0.2,0.2-0.3,0.2   c-0.1,0.1-0.2,0.2-0.2,0.3c-0.1,0.1-0.1,0.2-0.2,0.3c-0.1,0.1-0.1,0.2-0.1,0.4c0,0.1,0,0.3,0,0.4s0,0.3,0,0.4   c0,0.1,0.1,0.3,0.1,0.4c0,0.1,0.1,0.2,0.2,0.3c0.1,0.1,0.2,0.2,0.3,0.3C71,74.8,71.5,75,72,75s1-0.2,1.4-0.6   c0.1-0.1,0.2-0.2,0.2-0.3c0.1-0.1,0.1-0.2,0.2-0.3c0.1-0.1,0.1-0.2,0.1-0.4c0-0.1,0-0.3,0-0.4s0-0.3,0-0.4   C73.9,72.5,73.9,72.3,73.8,72.2z"
        />
        <path d="M52,54H37c-1.7,0-3,1.3-3,3v15c0,1.6,1.3,3,3,3h15c1.7,0,3-1.4,3-3V57C55,55.3,53.7,54,52,54z M51,71H38V58h13V71z"
        />
    </g>
</svg>