<svg xmlns="http://www.w3.org/2000/svg" version="1.1" x="0px" y="0px"
viewBox="0 0 100 125" style="enable-background:new 0 0 100 100;">
    <path d="M83.3,14h-31c-0.6,0-1,0.4-1,1v16.4H15.6c-0.6,0-1,0.4-1,1V86h-1.4c-0.6,0-1,0.4-1,1s0.4,1,1,1H86c0.6,0,1-0.4,1-1  s-0.4-1-1-1h-1.7V15C84.3,14.5,83.8,14,83.3,14z M82.3,16V86h-29V16H82.3z M51.3,33.4v24.9h-6.1c0.3-0.4,0.6-0.9,0.7-1.5h1.1  c0.6,0,1-0.4,1-1v-7c0-3.8-3.1-6.8-6.8-6.8h-0.3v-3.4c0-0.6-0.4-1-1-1H21.2c-0.6,0-1,0.4-1,1v17.2c0,0.6,0.4,1,1,1h0.9  c0.1,0.6,0.4,1.1,0.7,1.5h-6.3V33.4H51.3z M39.8,44h1.3c2.7,0,4.8,2.2,4.8,4.8v6h-0.1c-0.5-1.7-2-3-3.9-3s-3.4,1.3-3.9,3h-8.3  c-0.5-1.7-2-3-3.9-3c-1.8,0-3.2,1.1-3.8,2.7v-15h16.6V43C38.8,43.5,39.3,44,39.8,44z M42,53.8c1.1,0,2,0.9,2,2s-0.9,2-2,2  s-2-0.9-2-2S40.9,53.8,42,53.8z M26,53.8c1.1,0,2,0.9,2,2s-0.9,2-2,2s-2-0.9-2-2S24.9,53.8,26,53.8z M29.9,56.8h8.3  c0.1,0.6,0.4,1.1,0.7,1.5h-9.7C29.5,57.9,29.7,57.3,29.9,56.8z M16.6,60.3h34.6V86h-7c0.8-0.5,1.3-1.3,1.6-2.3h1.1c0.6,0,1-0.4,1-1  v-7c0-3.8-3.1-6.8-6.8-6.8h-0.3v-3.4c0-0.6-0.4-1-1-1H21.2c-0.6,0-1,0.4-1,1v17.2c0,0.6,0.4,1,1,1h0.9c0.2,0.9,0.8,1.7,1.6,2.3h-7.1  V60.3z M39.8,70.9h1.3c2.7,0,4.8,2.2,4.8,4.8v6h-0.1c-0.5-1.7-2-3-3.9-3s-3.4,1.3-3.9,3h-8.3c-0.5-1.7-2-3-3.9-3  c-1.8,0-3.2,1.1-3.8,2.7v-15h16.6v3.4C38.8,70.4,39.3,70.9,39.8,70.9z M42,80.7c1.1,0,2,0.9,2,2s-0.9,2-2,2s-2-0.9-2-2  S40.9,80.7,42,80.7z M26,80.7c1.1,0,2,0.9,2,2s-0.9,2-2,2s-2-0.9-2-2S24.9,80.7,26,80.7z M29.9,83.7h8.3c0.2,0.9,0.8,1.7,1.6,2.3  H28.3C29.1,85.4,29.6,84.6,29.9,83.7z"
    />
    <path d="M73.8,30.2h4.4c0.6,0,1-0.4,1-1v-8.1c0-0.6-0.4-1-1-1h-4.4c-0.6,0-1,0.4-1,1v8.1C72.8,29.8,73.3,30.2,73.8,30.2z M74.8,22.1  h2.4v6.1h-2.4V22.1z"
    />
    <path d="M65.7,30.2h4.4c0.6,0,1-0.4,1-1v-8.1c0-0.6-0.4-1-1-1h-4.4c-0.6,0-1,0.4-1,1v8.1C64.7,29.8,65.2,30.2,65.7,30.2z M66.7,22.1  h2.4v6.1h-2.4V22.1z"
    />
    <path d="M57.7,30.2h4.4c0.6,0,1-0.4,1-1v-8.1c0-0.6-0.4-1-1-1h-4.4c-0.6,0-1,0.4-1,1v8.1C56.7,29.8,57.1,30.2,57.7,30.2z M58.7,22.1  h2.4v6.1h-2.4V22.1z"
    />
    <path d="M73.8,42.2h4.4c0.6,0,1-0.4,1-1v-8.1c0-0.6-0.4-1-1-1h-4.4c-0.6,0-1,0.4-1,1v8.1C72.8,41.7,73.3,42.2,73.8,42.2z M74.8,34.1  h2.4v6.1h-2.4V34.1z"
    />
    <path d="M65.7,42.2h4.4c0.6,0,1-0.4,1-1v-8.1c0-0.6-0.4-1-1-1h-4.4c-0.6,0-1,0.4-1,1v8.1C64.7,41.7,65.2,42.2,65.7,42.2z M66.7,34.1  h2.4v6.1h-2.4V34.1z"
    />
    <path d="M57.7,42.2h4.4c0.6,0,1-0.4,1-1v-8.1c0-0.6-0.4-1-1-1h-4.4c-0.6,0-1,0.4-1,1v8.1C56.7,41.7,57.1,42.2,57.7,42.2z M58.7,34.1  h2.4v6.1h-2.4V34.1z"
    />
    <path d="M73.8,54h4.4c0.6,0,1-0.4,1-1v-8.1c0-0.6-0.4-1-1-1h-4.4c-0.6,0-1,0.4-1,1V53C72.8,53.5,73.3,54,73.8,54z M74.8,45.9h2.4V52  h-2.4V45.9z"
    />
    <path d="M65.7,54h4.4c0.6,0,1-0.4,1-1v-8.1c0-0.6-0.4-1-1-1h-4.4c-0.6,0-1,0.4-1,1V53C64.7,53.5,65.2,54,65.7,54z M66.7,45.9h2.4V52  h-2.4V45.9z"
    />
    <path d="M57.7,54h4.4c0.6,0,1-0.4,1-1v-8.1c0-0.6-0.4-1-1-1h-4.4c-0.6,0-1,0.4-1,1V53C56.7,53.5,57.1,54,57.7,54z M58.7,45.9h2.4V52  h-2.4V45.9z"
    />
    <path d="M73.8,65.9h4.4c0.6,0,1-0.4,1-1v-8.1c0-0.6-0.4-1-1-1h-4.4c-0.6,0-1,0.4-1,1v8.1C72.8,65.5,73.3,65.9,73.8,65.9z M74.8,57.8  h2.4v6.1h-2.4V57.8z"
    />
    <path d="M65.7,65.9h4.4c0.6,0,1-0.4,1-1v-8.1c0-0.6-0.4-1-1-1h-4.4c-0.6,0-1,0.4-1,1v8.1C64.7,65.5,65.2,65.9,65.7,65.9z M66.7,57.8  h2.4v6.1h-2.4V57.8z"
    />
    <path d="M57.7,65.9h4.4c0.6,0,1-0.4,1-1v-8.1c0-0.6-0.4-1-1-1h-4.4c-0.6,0-1,0.4-1,1v8.1C56.7,65.5,57.1,65.9,57.7,65.9z M58.7,57.8  h2.4v6.1h-2.4V57.8z"
    />
    <path d="M73.8,77.7h4.4c0.6,0,1-0.4,1-1v-8.1c0-0.6-0.4-1-1-1h-4.4c-0.6,0-1,0.4-1,1v8.1C72.8,77.3,73.3,77.7,73.8,77.7z M74.8,69.6  h2.4v6.1h-2.4V69.6z"
    />
    <path d="M65.7,77.7h4.4c0.6,0,1-0.4,1-1v-8.1c0-0.6-0.4-1-1-1h-4.4c-0.6,0-1,0.4-1,1v8.1C64.7,77.3,65.2,77.7,65.7,77.7z M66.7,69.6  h2.4v6.1h-2.4V69.6z"
    />
    <path d="M57.7,77.7h4.4c0.6,0,1-0.4,1-1v-8.1c0-0.6-0.4-1-1-1h-4.4c-0.6,0-1,0.4-1,1v8.1C56.7,77.3,57.1,77.7,57.7,77.7z M58.7,69.6  h2.4v6.1h-2.4V69.6z"
    />
</svg>