<svg xmlns="http://www.w3.org/2000/svg" version="1.1" x="0px" y="0px"
viewBox="0 0 100 125" style="enable-background:new 0 0 100 100;">
    <style type="text/css">
        .st0{fill:none;stroke:#000000;stroke-width:2;stroke-linecap:round;stroke-linejoin:round;stroke-miterlimit:10;}
    </style>
    <path d="M84.5,34.3H69c0,0,0-0.1,0-0.1v-3.4c0.1,0,0.3,0,0.4,0c0.3,0,0.6,0,1-0.1c1.8-0.3,3.3-1.2,4.4-2.6c0.3-0.4,0.2-1.1-0.2-1.4  L70.7,24l1.5-1.9c0.3-0.4,0.3-1.1-0.1-1.4c-0.4-0.3-1.1-0.3-1.4,0.1l-1.6,1.9l-3.6-2.7c-0.4-0.3-1.1-0.2-1.4,0.2  c-1.1,1.4-1.5,3.2-1.3,4.9c0.3,1.8,1.2,3.3,2.6,4.4c0.5,0.4,1,0.6,1.6,0.9v3.9c0,0,0,0.1,0,0.1H53.5V16.7c0-0.6-0.4-1-1-1H16.3  c-0.6,0-1,0.4-1,1v67.5c0,0.6,0.4,1,1,1h68.2c0.6,0,1-0.4,1-1V35.3C85.5,34.8,85.1,34.3,84.5,34.3z M64.9,24.9  c-0.1-0.9,0-1.8,0.4-2.6l7.2,5.4c-1.6,1.4-4,1.5-5.8,0.2C65.7,27.2,65,26.1,64.9,24.9z M38.1,83.2h-8.7V71.5h8.7V83.2z M51.5,83.2  H40.1V70.5c0-0.6-0.4-1-1-1H28.5c-0.6,0-1,0.4-1,1v12.6H17.3V17.7h34.1V83.2z M72.5,83.2h-8.7V71.5h8.7V83.2z M83.5,83.2h-9V70.5  c0-0.6-0.4-1-1-1H62.8c-0.6,0-1,0.4-1,1v12.6h-8.4V36.3h30V83.2z"
    />
    <path d="M24.2,38.8h6.5c0.6,0,1-0.4,1-1v-7.2c0-0.6-0.4-1-1-1h-6.5c-0.6,0-1,0.4-1,1v7.2C23.2,38.4,23.6,38.8,24.2,38.8z M25.2,31.7  h4.5v5.2h-4.5V31.7z"
    />
    <path d="M37.7,38.8h6.5c0.6,0,1-0.4,1-1v-7.2c0-0.6-0.4-1-1-1h-6.5c-0.6,0-1,0.4-1,1v7.2C36.7,38.4,37.1,38.8,37.7,38.8z M38.7,31.7  h4.5v5.2h-4.5V31.7z"
    />
    <path d="M24.2,52h6.5c0.6,0,1-0.4,1-1v-7.2c0-0.6-0.4-1-1-1h-6.5c-0.6,0-1,0.4-1,1V51C23.2,51.5,23.6,52,24.2,52z M25.2,44.8h4.5V50  h-4.5V44.8z"
    />
    <path d="M37.7,52h6.5c0.6,0,1-0.4,1-1v-7.2c0-0.6-0.4-1-1-1h-6.5c-0.6,0-1,0.4-1,1V51C36.7,51.5,37.1,52,37.7,52z M38.7,44.8h4.5V50  h-4.5V44.8z"
    />
    <path d="M24.2,65.2h6.5c0.6,0,1-0.4,1-1V57c0-0.6-0.4-1-1-1h-6.5c-0.6,0-1,0.4-1,1v7.2C23.2,64.7,23.6,65.2,24.2,65.2z M25.2,58h4.5  v5.2h-4.5V58z"
    />
    <path d="M37.7,65.2h6.5c0.6,0,1-0.4,1-1V57c0-0.6-0.4-1-1-1h-6.5c-0.6,0-1,0.4-1,1v7.2C36.7,64.7,37.1,65.2,37.7,65.2z M38.7,58h4.5  v5.2h-4.5V58z"
    />
    <path d="M58.2,52h6.5c0.6,0,1-0.4,1-1v-7.2c0-0.6-0.4-1-1-1h-6.5c-0.6,0-1,0.4-1,1V51C57.2,51.5,57.6,52,58.2,52z M59.2,44.8h4.5V50  h-4.5V44.8z"
    />
    <path d="M71.7,52h6.5c0.6,0,1-0.4,1-1v-7.2c0-0.6-0.4-1-1-1h-6.5c-0.6,0-1,0.4-1,1V51C70.7,51.5,71.2,52,71.7,52z M72.7,44.8h4.5V50  h-4.5V44.8z"
    />
    <path d="M58.2,65.2h6.5c0.6,0,1-0.4,1-1V57c0-0.6-0.4-1-1-1h-6.5c-0.6,0-1,0.4-1,1v7.2C57.2,64.7,57.6,65.2,58.2,65.2z M59.2,58h4.5  v5.2h-4.5V58z"
    />
    <path d="M71.7,65.2h6.5c0.6,0,1-0.4,1-1V57c0-0.6-0.4-1-1-1h-6.5c-0.6,0-1,0.4-1,1v7.2C70.7,64.7,71.2,65.2,71.7,65.2z M72.7,58h4.5  v5.2h-4.5V58z"
    />
</svg>