<svg xmlns="http://www.w3.org/2000/svg" version="1.1" x="0px" y="0px"
viewBox="0 0 100 125" style="enable-background:new 0 0 100 100;">
    <path d="M81.8,84.4c0-0.6-0.4-1-1-1h-2.8V31.3c0-0.6-0.4-1-1-1h-2.3V18.9c0-0.6-0.4-1-1-1H58.5c-0.6,0-1,0.4-1,1v3.2c0,0,0,0,0,0  c0,0.1-4,7.5-12.7,7.7V27c0-0.6-0.4-1-1-1h-2.5v-0.2c0-4-2.9-7.2-6.4-7.2s-6.4,3.2-6.4,7.2V26H26c-0.6,0-1,0.4-1,1v16.7h-0.8  c-0.6,0-1,0.4-1,1v7.6h-0.7c-0.6,0-1,0.4-1,1s0.4,1,1,1h0.7V61h-0.7c-0.6,0-1,0.4-1,1s0.4,1,1,1h0.7v11.8v8.6h-3.4c-0.6,0-1,0.4-1,1  s0.4,1,1,1h60.9C81.3,85.4,81.8,85,81.8,84.4z M68.6,83.4h-5.2v-8.6c0-2.2,1.2-4,2.6-4c1.4,0,2.6,1.8,2.6,4V83.4z M66,68.8  c-2.6,0-4.6,2.6-4.6,6v8.6h-5.2V63h19.7v20.4h-5.3v-8.6C70.6,71.4,68.6,68.8,66,68.8z M39.7,83.4v-8.6c0-2.2,1.2-4,2.6-4  c1.4,0,2.6,1.8,2.6,4v8.6H39.7z M37.6,83.4h-5.2v-8.6c0-2.2,1.2-4,2.6-4c1.4,0,2.6,1.8,2.6,4V83.4z M47.4,61h-0.5v-6.7h0.5  c0.6,0,1-0.4,1-1s-0.4-1-1-1h-0.5v-7.6c0-0.6-0.4-1-1-1h-1V40c1.7,1.9,4.6,4.1,9.2,4.1c0.1,0,0.1,0,0.2,0v17.2  c-0.4,0.7-2.7,3.7-7.4,4.1V63h0.5c0.6,0,1-0.4,1-1S47.9,61,47.4,61z M31.1,43.8h-3.8v-7c0-1.6,0.9-3.1,1.9-3.1s1.9,1.4,1.9,3.1V43.8  z M36.9,43.8h-3.8v-7c0-1.6,0.9-3.1,1.9-3.1s1.9,1.4,1.9,3.1V43.8z M42.8,43.8H39v-7c0-1.6,0.9-3.1,1.9-3.1s1.9,1.4,1.9,3.1V43.8z   M70.5,56.6h-8.8v-0.7c0-2.9,2-5.2,4.4-5.2s4.4,2.3,4.4,5.2V56.6z M75.9,58.6V61H56.2v-2.3H75.9z M46.9,74.8v-7.4  c3.5-0.2,5.9-1.7,7.4-3.1v19.1h-7.4V74.8z M75.9,56.6h-3.4v-0.7c0-4-2.9-7.2-6.4-7.2c-3.5,0-6.4,3.2-6.4,7.2v0.7h-3.5V32.3h19.7  V56.6z M72.6,19.9v10.4H59.5V19.9H72.6z M57.5,25.6v4.8h-2.3c-0.6,0-1,0.4-1,1v10.8c-6.8,0.1-9.2-5.2-9.3-5.4c0,0-0.1-0.1-0.1-0.1  v-4.7C51.3,31.7,55.4,28.1,57.5,25.6z M30.5,25.8c0-2.9,2-5.2,4.4-5.2s4.4,2.3,4.4,5.2V26h-8.8V25.8z M42.8,28v4.3  c-0.6-0.4-1.2-0.6-1.9-0.6c-1.2,0-2.2,0.7-3,1.8c-0.7-1.1-1.8-1.8-3-1.8c-1.2,0-2.2,0.6-2.9,1.7c-0.7-1-1.7-1.7-2.9-1.7  c-0.8,0-1.6,0.3-2.2,0.9V28H42.8z M25.2,45.8h19.7v6.6H25.2V45.8z M25.2,54.3h19.7V61H25.2V54.3z M44.9,63v6.8c-0.7-0.6-1.6-1-2.6-1  c-1.5,0-2.8,0.9-3.7,2.4c-0.8-1.4-2.1-2.4-3.7-2.4c-1.5,0-2.8,0.9-3.6,2.2c-0.8-1.4-2.1-2.2-3.6-2.2c-1,0-1.9,0.4-2.6,1V63H44.9z   M25.2,74.8c0-2.2,1.2-4,2.6-4c1.4,0,2.6,1.8,2.6,4v8.6h-5.2V74.8z"
    />
</svg>