<svg xmlns="http://www.w3.org/2000/svg" version="1.1" x="0px" y="0px"
viewBox="0 0 100 125" style="enable-background:new 0 0 100 100;">
    <path d="M65,63.7c0.6,0,1-0.4,1-1v-1.7c0-0.6-0.4-1-1-1s-1,0.4-1,1v1.7C64,63.3,64.5,63.7,65,63.7z"
    />
    <path d="M60.4,63.7c0.6,0,1-0.4,1-1v-1.7c0-0.6-0.4-1-1-1s-1,0.4-1,1v1.7C59.4,63.3,59.8,63.7,60.4,63.7z"
    />
    <path d="M55.7,63.7c0.6,0,1-0.4,1-1v-1.7c0-0.6-0.4-1-1-1s-1,0.4-1,1v1.7C54.7,63.3,55.2,63.7,55.7,63.7z"
    />
    <path d="M51.1,63.7c0.6,0,1-0.4,1-1v-1.7c0-0.6-0.4-1-1-1s-1,0.4-1,1v1.7C50.1,63.3,50.5,63.7,51.1,63.7z"
    />
    <path d="M65,69.4c-0.6,0-1,0.4-1,1v8.2c0,0.6,0.4,1,1,1s1-0.4,1-1v-8.2C66,69.9,65.6,69.4,65,69.4z"
    />
    <path d="M60.4,69.4c-0.6,0-1,0.4-1,1v8.2c0,0.6,0.4,1,1,1s1-0.4,1-1v-8.2C61.4,69.9,60.9,69.4,60.4,69.4z"
    />
    <path d="M55.7,69.4c-0.6,0-1,0.4-1,1v8.2c0,0.6,0.4,1,1,1s1-0.4,1-1v-8.2C56.7,69.9,56.3,69.4,55.7,69.4z"
    />
    <path d="M51.1,69.4c-0.6,0-1,0.4-1,1v8.2c0,0.6,0.4,1,1,1s1-0.4,1-1v-8.2C52.1,69.9,51.6,69.4,51.1,69.4z"
    />
    <path d="M20.7,83.4h60.9c0.6,0,1-0.4,1-1s-0.4-1-1-1h-3.1v-9.5c2.6-0.5,4.5-2.7,4.5-5.4c0-2.2-1.3-4.1-3.1-5  c0.8-0.7,1.3-1.7,1.3-2.8c0-2.1-1.7-3.8-3.8-3.8s-3.8,1.7-3.8,3.8c0,1.1,0.5,2.2,1.3,2.8c-1.8,0.9-3.1,2.8-3.1,5c0,2.7,2,5,4.5,5.4  v9.5h-5.5V56.6c0-0.6-0.4-1-1-1H47V16.4c0-0.6-0.4-1-1-1H24.6c-0.6,0-1,0.4-1,1v65h-3c-0.6,0-1,0.4-1,1S20.1,83.4,20.7,83.4z   M77.5,56.9c1,0,1.8,0.8,1.8,1.8s-0.8,1.8-1.8,1.8s-1.8-0.8-1.8-1.8S76.5,56.9,77.5,56.9z M73.9,66.4c0-1.9,1.6-3.5,3.5-3.5  s3.5,1.6,3.5,3.5S79.4,70,77.5,70S73.9,68.4,73.9,66.4z M47.1,81.4V68.1h21.8v13.3H47.1z M68.9,57.6v8.6H47.1v-8.6H68.9z M25.6,17.4  H45v64H25.6V17.4z"
    />
    <path d="M40.4,20.5c-0.6,0-1,0.4-1,1v57.4c0,0.6,0.4,1,1,1s1-0.4,1-1V21.5C41.4,20.9,41,20.5,40.4,20.5z"
    />
    <path d="M35.1,20.5c-0.6,0-1,0.4-1,1v57.4c0,0.6,0.4,1,1,1s1-0.4,1-1V21.5C36.1,20.9,35.7,20.5,35.1,20.5z"
    />
    <path d="M29.9,20.5c-0.6,0-1,0.4-1,1v57.4c0,0.6,0.4,1,1,1s1-0.4,1-1V21.5C30.9,20.9,30.5,20.5,29.9,20.5z"
    />
</svg>