<svg xmlns="http://www.w3.org/2000/svg" version="1.1" x="0px" y="0px"
viewBox="0 0 100 125" style="enable-background:new 0 0 100 100;">
    <path d="M86.4,71.7c-2,0-3,0.6-3.9,1.1c-0.8,0.5-1.5,0.9-2.9,0.9c-1.4,0-2.1-0.4-2.9-0.9c-0.9-0.5-1.9-1.1-3.9-1.1s-3,0.6-3.9,1.1  c-0.8,0.5-1.5,0.9-2.9,0.9c-1.4,0-2.1-0.4-2.9-0.9c-0.9-0.5-1.9-1.1-3.9-1.1c-2,0-3,0.6-3.9,1.1c-0.8,0.5-1.5,0.9-2.9,0.9  c-1.4,0-2.1-0.4-2.9-0.9c-0.9-0.5-1.9-1.1-3.9-1.1c-2,0-3,0.6-3.9,1.1c-0.8,0.5-1.5,0.9-2.9,0.9c-1.4,0-2.1-0.4-2.9-0.9  c-0.9-0.5-1.9-1.1-3.9-1.1c-2,0-3,0.6-3.9,1.1c-0.8,0.5-1.5,0.9-2.9,0.9c-1.4,0-2.1-0.4-2.9-0.9c-0.9-0.5-1.9-1.1-3.9-1.1  s-3,0.6-3.9,1.1c-0.8,0.5-1.5,0.9-2.9,0.9c-0.6,0-1,0.4-1,1s0.4,1,1,1c2,0,3-0.6,3.9-1.1c0.8-0.5,1.5-0.9,2.9-0.9s2.1,0.4,2.9,0.9  c0.9,0.5,1.9,1.1,3.9,1.1c2,0,3-0.6,3.9-1.1c0.8-0.5,1.5-0.9,2.9-0.9c1.4,0,2.1,0.4,2.9,0.9c0.9,0.5,1.9,1.1,3.9,1.1  c2,0,3-0.6,3.9-1.1c0.8-0.5,1.5-0.9,2.9-0.9c1.4,0,2.1,0.4,2.9,0.9c0.9,0.5,1.9,1.1,3.9,1.1c2,0,3-0.6,3.9-1.1  c0.8-0.5,1.5-0.9,2.9-0.9c1.4,0,2.1,0.4,2.9,0.9c0.9,0.5,1.9,1.1,3.9,1.1s3-0.6,3.9-1.1c0.8-0.5,1.5-0.9,2.9-0.9  c1.4,0,2.1,0.4,2.9,0.9c0.9,0.5,1.9,1.1,3.9,1.1c2,0,3-0.6,3.9-1.1c0.8-0.5,1.5-0.9,2.9-0.9c0.6,0,1-0.4,1-1S87,71.7,86.4,71.7z"
    />
    <path d="M86.4,78.5c-2,0-3,0.6-3.9,1.1c-0.8,0.5-1.5,0.9-2.9,0.9c-1.4,0-2.1-0.4-2.9-0.9c-0.9-0.5-1.9-1.1-3.9-1.1s-3,0.6-3.9,1.1  c-0.8,0.5-1.5,0.9-2.9,0.9c-1.4,0-2.1-0.4-2.9-0.9c-0.9-0.5-1.9-1.1-3.9-1.1c-2,0-3,0.6-3.9,1.1c-0.8,0.5-1.5,0.9-2.9,0.9  c-1.4,0-2.1-0.4-2.9-0.9c-0.9-0.5-1.9-1.1-3.9-1.1c-2,0-3,0.6-3.9,1.1c-0.8,0.5-1.5,0.9-2.9,0.9c-1.4,0-2.1-0.4-2.9-0.9  c-0.9-0.5-1.9-1.1-3.9-1.1c-2,0-3,0.6-3.9,1.1c-0.8,0.5-1.5,0.9-2.9,0.9c-1.4,0-2.1-0.4-2.9-0.9c-0.9-0.5-1.9-1.1-3.9-1.1  s-3,0.6-3.9,1.1c-0.8,0.5-1.5,0.9-2.9,0.9c-0.6,0-1,0.4-1,1s0.4,1,1,1c2,0,3-0.6,3.9-1.1c0.8-0.5,1.5-0.9,2.9-0.9s2.1,0.4,2.9,0.9  c0.9,0.5,1.9,1.1,3.9,1.1c2,0,3-0.6,3.9-1.1c0.8-0.5,1.5-0.9,2.9-0.9c1.4,0,2.1,0.4,2.9,0.9c0.9,0.5,1.9,1.1,3.9,1.1  c2,0,3-0.6,3.9-1.1c0.8-0.5,1.5-0.9,2.9-0.9c1.4,0,2.1,0.4,2.9,0.9c0.9,0.5,1.9,1.1,3.9,1.1c2,0,3-0.6,3.9-1.1  c0.8-0.5,1.5-0.9,2.9-0.9c1.4,0,2.1,0.4,2.9,0.9c0.9,0.5,1.9,1.1,3.9,1.1s3-0.6,3.9-1.1c0.8-0.5,1.5-0.9,2.9-0.9  c1.4,0,2.1,0.4,2.9,0.9c0.9,0.5,1.9,1.1,3.9,1.1c2,0,3-0.6,3.9-1.1c0.8-0.5,1.5-0.9,2.9-0.9c0.6,0,1-0.4,1-1S87,78.5,86.4,78.5z"
    />
    <path d="M86.4,85.4c-2,0-3,0.6-3.9,1.1c-0.8,0.5-1.5,0.9-2.9,0.9c-1.4,0-2.1-0.4-2.9-0.9c-0.9-0.5-1.9-1.1-3.9-1.1s-3,0.6-3.9,1.1  c-0.8,0.5-1.5,0.9-2.9,0.9c-1.4,0-2.1-0.4-2.9-0.9c-0.9-0.5-1.9-1.1-3.9-1.1c-2,0-3,0.6-3.9,1.1c-0.8,0.5-1.5,0.9-2.9,0.9  c-1.4,0-2.1-0.4-2.9-0.9c-0.9-0.5-1.9-1.1-3.9-1.1c-2,0-3,0.6-3.9,1.1c-0.8,0.5-1.5,0.9-2.9,0.9c-1.4,0-2.1-0.4-2.9-0.9  c-0.9-0.5-1.9-1.1-3.9-1.1c-2,0-3,0.6-3.9,1.1c-0.8,0.5-1.5,0.9-2.9,0.9c-1.4,0-2.1-0.4-2.9-0.9c-0.9-0.5-1.9-1.1-3.9-1.1  s-3,0.6-3.9,1.1c-0.8,0.5-1.5,0.9-2.9,0.9c-0.6,0-1,0.4-1,1s0.4,1,1,1c2,0,3-0.6,3.9-1.1c0.8-0.5,1.5-0.9,2.9-0.9s2.1,0.4,2.9,0.9  c0.9,0.5,1.9,1.1,3.9,1.1c2,0,3-0.6,3.9-1.1c0.8-0.5,1.5-0.9,2.9-0.9c1.4,0,2.1,0.4,2.9,0.9c0.9,0.5,1.9,1.1,3.9,1.1  c2,0,3-0.6,3.9-1.1c0.8-0.5,1.5-0.9,2.9-0.9c1.4,0,2.1,0.4,2.9,0.9c0.9,0.5,1.9,1.1,3.9,1.1c2,0,3-0.6,3.9-1.1  c0.8-0.5,1.5-0.9,2.9-0.9c1.4,0,2.1,0.4,2.9,0.9c0.9,0.5,1.9,1.1,3.9,1.1s3-0.6,3.9-1.1c0.8-0.5,1.5-0.9,2.9-0.9  c1.4,0,2.1,0.4,2.9,0.9c0.9,0.5,1.9,1.1,3.9,1.1c2,0,3-0.6,3.9-1.1c0.8-0.5,1.5-0.9,2.9-0.9c0.6,0,1-0.4,1-1S87,85.4,86.4,85.4z"
    />
    <path d="M86.4,65.4h-2.5V13.3c0-0.3-0.2-0.6-0.4-0.8c-0.3-0.2-0.6-0.2-0.9-0.1L63.3,20c-0.4,0.2-0.6,0.5-0.6,0.9v44.5h-2.1  c0,0,0,0,0-0.1l-4-9.7l0.8-14.1L60.1,28c0.1-0.4-0.1-0.9-0.5-1.1L37.1,15c-0.3-0.2-0.7-0.2-1,0c-0.3,0.2-0.5,0.5-0.5,0.9v49.5h-2.4  V21.9c0-0.6-0.4-1-1-1h-0.3c-0.2-1.6-1.5-2.9-2.9-3.5c0,0,0-0.1,0-0.1c0-2.1-1.8-3.7-3.3-3.7h-1.2V9c0-0.6-0.4-1-1-1s-1,0.4-1,1v4.5  h-1.2c-1.5,0-3.3,1.7-3.3,3.7c0,0,0,0.1,0,0.1c-1.4,0.6-2.7,2-2.9,3.5h-0.3c-0.6,0-1,0.4-1,1v43.5h-2.5c-0.6,0-1,0.4-1,1s0.4,1,1,1  h75.1c0.6,0,1-0.4,1-1S87,65.4,86.4,65.4z M64.7,21.6l17.2-6.8v50.7H64.7V21.6z M37.7,17.6L58,28.3l-2.6,12.9c0,0,0,0.1,0,0.1  l-0.8,14.4c0,0.1,0,0.3,0.1,0.4l3.8,9.2H37.7V17.6z M21.3,15.5h4.5c0.3,0,1.1,0.6,1.2,1.4h-6.9C20.3,16.1,21,15.5,21.3,15.5z   M19.9,18.9h7.4c0.9,0,2.3,0.9,2.6,2H17.2C17.6,19.8,19,18.9,19.9,18.9z M15.9,22.9h15.4v42.5H15.9V22.9z"
    />
    <path d="M77.9,25.3c-0.6,0-1,0.4-1,1v2.9c0,0.6,0.4,1,1,1s1-0.4,1-1v-2.9C78.9,25.8,78.5,25.3,77.9,25.3z"
    />
    <path d="M73.2,25.3c-0.6,0-1,0.4-1,1v2.9c0,0.6,0.4,1,1,1s1-0.4,1-1v-2.9C74.2,25.8,73.7,25.3,73.2,25.3z"
    />
    <path d="M68.4,25.3c-0.6,0-1,0.4-1,1v2.9c0,0.6,0.4,1,1,1s1-0.4,1-1v-2.9C69.4,25.8,69,25.3,68.4,25.3z"
    />
    <path d="M77.9,32.9c-0.6,0-1,0.4-1,1v2.9c0,0.6,0.4,1,1,1s1-0.4,1-1v-2.9C78.9,33.3,78.5,32.9,77.9,32.9z"
    />
    <path d="M73.2,32.9c-0.6,0-1,0.4-1,1v2.9c0,0.6,0.4,1,1,1s1-0.4,1-1v-2.9C74.2,33.3,73.7,32.9,73.2,32.9z"
    />
    <path d="M68.4,32.9c-0.6,0-1,0.4-1,1v2.9c0,0.6,0.4,1,1,1s1-0.4,1-1v-2.9C69.4,33.3,69,32.9,68.4,32.9z"
    />
    <path d="M77.9,40.4c-0.6,0-1,0.4-1,1v2.9c0,0.6,0.4,1,1,1s1-0.4,1-1v-2.9C78.9,40.9,78.5,40.4,77.9,40.4z"
    />
    <path d="M73.2,40.4c-0.6,0-1,0.4-1,1v2.9c0,0.6,0.4,1,1,1s1-0.4,1-1v-2.9C74.2,40.9,73.7,40.4,73.2,40.4z"
    />
    <path d="M68.4,40.4c-0.6,0-1,0.4-1,1v2.9c0,0.6,0.4,1,1,1s1-0.4,1-1v-2.9C69.4,40.9,69,40.4,68.4,40.4z"
    />
    <path d="M77.9,48c-0.6,0-1,0.4-1,1v2.9c0,0.6,0.4,1,1,1s1-0.4,1-1V49C78.9,48.4,78.5,48,77.9,48z"
    />
    <path d="M73.2,48c-0.6,0-1,0.4-1,1v2.9c0,0.6,0.4,1,1,1s1-0.4,1-1V49C74.2,48.4,73.7,48,73.2,48z"
    />
    <path d="M68.4,48c-0.6,0-1,0.4-1,1v2.9c0,0.6,0.4,1,1,1s1-0.4,1-1V49C69.4,48.4,69,48,68.4,48z"
    />
    <path d="M77.9,55.5c-0.6,0-1,0.4-1,1v2.9c0,0.6,0.4,1,1,1s1-0.4,1-1v-2.9C78.9,56,78.5,55.5,77.9,55.5z"
    />
    <path d="M73.2,55.5c-0.6,0-1,0.4-1,1v2.9c0,0.6,0.4,1,1,1s1-0.4,1-1v-2.9C74.2,56,73.7,55.5,73.2,55.5z"
    />
    <path d="M68.4,55.5c-0.6,0-1,0.4-1,1v2.9c0,0.6,0.4,1,1,1s1-0.4,1-1v-2.9C69.4,56,69,55.5,68.4,55.5z"
    />
    <path d="M50.8,32.9c-0.6,0-1,0.4-1,1v2.9c0,0.6,0.4,1,1,1s1-0.4,1-1v-2.9C51.8,33.3,51.4,32.9,50.8,32.9z"
    />
    <path d="M46.1,32.9c-0.6,0-1,0.4-1,1v2.9c0,0.6,0.4,1,1,1s1-0.4,1-1v-2.9C47.1,33.3,46.6,32.9,46.1,32.9z"
    />
    <path d="M41.3,32.9c-0.6,0-1,0.4-1,1v2.9c0,0.6,0.4,1,1,1s1-0.4,1-1v-2.9C42.3,33.3,41.9,32.9,41.3,32.9z"
    />
    <path d="M50.8,40.4c-0.6,0-1,0.4-1,1v2.9c0,0.6,0.4,1,1,1s1-0.4,1-1v-2.9C51.8,40.9,51.4,40.4,50.8,40.4z"
    />
    <path d="M46.1,40.4c-0.6,0-1,0.4-1,1v2.9c0,0.6,0.4,1,1,1s1-0.4,1-1v-2.9C47.1,40.9,46.6,40.4,46.1,40.4z"
    />
    <path d="M41.3,40.4c-0.6,0-1,0.4-1,1v2.9c0,0.6,0.4,1,1,1s1-0.4,1-1v-2.9C42.3,40.9,41.9,40.4,41.3,40.4z"
    />
    <path d="M50.8,48c-0.6,0-1,0.4-1,1v2.9c0,0.6,0.4,1,1,1s1-0.4,1-1V49C51.8,48.4,51.4,48,50.8,48z"
    />
    <path d="M46.1,48c-0.6,0-1,0.4-1,1v2.9c0,0.6,0.4,1,1,1s1-0.4,1-1V49C47.1,48.4,46.6,48,46.1,48z"
    />
    <path d="M41.3,48c-0.6,0-1,0.4-1,1v2.9c0,0.6,0.4,1,1,1s1-0.4,1-1V49C42.3,48.4,41.9,48,41.3,48z"
    />
    <path d="M50.8,55.5c-0.6,0-1,0.4-1,1v2.9c0,0.6,0.4,1,1,1s1-0.4,1-1v-2.9C51.8,56,51.4,55.5,50.8,55.5z"
    />
    <path d="M46.1,55.5c-0.6,0-1,0.4-1,1v2.9c0,0.6,0.4,1,1,1s1-0.4,1-1v-2.9C47.1,56,46.6,55.5,46.1,55.5z"
    />
    <path d="M41.3,55.5c-0.6,0-1,0.4-1,1v2.9c0,0.6,0.4,1,1,1s1-0.4,1-1v-2.9C42.3,56,41.9,55.5,41.3,55.5z"
    />
    <path d="M27.7,38.7c-0.6,0-1,0.4-1,1v7.8c0,0.6,0.4,1,1,1s1-0.4,1-1v-7.8C28.7,39.1,28.3,38.7,27.7,38.7z"
    />
    <path d="M23.6,38.7c-0.6,0-1,0.4-1,1v7.8c0,0.6,0.4,1,1,1s1-0.4,1-1v-7.8C24.6,39.1,24.1,38.7,23.6,38.7z"
    />
    <path d="M19.4,38.7c-0.6,0-1,0.4-1,1v7.8c0,0.6,0.4,1,1,1s1-0.4,1-1v-7.8C20.4,39.1,20,38.7,19.4,38.7z"
    />
    <path d="M27.7,26.2c-0.6,0-1,0.4-1,1v7.8c0,0.6,0.4,1,1,1s1-0.4,1-1v-7.8C28.7,26.6,28.3,26.2,27.7,26.2z"
    />
    <path d="M23.6,26.2c-0.6,0-1,0.4-1,1v7.8c0,0.6,0.4,1,1,1s1-0.4,1-1v-7.8C24.6,26.6,24.1,26.2,23.6,26.2z"
    />
    <path d="M19.4,26.2c-0.6,0-1,0.4-1,1v7.8c0,0.6,0.4,1,1,1s1-0.4,1-1v-7.8C20.4,26.6,20,26.2,19.4,26.2z"
    />
    <path d="M27.7,50.9c-0.6,0-1,0.4-1,1v7.8c0,0.6,0.4,1,1,1s1-0.4,1-1v-7.8C28.7,51.4,28.3,50.9,27.7,50.9z"
    />
    <path d="M23.6,50.9c-0.6,0-1,0.4-1,1v7.8c0,0.6,0.4,1,1,1s1-0.4,1-1v-7.8C24.6,51.4,24.1,50.9,23.6,50.9z"
    />
    <path d="M19.4,50.9c-0.6,0-1,0.4-1,1v7.8c0,0.6,0.4,1,1,1s1-0.4,1-1v-7.8C20.4,51.4,20,50.9,19.4,50.9z"
    />
</svg>