<svg xmlns="http://www.w3.org/2000/svg" version="1.1" x="0px" y="0px"
viewBox="0 0 512 640" enable-background="new 0 0 512 512">
    <g>
        <path d="M448.2,2H63.8C40.4,2,21.4,21,21.4,44.3v423.3c0,23.3,19,42.3,42.3,42.3h384.5c23.3,0,42.3-19,42.3-42.3V44.3   C490.6,21,471.6,2,448.2,2z M462.4,467.7c0,7.8-6.3,14.1-14.1,14.1H63.8c-7.8,0-14.1-6.3-14.1-14.1V44.3c0-7.8,6.3-14.1,14.1-14.1   h384.5c7.8,0,14.1,6.3,14.1,14.1V467.7z"
        />
        <path d="M128,358.5c-24.8,0-44.9,20.1-44.9,44.9s20.2,44.9,44.9,44.9c24.8,0,44.9-20.1,44.9-44.9S152.7,358.5,128,358.5z    M128,420.2c-9.2,0-16.7-7.5-16.7-16.7s7.5-16.7,16.7-16.7c9.2,0,16.7,7.5,16.7,16.7S137.2,420.2,128,420.2z"
        />
        <path d="M251.2,358.5c-24.8,0-44.9,20.1-44.9,44.9s20.2,44.9,44.9,44.9c24.8,0,44.9-20.1,44.9-44.9S276,358.5,251.2,358.5z    M251.2,420.2c-9.2,0-16.7-7.5-16.7-16.7s7.5-16.7,16.7-16.7s16.7,7.5,16.7,16.7S260.4,420.2,251.2,420.2z"
        />
        <path d="M128,235.3c-24.8,0-44.9,20.1-44.9,44.9c0,24.8,20.2,44.9,44.9,44.9c24.8,0,44.9-20.1,44.9-44.9   C172.9,255.5,152.7,235.3,128,235.3z M128,296.9c-9.2,0-16.7-7.5-16.7-16.7c0-9.2,7.5-16.7,16.7-16.7c9.2,0,16.7,7.5,16.7,16.7   C144.6,289.4,137.2,296.9,128,296.9z"
        />
        <path d="M251.2,235.3c-24.8,0-44.9,20.1-44.9,44.9c0,24.8,20.2,44.9,44.9,44.9c24.8,0,44.9-20.1,44.9-44.9   C296.1,255.5,276,235.3,251.2,235.3z M251.2,296.9c-9.2,0-16.7-7.5-16.7-16.7c0-9.2,7.5-16.7,16.7-16.7s16.7,7.5,16.7,16.7   C267.9,289.4,260.4,296.9,251.2,296.9z"
        />
        <path d="M374.5,235.4c-24.8,0-44.9,20.1-44.9,44.9v123.2c0,24.8,20.1,44.9,44.9,44.9s44.9-20.2,44.9-44.9V280.3   C419.4,255.5,399.2,235.4,374.5,235.4z M391.1,403.5c0,9.2-7.5,16.7-16.7,16.7s-16.7-7.5-16.7-16.7V280.3c0-9.2,7.5-16.7,16.7-16.7   s16.7,7.5,16.7,16.7V403.5z"
        />
        <path d="M414.9,63.6H97.1c-7.8,0-14.1,6.3-14.1,14.1v92.4c0,7.8,6.3,14.1,14.1,14.1h317.7c7.8,0,14.1-6.3,14.1-14.1V77.7   C429,69.9,422.6,63.6,414.9,63.6z M400.7,156H111.3V91.8h289.5V156z"
        />
    </g>
</svg>