<svg xmlns="http://www.w3.org/2000/svg" version="1.1" x="0px" y="0px"
viewBox="0 0 512 640" enable-background="new 0 0 512 512">
    <g>
        <path d="M432.9,60.2H79.1c-7.8,0-14.1,6.3-14.1,14.1s6.3,14.1,14.1,14.1h353.8c7.8,0,14.1-6.3,14.1-14.1S440.7,60.2,432.9,60.2z"
        />
        <path d="M432.9,130.7H79.1c-7.8,0-14.1,6.3-14.1,14.1c0,7.8,6.3,14.1,14.1,14.1h353.8c7.8,0,14.1-6.3,14.1-14.1   C447,137,440.7,130.7,432.9,130.7z"
        />
        <path d="M167.6,201.1H79.1c-7.8,0-14.1,6.3-14.1,14.1s6.3,14.1,14.1,14.1h88.4c7.8,0,14.1-6.3,14.1-14.1S175.3,201.1,167.6,201.1z"
        />
        <path d="M294.4,235.6c-28.7,0-52.1,23.4-52.1,52.1c0,28.7,23.4,52.1,52.1,52.1s52.1-23.4,52.1-52.1   C346.6,258.9,323.2,235.6,294.4,235.6z M294.4,311.6c-13.2,0-23.9-10.7-23.9-23.9c0-13.2,10.7-23.9,23.9-23.9s23.9,10.7,23.9,23.9   C318.3,300.9,307.6,311.6,294.4,311.6z"
        />
        <path d="M469.2,2H42.8C20.3,2,2,20.3,2,42.8v207.3c0,10.9,4.2,21.1,11.9,28.8l67.2,67.2c7.7,7.7,17.9,11.9,28.8,11.9h102   c6.2,7.2,13.3,13.7,21.1,19.1v118.7c0,11.8,13.6,18.4,22.9,11l38.5-30.6l38.5,30.6c9.2,7.4,22.9,0.8,22.9-11V377.1   c7.9-5.4,15-11.9,21.1-19.1h92.3c22.5,0,40.8-18.3,40.8-40.8V42.8C510,20.3,491.7,2,469.2,2z M84.8,309.9l-34.6-34.6h34.6V309.9z    M327.6,466.6l-24.4-19.4c-5.1-4.1-12.4-4.1-17.6,0l-24.4,19.4V391c10.5,3.4,21.6,5.2,33.2,5.2s22.7-1.9,33.2-5.2V466.6z    M294.4,368c-44.3,0-80.3-36-80.3-80.3s36-80.3,80.3-80.3s80.3,36,80.3,80.3S338.7,368,294.4,368z M481.8,317.3   c0,6.9-5.6,12.5-12.5,12.5h-74.7c5.5-13,8.5-27.2,8.5-42.1c0-59.9-48.7-108.5-108.6-108.5s-108.6,48.7-108.6,108.5   c0,14.9,3,29.2,8.5,42.1H113v-68.7c0-7.8-6.3-14.1-14.1-14.1H30.2V42.8c0-6.9,5.6-12.5,12.5-12.5h426.5c6.9,0,12.5,5.6,12.5,12.5   V317.3z"
        />
    </g>
</svg>