<svg xmlns="http://www.w3.org/2000/svg" version="1.1" x="0px" y="0px"
viewBox="0 0 100 125" enable-background="new 0 0 100 100">
    <g>
        <path d="M89.583,85.334V42.25H77.25v43.084h-1V32.473l-11.667,8.909v43.952H63.25V49.917h-9.414v-24.5H40.175v59.917h-1.633V43.917   h-12.5v41.417h-1.333V58.25H12.875v27.084H9.25v2.5H91.5v-2.5H89.583z M87.083,63.25H79.75v-7.5h7.333V63.25z M87.083,65.75v7.5   H79.75v-7.5H87.083z M87.083,44.75v8.5H79.75v-8.5H87.083z M79.75,75.75h7.333v9.584H79.75V75.75z M67.083,42.618l6.667-5.091   v47.807h-6.667V42.618z M42.675,42.583h4.562v-2.5h-4.562v-7.5h4.562v-2.5h-4.562v-2.167h8.661v7.5H46.63v2.5h4.706v7.5H46.63v2.5   h4.706v4.5h9.414v32.917h-3.676v-9.25H45.38v9.25h-2.705V42.583z M54.574,85.334H47.88v-6.75h6.694V85.334z M28.542,46.417h7.5   v38.917h-7.5V46.417z M15.375,60.75h6.833v24.584h-6.833V60.75z"
        />
        <rect x="9.25" y="90.334" width="82.25" height="2.5" />
        <rect x="27.333" y="39.75" width="10" height="2.5" />
        <rect x="27.333" y="35.417" width="10" height="2.5" />
        <rect x="31.083" y="25.083" width="2.5" height="8.084" />
        <rect x="17.375" y="61.917" width="2.833" height="2.5" />
        <rect x="17.375" y="65.917" width="2.833" height="2.5" />
        <rect x="17.375" y="69.917" width="2.833" height="2.5" />
        <rect x="17.375" y="73.917" width="2.833" height="2.5" />
        <rect x="17.375" y="77.917" width="2.833" height="2.5" />
        <rect x="17.375" y="81.917" width="2.833" height="2.5" />
        <rect x="30.542" y="47.917" width="3.5" height="2.5" />
        <rect x="30.542" y="53.917" width="3.5" height="2.5" />
        <rect x="30.542" y="59.917" width="3.5" height="2.5" />
        <rect x="30.542" y="65.917" width="3.5" height="2.5" />
        <rect x="30.542" y="71.917" width="3.5" height="2.5" />
        <rect x="30.542" y="77.917" width="3.5" height="2.5" />
        <rect x="45.318" y="53.917" width="11.941" height="2.5" />
        <rect x="45.318" y="59.917" width="11.941" height="2.5" />
        <rect x="45.318" y="65.917" width="11.941" height="2.5" />
        <rect x="45.318" y="71.917" width="11.941" height="2.5" />
        <rect x="69.166" y="45.167" width="2.5" height="35.5" />
        <path d="M78.5,26.333c3.768,0,6.833-3.065,6.833-6.833s-3.065-6.833-6.833-6.833s-6.833,3.065-6.833,6.833   S74.732,26.333,78.5,26.333z M78.5,15.167c2.39,0,4.333,1.944,4.333,4.333s-1.943,4.333-4.333,4.333s-4.333-1.944-4.333-4.333   S76.11,15.167,78.5,15.167z"
        />
        <rect x="77.25" y="7.167" width="2.5" height="3.833" />
        <rect x="77.25" y="28.208" width="2.5" height="3.833" />
        <rect x="87.104" y="18.354" width="3.833" height="2.5" />
        <rect x="66.063" y="18.354" width="3.833" height="2.5" />
        <rect x="84.023" y="25.794" transform="matrix(-0.7072 -0.707 0.707 -0.7072 127.5922 106.9311)"
        width="3.833" height="2.5" />
        <rect x="69.145" y="10.914" transform="matrix(0.707 0.7072 -0.7072 0.707 29.4201 -46.6886)"
        width="3.833" height="2.5" />
        <rect x="69.812" y="25.126" transform="matrix(-0.7071 -0.7071 0.7071 -0.7071 102.1873 96.4133)"
        width="2.5" height="3.834" />
        <rect x="84.691" y="10.248" transform="matrix(0.7071 0.7071 -0.7071 0.7071 33.7731 -57.2065)"
        width="2.5" height="3.832" />
        <path d="M12.366,17.235l2.349-0.856c0,0,0,0,0,0l0.705-0.257c-0.473-1.295,0.196-2.733,1.491-3.206l-0.857-2.349   c-1.608,0.587-2.731,1.92-3.126,3.465c-1.298-0.927-3.016-1.223-4.623-0.637l0.856,2.349   C10.457,15.272,11.894,15.941,12.366,17.235z"
        />
        <path d="M18.095,22.752l1.796,0.89l1.116,0.553c0.613-1.234,2.116-1.74,3.351-1.13l1.109-2.24   c-1.532-0.759-3.271-0.654-4.665,0.125c-0.223-1.58-1.192-3.028-2.727-3.789l-1.11,2.24C18.201,20.014,18.708,21.517,18.095,22.752   z"
        />
    </g>
</svg>