<svg xmlns="http://www.w3.org/2000/svg" version="1.1" x="0px" y="0px"
viewBox="0 0 100 125" style="enable-background:new 0 0 100 100;">
    <style type="text/css">
        .st0{fill:none;stroke:#000000;stroke-width:2;stroke-linecap:round;stroke-linejoin:round;stroke-miterlimit:10;}
    </style>
    <path d="M85.4,83.9H82V35.6c0-0.6-0.4-1-1-1h-1.4c-0.3-3.1-2.9-5.6-6.1-5.6h-1.2v-4.1c0-0.6-0.4-1-1-1s-1,0.4-1,1V29H69  c-3.2,0-5.8,2.5-6.1,5.6H62v-8.3c0-0.4-0.2-0.7-0.5-0.9l-18.5-10c-0.3-0.2-0.7-0.2-1,0c-0.3,0.2-0.5,0.5-0.5,0.9v12.4h-1.2  C40,26,37.8,24,35.1,24h-0.8v-4.1c0-0.6-0.4-1-1-1s-1,0.4-1,1V24h-0.8c-2.7,0-4.9,2.1-5.2,4.7h-1.8c-0.6,0-1,0.4-1,1v17.8l-3.9-1.8  c-0.3-0.1-0.7-0.1-1,0.1c-0.3,0.2-0.5,0.5-0.5,0.8v37.4h-4.4c-0.6,0-1,0.4-1,1s0.4,1,1,1h71.6c0.6,0,1-0.4,1-1S85.9,83.9,85.4,83.9z   M73.2,83.9h-3.9v-5.4c0-1.1,0.9-2,2-2s2,0.9,2,2V83.9z M71.2,74.6c-2.2,0-4,1.8-4,4v5.4H62V45.8h18v38.1h-4.8v-5.4  C75.2,76.3,73.4,74.6,71.2,74.6z M69,31h4.5c2.1,0,3.8,1.6,4.1,3.6H64.9C65.2,32.6,66.9,31,69,31z M80,36.6v7.2H62v-7.2H80z   M60,26.9v57h-4.4v-5.4c0-2.2-1.8-4-4-4c-2.2,0-4,1.8-4,4v5.4h-4.3v-66L60,26.9z M53.6,83.9h-3.9v-5.4c0-1.1,0.9-2,2-2s2,0.9,2,2  V83.9z M31.5,26h3.6c1.6,0,2.9,1.2,3.2,2.7h-9.9C28.6,27.1,29.9,26,31.5,26z M41.4,30.6v9.2h-16v-9.2H41.4z M25.5,41.8h16v42.1H39  V55.2c0-0.4-0.2-0.7-0.6-0.9l-12.9-6V41.8z M20.1,48.1L37,55.9v28h-4.5v-5.4c0-2.2-1.8-4-4-4s-4,1.8-4,4v5.4h-4.5V48.1z M30.5,83.9  h-3.9v-5.4c0-1.1,0.9-2,2-2s2,0.9,2,2V83.9z"
    />
    <path d="M25.5,67.4v-3.7c0-0.6-0.4-1-1-1s-1,0.4-1,1v3.7c0,0.6,0.4,1,1,1S25.5,68,25.5,67.4z"
    />
    <path d="M28.5,68.4c0.6,0,1-0.4,1-1v-3.7c0-0.6-0.4-1-1-1s-1,0.4-1,1v3.7C27.5,68,28,68.4,28.5,68.4z"
    />
    <path d="M32.6,68.4c0.6,0,1-0.4,1-1v-3.7c0-0.6-0.4-1-1-1s-1,0.4-1,1v3.7C31.6,68,32.1,68.4,32.6,68.4z"
    />
    <path d="M47.6,37.3c0.6,0,1-0.4,1-1v-3.7c0-0.6-0.4-1-1-1s-1,0.4-1,1v3.7C46.6,36.8,47,37.3,47.6,37.3z"
    />
    <path d="M51.7,37.3c0.6,0,1-0.4,1-1v-3.7c0-0.6-0.4-1-1-1s-1,0.4-1,1v3.7C50.7,36.8,51.1,37.3,51.7,37.3z"
    />
    <path d="M55.8,37.3c0.6,0,1-0.4,1-1v-3.7c0-0.6-0.4-1-1-1s-1,0.4-1,1v3.7C54.8,36.8,55.2,37.3,55.8,37.3z"
    />
    <path d="M47.6,47.7c0.6,0,1-0.4,1-1V43c0-0.6-0.4-1-1-1s-1,0.4-1,1v3.7C46.6,47.2,47,47.7,47.6,47.7z"
    />
    <path d="M51.7,47.7c0.6,0,1-0.4,1-1V43c0-0.6-0.4-1-1-1s-1,0.4-1,1v3.7C50.7,47.2,51.1,47.7,51.7,47.7z"
    />
    <path d="M55.8,47.7c0.6,0,1-0.4,1-1V43c0-0.6-0.4-1-1-1s-1,0.4-1,1v3.7C54.8,47.2,55.2,47.7,55.8,47.7z"
    />
    <path d="M47.6,58.1c0.6,0,1-0.4,1-1v-3.7c0-0.6-0.4-1-1-1s-1,0.4-1,1v3.7C46.6,57.6,47,58.1,47.6,58.1z"
    />
    <path d="M51.7,58.1c0.6,0,1-0.4,1-1v-3.7c0-0.6-0.4-1-1-1s-1,0.4-1,1v3.7C50.7,57.6,51.1,58.1,51.7,58.1z"
    />
    <path d="M55.8,58.1c0.6,0,1-0.4,1-1v-3.7c0-0.6-0.4-1-1-1s-1,0.4-1,1v3.7C54.8,57.6,55.2,58.1,55.8,58.1z"
    />
    <path d="M47.6,68.4c0.6,0,1-0.4,1-1v-3.7c0-0.6-0.4-1-1-1s-1,0.4-1,1v3.7C46.6,68,47,68.4,47.6,68.4z"
    />
    <path d="M51.7,68.4c0.6,0,1-0.4,1-1v-3.7c0-0.6-0.4-1-1-1s-1,0.4-1,1v3.7C50.7,68,51.1,68.4,51.7,68.4z"
    />
    <path d="M55.8,68.4c0.6,0,1-0.4,1-1v-3.7c0-0.6-0.4-1-1-1s-1,0.4-1,1v3.7C54.8,68,55.2,68.4,55.8,68.4z"
    />
    <path d="M67.1,52.4c-0.6,0-1,0.4-1,1v3.7c0,0.6,0.4,1,1,1s1-0.4,1-1v-3.7C68.1,52.8,67.7,52.4,67.1,52.4z"
    />
    <path d="M71.2,52.4c-0.6,0-1,0.4-1,1v3.7c0,0.6,0.4,1,1,1s1-0.4,1-1v-3.7C72.2,52.8,71.8,52.4,71.2,52.4z"
    />
    <path d="M75.3,58.1c0.6,0,1-0.4,1-1v-3.7c0-0.6-0.4-1-1-1s-1,0.4-1,1v3.7C74.3,57.6,74.8,58.1,75.3,58.1z"
    />
    <path d="M67.1,62.8c-0.6,0-1,0.4-1,1v3.7c0,0.6,0.4,1,1,1s1-0.4,1-1v-3.7C68.1,63.2,67.7,62.8,67.1,62.8z"
    />
    <path d="M71.2,62.8c-0.6,0-1,0.4-1,1v3.7c0,0.6,0.4,1,1,1s1-0.4,1-1v-3.7C72.2,63.2,71.8,62.8,71.2,62.8z"
    />
    <path d="M76.3,67.4v-3.7c0-0.6-0.4-1-1-1s-1,0.4-1,1v3.7c0,0.6,0.4,1,1,1S76.3,68,76.3,67.4z"
    />
</svg>