<svg xmlns="http://www.w3.org/2000/svg" version="1.1" x="0px" y="0px"
viewBox="0 0 100 125" style="enable-background:new 0 0 100 100;">
    <path d="M26,41h-6c-1.7,0-3,1.3-3,3v6c0,1.6,1.3,3,3,3h6c1.7,0,3-1.4,3-3v-6C29,42.3,27.7,41,26,41z M25,49h-4v-4h4V49z M26,56h-6  c-1.7,0-3,1.3-3,3v6c0,1.6,1.3,3,3,3h6c1.7,0,3-1.4,3-3v-6C29,57.3,27.7,56,26,56z M25,64h-4v-4h4V64z M93,91V36c0-1.7-1.3-3-3-3  h-0.1L89,17h3c1.1,0,2-0.9,2-2c0-1.1-0.9-2-2-2h-3V9c0-1.7-1.3-3-3-3h-9.9c-1.7,0-3,1.3-3,3v4h-3c-1.1,0-2,0.9-2,2c0,1.1,0.9,2,2,2  h3l-0.9,16H66c-1.7,0-3,1.3-3,3v21h-5V27c0-0.1,0-0.1,0-0.2c0,0,0-0.1,0-0.2c0-0.1,0-0.1-0.1-0.2c0,0,0-0.1-0.1-0.2  c0-0.1-0.1-0.1-0.1-0.2c0-0.1-0.1-0.1-0.1-0.2c0-0.1-0.1-0.1-0.1-0.2c-0.1,0-0.1-0.1-0.1-0.1c0,0,0,0,0,0l-22-20c0,0-0.1,0-0.1-0.1  c-0.1,0-0.1-0.1-0.2-0.1c-0.1,0-0.1-0.1-0.2-0.1c-0.1,0-0.1-0.1-0.2-0.1c-0.1,0-0.1,0-0.2-0.1c-0.1,0-0.1,0-0.2,0  c-0.1,0-0.1,0-0.2,0c0,0-0.1,0-0.1,0h0c-0.1,0-0.1,0-0.2,0c-0.1,0-0.1,0-0.2,0c-0.1,0-0.1,0-0.2,0.1c-0.1,0-0.1,0-0.2,0.1  c-0.1,0-0.1,0.1-0.2,0.1c-0.1,0-0.1,0.1-0.2,0.1c0,0-0.1,0.1-0.1,0.1c-0.1,0-0.1,0.1-0.2,0.1c0,0,0,0,0,0c0,0-0.1,0.1-0.1,0.1  c0,0.1-0.1,0.1-0.1,0.2c0,0.1-0.1,0.1-0.1,0.2c0,0.1-0.1,0.1-0.1,0.2c0,0.1,0,0.1-0.1,0.2c0,0.1,0,0.1,0,0.2c0,0.1,0,0.2,0,0.2  c0,0,0,0.1,0,0.1v27.5l-8-7.3V16c0-1.1-0.9-2-2-2s-2,0.9-2,2v7.6l-6.7-6.1c0,0-0.1,0-0.1-0.1c-0.1,0-0.1-0.1-0.2-0.1  c-0.1,0-0.1-0.1-0.2-0.1c-0.1,0-0.1-0.1-0.2-0.1c-0.1,0-0.1,0-0.2-0.1c-0.1,0-0.1,0-0.2,0c-0.1,0-0.1,0-0.2,0c0,0-0.1,0-0.1,0h0  c-0.1,0-0.1,0-0.2,0c-0.1,0-0.1,0-0.2,0c-0.1,0-0.1,0-0.2,0.1s-0.1,0-0.2,0.1c-0.1,0-0.1,0.1-0.2,0.1c-0.1,0-0.1,0.1-0.2,0.1  c0,0-0.1,0.1-0.1,0.1c-0.1,0-0.1,0.1-0.2,0.1c0,0,0,0,0,0c0,0-0.1,0.1-0.1,0.1c0,0.1-0.1,0.1-0.1,0.2c0,0.1-0.1,0.1-0.1,0.2  c0,0.1-0.1,0.1-0.1,0.2c0,0.1,0,0.1-0.1,0.2c0,0.1,0,0.1,0,0.2c0,0.1,0,0.2,0,0.2c0,0,0,0.1,0,0.1v72H7c-1.1,0-2,0.9-2,2  c0,1.1,0.9,2,2,2h86c1.1,0,2-0.9,2-2C95,91.9,94.1,91,93,91z M63,91H14V23.5l18,16.4V76c0,1.1,0.9,2,2,2h29V91z M63,74H36V11.5  l18,16.4V59c0,1.1,0.9,2,2,2h7V74z M77.1,10H85v3h-7.9V10z M77.1,17H85l0.9,16h-9.8L77.1,17z M89,91H67V37h22V91z M48,29h-6  c-1.7,0-3,1.3-3,3v6c0,1.6,1.3,3,3,3h6c1.7,0,3-1.4,3-3v-6C51,30.3,49.7,29,48,29z M47,37h-4v-4h4V37z M48,44h-6c-1.7,0-3,1.3-3,3v6  c0,1.6,1.3,3,3,3h6c1.7,0,3-1.4,3-3v-6C51,45.3,49.7,44,48,44z M47,52h-4v-4h4V52z M69,47c0-1.1,0.9-2,2-2h14c1.1,0,2,0.9,2,2  c0,1.1-0.9,2-2,2H71C69.9,49,69,48.1,69,47z M69,55c0-1.1,0.9-2,2-2h14c1.1,0,2,0.9,2,2c0,1.1-0.9,2-2,2H71C69.9,57,69,56.1,69,55z   M69,63c0-1.1,0.9-2,2-2h14c1.1,0,2,0.9,2,2c0,1.1-0.9,2-2,2H71C69.9,65,69,64.1,69,63z M39,86v-3c0-1.1,0.9-2,2-2s2,0.9,2,2v3  c0,1.1-0.9,2-2,2S39,87.1,39,86z M46,86v-3c0-1.1,0.9-2,2-2s2,0.9,2,2v3c0,1.1-0.9,2-2,2S46,87.1,46,86z M53,86v-3c0-1.1,0.9-2,2-2  s2,0.9,2,2v3c0,1.1-0.9,2-2,2S53,87.1,53,86z"
    />
</svg>