<svg xmlns="http://www.w3.org/2000/svg" version="1.1" x="0px" y="0px"
viewBox="0 0 512 640" enable-background="new 0 0 512 512">
    <g>
        <path d="M147.5,348.1H80.8c-7.8,0-14.1,6.3-14.1,14.1v53.3c0,7.8,6.3,14.1,14.1,14.1h66.6c7.8,0,14.1-6.3,14.1-14.1v-53.3   C161.6,354.4,155.3,348.1,147.5,348.1z M133.3,401.4H94.9v-25.1h38.4V401.4z"
        />
        <path d="M216,348.1c-7.8,0-14.1,6.3-14.1,14.1v53.3c0,7.8,6.3,14.1,14.1,14.1h66.6c7.8,0,14.1-6.3,14.1-14.1v-53.3   c0-7.8-6.3-14.1-14.1-14.1H216z M268.5,401.4h-38.4v-25.1h38.4V401.4z"
        />
        <path d="M364.5,429.6h66.6c7.8,0,14.1-6.3,14.1-14.1v-53.3c0-7.8-6.3-14.1-14.1-14.1h-66.6c-7.8,0-14.1,6.3-14.1,14.1v53.3   C350.4,423.3,356.7,429.6,364.5,429.6z M378.7,376.3h38.4v25.1h-38.4V376.3z"
        />
        <path d="M482.3,14.7c-0.8-7.2-6.8-12.7-14-12.7h-57.5c-7.2,0-13.3,5.5-14,12.7l-26.3,253h-69.3v-54.5c0-10.5-11.1-17.3-20.5-12.6   l-114.9,58.2v-45.6c0-10.5-11.1-17.3-20.5-12.6L9.7,269.2C5,271.6,2,276.5,2,281.8v214.1c0,7.8,6.3,14.1,14.1,14.1h479.8   c7.8,0,14.1-6.3,14.1-14.1V281.8C510,280.9,482.3,14.7,482.3,14.7z M423.5,30.2h32.1l24.7,237.4h-81.5L423.5,30.2z M481.8,481.8   H30.2V290.5l107.2-54.3v45.6c0,10.5,11.1,17.3,20.5,12.6l114.9-58.2v45.6c0,7.8,6.3,14.1,14.1,14.1h194.8V481.8z"
        />
    </g>
</svg>