<svg xmlns="http://www.w3.org/2000/svg" version="1.1" x="0px" y="0px"
viewBox="0 0 512 640" enable-background="new 0 0 512 512">
    <g>
        <path d="M209.2,2c-7.8,0-14.1,6.3-14.1,14.1v112.2H80.5c-7.8,0-14.1,6.3-14.1,14.1v353.5c0,7.8,6.3,14.1,14.1,14.1l351,0   c7.8,0,14.1-6.3,14.1-14.1V238.4C445.6,108,339.6,2,209.2,2z M195.1,481.8H94.6V156.5h100.5V481.8z M223.3,30.7   c39.9,2.7,76.7,16.7,107.3,38.7H223.3V30.7z M223.3,97.7h139.1c11.4,12.4,21.4,26.3,29.5,41.2H223.3V97.7z M223.3,167.1h181.4   c4.8,13.2,8.4,27,10.5,41.2H223.3V167.1z M340.2,481.8h-39.6v-60.4h39.6V481.8z M417.4,481.8h-49v-74.5c0-7.8-6.3-14.1-14.1-14.1   h-67.8c-7.8,0-14.1,6.3-14.1,14.1v74.5h-49V375.3h194.1V481.8z M417.4,347.1H223.3v-41.2h194.1V347.1z M223.3,277.7v-41.1h194   l0,41.1H223.3z"
        />
        <path d="M133.8,212.9h22.1c7.8,0,14.1-6.3,14.1-14.1c0-7.8-6.3-14.1-14.1-14.1h-22.1c-7.8,0-14.1,6.3-14.1,14.1   C119.7,206.6,126,212.9,133.8,212.9z"
        />
        <path d="M133.8,273.1h22.1c7.8,0,14.1-6.3,14.1-14.1c0-7.8-6.3-14.1-14.1-14.1h-22.1c-7.8,0-14.1,6.3-14.1,14.1   C119.7,266.8,126,273.1,133.8,273.1z"
        />
        <path d="M133.8,333.3h22.1c7.8,0,14.1-6.3,14.1-14.1s-6.3-14.1-14.1-14.1h-22.1c-7.8,0-14.1,6.3-14.1,14.1S126,333.3,133.8,333.3z"
        />
        <path d="M133.8,393.5h22.1c7.8,0,14.1-6.3,14.1-14.1s-6.3-14.1-14.1-14.1h-22.1c-7.8,0-14.1,6.3-14.1,14.1S126,393.5,133.8,393.5z"
        />
        <path d="M133.8,453.6h22.1c7.8,0,14.1-6.3,14.1-14.1s-6.3-14.1-14.1-14.1h-22.1c-7.8,0-14.1,6.3-14.1,14.1S126,453.6,133.8,453.6z"
        />
    </g>
</svg>