<svg xmlns="http://www.w3.org/2000/svg" version="1.1" x="0px" y="0px"
viewBox="0 0 100 125" enable-background="new 0 0 100 100">
    <g>
        <rect x="29.823" y="36.5" width="2.5" height="2.636" />
        <path d="M32.323,31.643c0-1.847,1.541-3.349,3.436-3.349v-2.5c-3.273,0-5.936,2.624-5.936,5.849v2.732h2.5V31.643z"
        />
        <path d="M41.77,16.202v-2.5c-3.273,0-5.936,2.624-5.936,5.849h2.5C38.334,17.704,39.875,16.202,41.77,16.202z"
        />
        <path d="M63.084,19.551h2.5c0-3.225-2.663-5.849-5.936-5.849v2.5C61.543,16.202,63.084,17.704,63.084,19.551z"
        />
        <rect x="21.538" y="51.5" width="2.5" height="2.998" />
        <path d="M24.038,42.689c0-1.847,1.541-3.349,3.436-3.349v-2.5c-3.273,0-5.936,2.624-5.936,5.849V49h2.5V42.689z"
        />
        <rect x="76.973" y="51.875" width="2.5" height="2.623" />
        <path d="M79.473,42.689c0-3.225-2.663-5.849-5.936-5.849v2.5c1.895,0,3.436,1.502,3.436,3.349v6.562h2.5V42.689z"
        />
        <rect x="69.25" y="36.625" width="2.5" height="2.511" />
        <path d="M71.75,31.643c0-3.225-2.663-5.849-5.936-5.849v2.5c1.895,0,3.436,1.502,3.436,3.349V34.5h2.5V31.643z"
        />
        <path d="M80.178,87.867c-1.917,0-3.271,0.189-4.391,0.45v-6.45H60.898v-4.599c9.019-2.86,16.662-9.396,20.745-18.245l0.818-1.773   H61.239c6.261-2.623,11.492-7.504,14.433-13.876L76.49,41.6H58.366c2.907-1.616,5.307-4.126,6.75-7.256l0.818-1.773h-2.728V30.5   h-2.5v2.071h-5.89v-4.82h-0.981v-2.153c0-1.847,1.541-3.349,3.436-3.349s3.436,1.502,3.436,3.349v2.82h2.5v-2.82   c0-3.225-2.663-5.849-5.936-5.849s-5.936,2.624-5.936,5.849v2.153h-1.289v-2.153c0-3.225-2.663-5.849-5.936-5.849   s-5.936,2.624-5.936,5.849V28.5h2.5v-2.903c0-1.847,1.541-3.349,3.436-3.349s3.436,1.502,3.436,3.349v2.153h-1.068v4.82h-5.803   V30.5h-2.5v2.071h-2.814l0.818,1.773c1.444,3.13,3.842,5.641,6.75,7.256H24.806l0.818,1.773c2.94,6.373,8.171,11.253,14.433,13.876   H18.835l0.818,1.773c4.083,8.849,11.727,15.385,20.746,18.246v4.598H23.881v7.361c-1.187,0.355-2.524,0.639-4.77,0.639   c-2.854,0-4.244-0.455-5.717-0.938c-1.594-0.522-3.243-1.063-6.496-1.063v2.5c2.854,0,4.245,0.456,5.717,0.938   c1.594,0.522,3.243,1.063,6.495,1.063c3.251,0,4.899-0.54,6.493-1.063c1.472-0.482,2.862-0.938,5.715-0.938   c2.854,0,4.244,0.456,5.717,0.938c1.594,0.522,3.243,1.063,6.495,1.063c3.253,0,4.902-0.54,6.497-1.063   c1.473-0.481,2.864-0.938,5.719-0.938c2.854,0,4.244,0.455,5.717,0.938c1.594,0.522,3.242,1.063,6.495,1.063   c3.255,0,4.904-0.54,6.499-1.063c1.474-0.481,2.865-0.938,5.721-0.938s4.248,0.456,5.722,0.938   c1.595,0.522,3.244,1.063,6.499,1.063v-2.5c-2.855,0-4.248-0.456-5.722-0.938C85.082,88.407,83.433,87.867,80.178,87.867z    M48.979,30.25h3.338v2.32h-3.338V30.25z M39.438,35.07h22.42c-2.462,3.723-6.673,6.04-11.21,6.04S41.9,38.793,39.438,35.07z    M28.8,44.1h43.696c-4.406,7.836-12.777,12.8-21.848,12.8S33.206,51.937,28.8,44.1z M22.81,59.75h55.676   c-5.488,10.16-16.208,16.624-27.838,16.624S28.298,69.91,22.81,59.75z M42.898,77.962c2.512,0.591,5.107,0.912,7.75,0.912   c2.643,0,5.239-0.322,7.75-0.913v3.906h-15.5V77.962z M62.24,88.93c-1.594-0.522-3.242-1.063-6.494-1.063   c-3.253,0-4.902,0.54-6.497,1.063c-1.473,0.481-2.864,0.938-5.719,0.938c-2.853,0-4.244-0.455-5.716-0.938   c-1.594-0.522-3.243-1.063-6.495-1.063c-2.241,0-3.713,0.258-4.938,0.589v-4.089h46.906v4.688   c-1.341,0.433-2.728,0.812-5.329,0.812C65.104,89.867,63.713,89.411,62.24,88.93z"
        />
        <polygon points="86.75,41.87 86.75,24.748 75.787,24.748 75.787,7.748 21.538,7.748 21.538,21.581 10,21.581 10,24.081    24.038,24.081 24.038,10.248 73.287,10.248 73.287,27.248 84.25,27.248 84.25,44.37 92.398,44.37 92.398,41.87  "
        />
        <rect x="49.398" y="13.665" width="2.5" height="4.202" />
        <rect x="33.416" y="62.915" width="28.541" height="2.5" />
        <rect x="65.167" y="62.915" width="4" height="2.5" />
        <rect x="37.315" y="46.081" width="19.945" height="2.5" />
        <rect x="59.184" y="46.081" width="2.808" height="2.5" />
    </g>
</svg>