<svg xmlns="http://www.w3.org/2000/svg" version="1.1" x="0px" y="0px"
viewBox="0 0 100 125" enable-background="new 0 0 100 100">
    <g>
        <rect x="7.667" y="7.417" width="85.835" height="2.5" />
        <path d="M7.667,15.362h4.261V86.25H7.667v2.5h85.835v-2.5H89.89V15.362h3.612v-2.5H7.667V15.362z M14.427,15.362h1.39V86.25h-1.39   V15.362z M69.82,79.18v7.07H24.475v-7.07H69.82z M65.144,44.146H68.2v15.11h-3.057V44.146z M31.651,51.926h30.993V76.68H31.651   V51.926z M62.644,49.426H31.651V28.345h30.993V49.426z M65.144,76.68V61.757H70.7v-5.005c2.952-0.584,5.187-3.19,5.187-6.312   V37.491h3.371v-9.585H76.09c0.523-1.56,1.999-2.687,3.732-2.687v-2.5c-3.438,0-6.247,2.713-6.419,6.11h-0.017V50.44   c0,1.731-1.131,3.188-2.687,3.713V41.646h-5.557V25.845H29.151V76.68h-7.176v9.57h-3.658V15.362h65.182V86.25H72.32v-9.57H65.144z    M76.758,30.406v4.585h-0.871v-4.585H76.758z M87.39,86.25h-1.391V15.362h1.391V86.25z"
        />
        <polygon points="37.468,34.585 58.957,34.585 58.957,32.085 34.968,32.085 34.968,45.934 37.468,45.934  "
        />
        <polygon points="37.468,57.623 41.856,57.623 41.856,55.123 34.968,55.123 34.968,61.782 37.468,61.782  "
        />
        <polygon points="46.4,57.623 50.789,57.623 50.789,55.123 43.9,55.123 43.9,61.782 46.4,61.782  "
        />
        <polygon points="53.389,61.782 55.889,61.782 55.889,57.623 60.278,57.623 60.278,55.123 53.389,55.123  "
        />
        <rect x="34.686" y="66.214" width="25.294" height="2.5" />
        <rect x="34.686" y="70.998" width="25.294" height="2.5" />
        <path d="M54.639,36.555c-2.782,0-5.045,2.263-5.045,5.045s2.263,5.046,5.045,5.046s5.046-2.264,5.046-5.046   S57.421,36.555,54.639,36.555z M54.639,44.146c-1.403,0-2.545-1.142-2.545-2.546c0-1.403,1.142-2.545,2.545-2.545   c1.404,0,2.546,1.142,2.546,2.545C57.185,43.004,56.043,44.146,54.639,44.146z"
        />
    </g>
</svg>