<svg xmlns="http://www.w3.org/2000/svg" version="1.1" x="0px" y="0px"
viewBox="0 0 512 640" enable-background="new 0 0 512 512">
    <g>
        <path d="M123.3,162h20.9v134.6c0,7.8,6.3,14.1,14.1,14.1h196.3c7.8,0,14.1-6.3,14.1-14.1V162h20.9c12.6,0,18.9-15.3,9.9-24.1   l-58.7-58.1V42.9c0-7.8-6.3-14.1-14.1-14.1s-14.1,6.3-14.1,14.1v8.9L266.3,6.1c-5.5-5.4-14.4-5.4-19.9,0L113.4,137.8   C104.4,146.7,110.7,162,123.3,162z M340.4,282.4h-69.9v-52c0-7.8-6.3-14.1-14.1-14.1c-7.8,0-14.1,6.3-14.1,14.1v52h-69.9V162h168   V282.4z M256.4,36l98.8,97.8H157.6L256.4,36z"
        />
        <path d="M497.8,348.9c-16.1-18.3-44-21.2-63.6-6.6l-77.4,58c-5.3,4-12,6.2-18.6,6.2h-40.8c2.4-5.7,3.8-11.9,3.8-18.5   c0-25.7-20.9-46.7-46.7-46.7H16.5c-7.8,0-14.1,6.3-14.1,14.1v140.4c0,7.8,6.3,14.1,14.1,14.1h330.2c19.3,0,38.2-6.7,53.2-18.8   l92.2-74.6C513.2,399.4,515.4,368.7,497.8,348.9z M95.1,481.8H30.6V369.6h64.4V481.8z M474.4,394.6l-92.2,74.6   c-10,8.1-22.6,12.6-35.5,12.6H123.3V369.6h131.3c10.2,0,18.5,8.3,18.5,18.5c0,10.2-8.3,18.5-18.5,18.5h-74.8   c-7.8,0-14.1,6.3-14.1,14.1c0,7.8,6.3,14.1,14.1,14.1h158.5c12.7,0,25.4-4.2,35.6-11.9l77.4-58   C472.2,350.8,492.3,379.1,474.4,394.6z"
        />
    </g>
</svg>