<svg xmlns="http://www.w3.org/2000/svg" version="1.1" x="0px" y="0px"
viewBox="0 0 100 125" style="enable-background:new 0 0 100 100;">
    <path d="M93,55c1.1,0,2-0.9,2-2v-8c0-1.1-0.9-2-2-2H79v-4h3c1.1,0,2-0.9,2-2v-8c0-1.1-0.9-2-2-2H63V7c0-1.1-0.9-2-2-2H39  c-1.1,0-2,0.9-2,2v20H18c-1.1,0-2,0.9-2,2v8c0,1.1,0.9,2,2,2h3v4H7c-1.1,0-2,0.9-2,2v8c0,1.1,0.9,2,2,2h1v36H7c-1.1,0-2,0.9-2,2  c0,1.1,0.9,2,2,2h86c1.1,0,2-0.9,2-2c0-1.1-0.9-2-2-2h-1V55H93z M21,62h-3c-1.1,0-2,0.9-2,2c0,1.1,0.9,2,2,2h3v5h-3  c-1.1,0-2,0.9-2,2c0,1.1,0.9,2,2,2h3v5h-3c-1.1,0-2,0.9-2,2c0,1.1,0.9,2,2,2h3v7h-9V55h9V62z M21,51H9v-4h12V51z M41,9h18v18H41V9z   M20,35v-4h60v4H20z M48,91h-8V67h8V91z M60,91h-8V67h8V91z M75,91H64V65c0-1.1-0.9-2-2-2H38c-1.1,0-2,0.9-2,2v26H25V39h50V91z   M88,91h-9v-7h3c1.1,0,2-0.9,2-2c0-1.1-0.9-2-2-2h-3v-5h3c1.1,0,2-0.9,2-2c0-1.1-0.9-2-2-2h-3v-5h3c1.1,0,2-0.9,2-2c0-1.1-0.9-2-2-2  h-3v-7h9V91z M91,51H79v-4h12V51z M31,59h12c1.1,0,2-0.9,2-2V45c0-1.1-0.9-2-2-2H31c-1.1,0-2,0.9-2,2v12C29,58.1,29.9,59,31,59z   M33,47h8v8h-8V47z M57,59h12c1.1,0,2-0.9,2-2V45c0-1.1-0.9-2-2-2H57c-1.1,0-2,0.9-2,2v12C55,58.1,55.9,59,57,59z M59,47h8v8h-8V47z   M53.2,79.8C53,79.5,53,79.3,53,79c0-0.5,0.2-1,0.6-1.4c0.5-0.5,1.1-0.7,1.8-0.5c0.1,0,0.2,0.1,0.4,0.1c0.1,0.1,0.2,0.1,0.3,0.2  s0.2,0.2,0.3,0.2C56.8,78,57,78.5,57,79c0,0.3,0,0.5-0.2,0.8c-0.1,0.2-0.2,0.5-0.4,0.6C56,80.8,55.5,81,55,81c-0.3,0-0.5,0-0.8-0.2  c-0.2-0.1-0.5-0.2-0.6-0.4C53.4,80.2,53.2,80,53.2,79.8z M43.2,79.8C43,79.5,43,79.3,43,79c0-0.5,0.2-1,0.6-1.4  c0.1-0.1,0.2-0.2,0.3-0.2s0.2-0.1,0.3-0.2c0.1,0,0.2-0.1,0.4-0.1c0.3,0,0.5,0,0.8,0c0.1,0,0.2,0.1,0.4,0.1c0.1,0.1,0.2,0.1,0.3,0.2  s0.2,0.2,0.3,0.2C46.8,78,47,78.5,47,79c0,0.3,0,0.5-0.2,0.8c-0.1,0.2-0.2,0.5-0.4,0.6c-0.1,0.1-0.2,0.2-0.3,0.2  c-0.1,0.1-0.2,0.1-0.3,0.2s-0.2,0.1-0.4,0.1c-0.1,0-0.3,0-0.4,0c-0.3,0-0.5,0-0.8-0.2c-0.2-0.1-0.5-0.2-0.6-0.4  C43.4,80.2,43.2,80,43.2,79.8z M56,18c0,1.1-0.9,2-2,2h-2v2c0,1.1-0.9,2-2,2s-2-0.9-2-2v-2h-2c-1.1,0-2-0.9-2-2c0-1.1,0.9-2,2-2h2  v-2c0-1.1,0.9-2,2-2s2,0.9,2,2v2h2C55.1,16,56,16.9,56,18z"
    />
</svg>