<svg xmlns="http://www.w3.org/2000/svg" version="1.1" x="0px" y="0px"
viewBox="0 0 512 640" enable-background="new 0 0 512 512">
    <g>
        <path d="M495.9,213.2H270.1V117h17.5c9.8,0,16.6-9.7,13.3-18.9l-31.6-86.8c-2-5.6-7.3-9.3-13.3-9.3H47.7c-5.9,0-11.2,3.7-13.3,9.3   L2.9,98.1c-3.3,9.2,3.5,18.9,13.3,18.9h17.5v378.8c0,7.8,6.3,14.1,14.1,14.1h448.2c7.8,0,14.1-6.3,14.1-14.1V227.3   C510,219.5,503.7,213.2,495.9,213.2z M57.6,30.2h188.5l21.3,58.6H36.3L57.6,30.2z M176.8,481.8h-49.9V373.2h49.9V481.8z M205,481.8   V359.1c0-7.8-6.3-14.1-14.1-14.1h-78.1c-7.8,0-14.1,6.3-14.1,14.1v122.7H61.8V117h180.1v364.7H205z M481.8,481.8H270.1V241.4h211.7   V481.8z"
        />
        <path d="M151.9,159.3c-35.8,0-64.9,29.1-64.9,64.9c0,35.8,29.1,64.9,64.9,64.9c35.8,0,64.9-29.1,64.9-64.9   C216.8,188.4,187.7,159.3,151.9,159.3z M151.9,261c-20.2,0-36.7-16.5-36.7-36.7c0-20.2,16.5-36.7,36.7-36.7   c20.2,0,36.7,16.5,36.7,36.7C188.6,244.5,172.1,261,151.9,261z"
        />
        <path d="M309.3,455.7h133.3c7.8,0,14.1-6.3,14.1-14.1V281.6c0-7.8-6.3-14.1-14.1-14.1H309.3c-7.8,0-14.1,6.3-14.1,14.1v159.9   C295.2,449.3,301.5,455.7,309.3,455.7z M390.1,295.7h38.4v51.7h-38.4V295.7z M390.1,375.7h38.4v51.7h-38.4V375.7z M323.4,295.7   h38.4v51.7h-38.4V295.7z M323.4,375.7h38.4v51.7h-38.4V375.7z"
        />
    </g>
</svg>