<svg xmlns="http://www.w3.org/2000/svg" version="1.1" x="0px" y="0px"
viewBox="0 0 100 125" style="enable-background:new 0 0 100 100;">
    <path d="M93,91h-1.2V38c1.2-0.9,2-2.3,2-4c0-2.8-2.2-5-5-5h-4c-2.8,0-5,2.2-5,5c0,0.3,0,0.7,0.1,1H69.2v-5.3  c0.9-0.3,1.7-0.9,2.3-1.6c1-1.3,1.4-2.9,1.1-4.5C70.5,12.8,61,5,50,5c-11,0-20.5,7.8-22.6,18.5c-0.3,1.6,0.1,3.2,1.1,4.5  c0.6,0.7,1.4,1.3,2.3,1.6V35H19.9c0.1-0.3,0.1-0.7,0.1-1c0-2.8-2.2-5-5-5h-4c-2.8,0-5,2.2-5,5c0,1.6,0.8,3.1,2,4v53H7  c-1.1,0-2,0.9-2,2s0.9,2,2,2h1h10h21h22h20.8h10H93c1.1,0,2-0.9,2-2S94.1,91,93,91z M84.8,33h4c0.5,0,1,0.5,1,1s-0.5,1-1,1h-4  c-0.5,0-1-0.5-1-1S84.2,33,84.8,33z M61,67H39c-1.7,0-3,1.3-3,3v21h-7V70.2c2.3-0.6,4.2-2.6,4.7-5.1c1.6-7.7,8.4-13.3,16.3-13.3  s14.8,5.6,16.3,13.3c0.5,2.6,2.4,4.5,4.7,5.1V91h-7V70C64,68.3,62.7,67,61,67z M75,65.6c-0.5,0.6-1.2,0.9-1.9,0.9h-0.3  c-1.2,0-2.2-0.9-2.5-2.2c-2-9.6-10.5-16.5-20.2-16.5c-9.8,0-18.3,6.9-20.2,16.5c-0.3,1.3-1.3,2.2-2.5,2.2H27c-0.8,0-1.5-0.3-1.9-0.9  c-0.5-0.6-0.7-1.4-0.5-2.1c2.4-12.1,13.1-21,25.5-21c12.4,0,23.1,8.8,25.5,21C75.7,64.2,75.5,65,75,65.6z M50,38.5  c-5.5,0-10.7,1.5-15.2,4.1v-13c1.7-0.6,3-2.1,3.4-4.1C39.4,20,44.3,16,50,16c5.7,0,10.6,4,11.8,9.6c0.4,1.9,1.7,3.4,3.4,4.1v13  C60.7,40,55.5,38.5,50,38.5z M31.4,24.3C33.1,15.4,40.9,9,50,9s16.9,6.4,18.6,15.3c0.1,0.6-0.1,1-0.3,1.2c-0.2,0.2-0.5,0.5-1.1,0.5  h-0.2c-0.7,0-1.2-0.5-1.4-1.2C64.2,17.4,57.6,12,50,12c-7.6,0-14.2,5.4-15.7,12.8c-0.1,0.7-0.7,1.2-1.4,1.2h-0.2  c-0.6,0-0.9-0.3-1.1-0.5C31.5,25.3,31.2,24.9,31.4,24.3z M11,33h4c0.5,0,1,0.5,1,1s-0.5,1-1,1h-4c-0.5,0-1-0.5-1-1S10.5,33,11,33z   M12,91V39h2v52H12z M18,39h12.8v6.4c-5.2,4.3-8.9,10.3-10.3,17.2c-0.4,1.9,0.1,3.9,1.4,5.4c0.8,1,1.9,1.7,3,2.1V91h-7V39z M40,71h8  v20h-8V71z M52,91V71h8v20H52z M75,91V70.2c1.2-0.4,2.2-1.1,3-2.1c1.3-1.5,1.8-3.5,1.4-5.4c-1.4-7-5.1-13-10.3-17.2V39h12.6v52H75z   M85.8,91V39h2v52H85.8z M50,20c-3.9,0-7,3.1-7,7s3.1,7,7,7c3.9,0,7-3.1,7-7S53.9,20,50,20z M50,30c-1.7,0-3-1.3-3-3s1.3-3,3-3  s3,1.3,3,3S51.7,30,50,30z"
    />
</svg>