<svg xmlns="http://www.w3.org/2000/svg" version="1.1" x="0px" y="0px"
viewBox="0 0 100 125" enable-background="new 0 0 100 100">
    <path d="M57.803,59.938c0.772-0.113,1.332-0.831,1.232-1.648s-0.832-1.332-1.648-1.232c-0.772,0.113-1.332,0.831-1.233,1.648  C56.254,59.523,56.985,60.038,57.803,59.938z M76.964,51.082H59.905c1.272-5.803,4.932-10.31,8.57-10.31  C72.669,40.772,75.758,45.987,76.964,51.082z M55.547,51.082h-5.424l-1.37,28.324c-0.219,4.657,3.397,8.438,8.054,8.438h21.915  c4.656,0,8.272-3.78,8.053-8.438l-1.369-28.324H79.27c-1.479-7.232-5.589-12.546-10.848-12.546c-5.26,0-9.369,4.985-10.958,11.943  l0.359,4.297l3.971,2.519l1.979,13.439l-8.644,1.249l-1.933-13.425l2.925-3.356L55.547,51.082z"
    />
    <g>
        <clipPath id="a">
            <use xlink:href="#b" overflow="visible" />
        </clipPath>
        <g clip-path="url(#a)">
            <g>
                <path fill-rule="evenodd" clip-rule="evenodd" d="M93.297,35.625c-0.177,0-0.556,0-0.556,0l-9.089-0.003l-0.126-4.045     c0-1.984-1.608-3.592-3.592-3.592h-8.223v7.634H71.71v33.51h20.946l2.499-30.554c0,0,0.042-0.185,0.064-0.474     C95.33,36.759,94.646,35.625,93.297,35.625z M73.357,39.666h9.698l-0.539,7.422h-9.159V39.666z M73.357,48.767h9.118l-0.569,8.2     h-8.549V48.767z M73.284,59.497h3.029l-3.029,3.027V59.497z M90.861,67.288h-15.47l4.01-4.01c0.37-0.37,0.37-0.97,0-1.339     c-0.369-0.37-0.969-0.37-1.339,0l-4.778,4.777v-1.645c0.126-0.046,0.245-0.113,0.347-0.215l5.157-5.156     c0.061-0.061,0.095-0.134,0.136-0.204h12.535L90.861,67.288z M91.583,56.861h-8.104l0.591-8.219h8.226L91.583,56.861z      M92.506,46.904h-8.271l0.466-7.292h8.479L92.506,46.904z M28.292,27.983h-8.257c-1.983,0-3.592,1.608-3.592,3.592l-0.125,4.045     l-9.052,0.003c0,0-0.378,0-0.555,0c-1.349,0-2.033,1.135-1.924,2.475c0.024,0.289,0.065,0.474,0.065,0.474l2.499,30.554h20.946     v-33.51h-0.005V27.983z M26.53,39.666v7.422H20.1l3.884-3.884c0.37-0.37,0.37-0.969,0-1.339c-0.37-0.371-0.97-0.371-1.339,0     l-5.157,5.156c-0.02,0.02-0.027,0.046-0.044,0.066h-0.073L17.3,46.104l3.092-3.139c0.37-0.371,0.37-0.97,0-1.34     c-0.37-0.37-0.97-0.37-1.339,0l-1.935,1.964l-0.285-3.923H26.53z M26.53,48.767v8.2h-8.548l-0.569-8.2H26.53z M6.708,39.612     h8.479l0.466,7.292H7.382L6.708,39.612z M7.593,48.643h8.226l0.591,8.219H8.304L7.593,48.643z M26.604,67.288h-3.712l3.712-3.712     V67.288z M26.604,61.131c-0.172,0.037-0.338,0.104-0.472,0.238l-5.157,5.157c-0.209,0.209-0.287,0.489-0.259,0.762H9.027     l-0.598-7.791h15.384l-3.451,3.45c-0.37,0.371-0.37,0.971,0,1.341c0.37,0.369,0.969,0.369,1.339,0l4.791-4.791h0.112V61.131z      M30.22,75.886h39.946l0.007-15.882H30.235L30.22,75.886z M60.254,62.239h7.652v11.687h-7.652V62.239z M32.466,70.614     c0.135-0.045,0.264-0.112,0.372-0.22l5.157-5.157c0.37-0.369,0.37-0.969,0-1.339c-0.37-0.37-0.97-0.37-1.34,0l-4.188,4.189     v-5.849h25.915v11.687H33.497l4.498-4.497c0.37-0.37,0.37-0.97,0-1.339c-0.37-0.37-0.97-0.37-1.34,0l-4.188,4.188V70.614z      M69.857,57.355l-0.044-38.886h0.008l-0.023-2.012c0-1.984-1.608-3.592-3.593-3.592H33.834c-1.985,0-3.593,1.608-3.593,3.592     l-0.023,2.012h0.016l-0.061,38.886H69.857z M57.1,37.03l4.964-4.962c0.37-0.37,0.37-0.97,0-1.34s-0.97-0.37-1.34,0L57.1,34.353     v-1.514l4.964-4.963c0.37-0.37,0.37-0.97,0-1.339c-0.37-0.37-0.97-0.37-1.34,0L57.1,30.162v-7.719h10.501v14.96H57.1V37.03z      M57.1,39.631h10.501v15.607H57.1V39.631z M44.82,22.443h10.501v9.759c-0.019,0.108-0.019,0.215,0,0.323v3.868     c-0.019,0.108-0.019,0.215,0,0.323v0.88H44.82V22.443z M44.82,53.263l4.91-4.909c0.37-0.37,0.37-0.97,0-1.34s-0.97-0.37-1.339,0     l-3.571,3.571v-1.337c0.17-0.038,0.335-0.105,0.468-0.237l3.125-3.172c0.37-0.37,0.37-0.97,0-1.34c-0.37-0.37-0.969-0.37-1.339,0     l-2.253,2.286v-7.349h10.501v15.802H44.82V53.263z M32.361,22.443h10.5v0.252c-0.29-0.046-0.595,0.025-0.817,0.249l-5.157,5.158     c-0.37,0.37-0.37,0.969,0,1.339c0.37,0.37,0.97,0.37,1.34,0l4.635-4.635v1.638c-0.123,0.046-0.239,0.114-0.338,0.212     l-5.157,5.157c-0.37,0.371-0.37,0.97,0,1.34c0.369,0.37,0.97,0.37,1.339,0l4.156-4.156v8.447h-10.5V22.443z M32.361,39.314h10.5     v15.924h-10.5V39.314z"
                />
            </g>
        </g>
    </g>
</svg>