<svg xmlns="http://www.w3.org/2000/svg" version="1.1" x="0px" y="0px"
viewBox="0 0 100 125" style="enable-background:new 0 0 100 100;">
    <path d="M93,91h-1V81c0-2.2-1.8-4-4-4V47h5c0.1,0,0.3,0,0.4,0c0,0,0,0,0.1,0c0.1,0,0.2-0.1,0.3-0.1c0,0,0.1,0,0.1-0.1  c0.1,0,0.2-0.1,0.2-0.1c0,0,0.1-0.1,0.1-0.1c0.1,0,0.1-0.1,0.2-0.2c0,0,0,0,0,0c0,0,0-0.1,0.1-0.1c0-0.1,0.1-0.1,0.1-0.2  c0-0.1,0.1-0.1,0.1-0.2c0-0.1,0.1-0.1,0.1-0.2c0-0.1,0-0.1,0.1-0.2c0-0.1,0-0.1,0-0.2c0-0.1,0-0.1,0-0.2c0,0,0-0.1,0-0.1  c0,0,0,0,0-0.1c0-0.1,0-0.1,0-0.2c0-0.1,0-0.1,0-0.2c0-0.1,0-0.1,0-0.2c0-0.1,0-0.1-0.1-0.2c0-0.1-0.1-0.1-0.1-0.2  c0-0.1-0.1-0.1-0.1-0.2s-0.1-0.1-0.1-0.1c0-0.1-0.1-0.1-0.1-0.2c0,0,0,0,0,0l-18-16c0,0-0.1-0.1-0.1-0.1c-0.1,0-0.1-0.1-0.2-0.1  c-0.1,0-0.1-0.1-0.2-0.1c-0.1,0-0.1-0.1-0.2-0.1c-0.1,0-0.1-0.1-0.2-0.1c-0.1,0-0.1,0-0.2,0c-0.1,0-0.2,0-0.2,0c0,0-0.1,0-0.1,0h-5  v-3c0-1.7-1.3-3-3-3h-8v-4h2.5c0.1,0,0.2,0,0.3,0c0.1,0,0.1,0,0.2,0c0.6,0,1.3-0.3,1.7-0.9c0.6-0.9,0.4-2.2-0.5-2.8l-12-8  c0,0,0,0,0,0c-0.1-0.1-0.2-0.1-0.3-0.2c0,0-0.1,0-0.1,0c-0.1,0-0.2-0.1-0.2-0.1c0,0-0.1,0-0.1,0c-0.1,0-0.2,0-0.2,0c0,0-0.1,0-0.1,0  c-0.1,0-0.2,0-0.3,0c0,0,0,0,0,0c-0.1,0-0.2,0.1-0.4,0.1c-0.1,0-0.2,0.1-0.3,0.2v0l-12,8c-0.9,0.6-1.2,1.9-0.5,2.8  c0.4,0.6,1,0.9,1.7,0.9c0.1,0,0.1,0,0.2,0c0.1,0,0.2,0,0.3,0H41v4h-8c-1.7,0-3,1.3-3,3v3h-5c0,0-0.1,0-0.1,0c-0.1,0-0.1,0-0.2,0  s-0.1,0-0.2,0c-0.1,0-0.1,0-0.2,0.1c-0.1,0-0.1,0-0.2,0.1c-0.1,0-0.1,0-0.2,0.1c-0.1,0-0.1,0.1-0.2,0.1c0,0-0.1,0-0.1,0.1l-18,16  c0,0,0,0,0,0c0,0-0.1,0.1-0.1,0.2c0,0-0.1,0.1-0.1,0.1c0,0.1-0.1,0.1-0.1,0.2c0,0.1-0.1,0.1-0.1,0.2c0,0.1,0,0.1-0.1,0.2  c0,0.1,0,0.1,0,0.2c0,0.1,0,0.1,0,0.2c0,0.1,0,0.1,0,0.2c0,0,0,0,0,0.1c0,0,0,0.1,0,0.1c0,0.1,0,0.1,0,0.2c0,0.1,0,0.1,0,0.2  c0,0.1,0,0.1,0.1,0.2c0,0.1,0,0.1,0.1,0.2C5.2,46,5.3,46,5.3,46c0,0.1,0.1,0.1,0.1,0.2c0,0,0,0.1,0.1,0.1c0,0,0,0,0,0  c0.1,0.1,0.1,0.1,0.2,0.2c0,0,0.1,0.1,0.1,0.1c0.1,0,0.2,0.1,0.2,0.1c0,0,0.1,0.1,0.1,0.1c0.1,0,0.2,0.1,0.3,0.1c0,0,0,0,0.1,0  c0.1,0,0.3,0,0.4,0h5v30c-2.2,0-4,1.8-4,4v10H7c-1.1,0-2,0.9-2,2c0,1.1,0.9,2,2,2h86c1.1,0,2-0.9,2-2C95,91.9,94.1,91,93,91z   M50,9.4l5.4,3.6H44.6L50,9.4z M55,17v4H45v-4H55z M34,25h32v2H34V25z M25.8,31h48.5l13.5,12H59.9l-9-4.3c-0.5-0.2-1.2-0.2-1.7,0  l-9,4.3H12.3L25.8,31z M50,57c-5.5,0-10,4.5-10,10v16h-3V56c0,0,0-0.1,0-0.1l13-6.2l13,6.2c0,0,0,0.1,0,0.1v27h-3V67  C60,61.5,55.5,57,50,57z M56,67v16H44V67c0-3.3,2.7-6,6-6S56,63.7,56,67z M50.9,45.7c-0.3-0.1-0.6-0.2-0.9-0.2s-0.6,0.1-0.9,0.2  L31,54.3v-2.6l19-9l19,9v2.6L50.9,45.7z M21,56h6v1.5c0,0.7,0.3,1.3,0.9,1.7s1.3,0.4,1.9,0.1l3.1-1.5V77H16V47h15.7l-3.6,1.7  c-0.7,0.3-1.1,1-1.1,1.8V52h-6c-1.1,0-2,0.9-2,2C19,55.1,19.9,56,21,56z M67,57.8l3.1,1.5c0.3,0.1,0.6,0.2,0.9,0.2  c0.4,0,0.7-0.1,1.1-0.3c0.6-0.4,0.9-1,0.9-1.7V56h6c1.1,0,2-0.9,2-2c0-1.1-0.9-2-2-2h-6v-1.5c0-0.8-0.4-1.5-1.1-1.8L68.3,47H84v30  H67V57.8z M27,86v5H12V81h21v2h-3C28.3,83,27,84.3,27,86z M69,91H31v-4h38V91z M88,91H73v-5c0-1.7-1.3-3-3-3h-3v-2h21V91z M50,72  c0-0.1,0-0.3,0-0.4c0-0.1,0.1-0.3,0.1-0.4c0-0.1,0.1-0.2,0.2-0.3c0.1-0.1,0.1-0.2,0.2-0.3c0.1-0.1,0.2-0.2,0.3-0.2s0.2-0.1,0.3-0.2  c0.1,0,0.2-0.1,0.4-0.1c0.7-0.1,1.3,0.1,1.8,0.5C53.8,71,54,71.5,54,72c0,0.5-0.2,1-0.6,1.4c-0.2,0.2-0.4,0.3-0.6,0.4  C52.5,74,52.3,74,52,74c-0.5,0-1-0.2-1.4-0.6C50.2,73,50,72.5,50,72z M19,62c0-1.1,0.9-2,2-2h7c1.1,0,2,0.9,2,2c0,1.1-0.9,2-2,2h-7  C19.9,64,19,63.1,19,62z M30,70c0,1.1-0.9,2-2,2h-7c-1.1,0-2-0.9-2-2c0-1.1,0.9-2,2-2h7C29.1,68,30,68.9,30,70z M81,62  c0,1.1-0.9,2-2,2h-7c-1.1,0-2-0.9-2-2c0-1.1,0.9-2,2-2h7C80.1,60,81,60.9,81,62z M81,70c0,1.1-0.9,2-2,2h-7c-1.1,0-2-0.9-2-2  c0-1.1,0.9-2,2-2h7C80.1,68,81,68.9,81,70z"
    />
</svg>