<svg xmlns="http://www.w3.org/2000/svg" version="1.1" x="0px" y="0px"
viewBox="0 0 512 640" enable-background="new 0 0 512 512">
    <g>
        <path d="M121,166.6h17.5v203.2c0,7.8,6.3,14.1,14.1,14.1H438c7.8,0,14.1-6.3,14.1-14.1V166.6h17.5c13.4,0,19.3-17,8.7-25.2L304,5   c-5.1-4-12.3-4-17.4,0L112.3,141.3C101.7,149.6,107.6,166.6,121,166.6z M322.6,355.7H268v-75.3h54.6V355.7z M423.9,355.7h-73.1   v-89.4c0-7.8-6.3-14.1-14.1-14.1h-82.8c-7.8,0-14.1,6.3-14.1,14.1v89.4h-73.1v-74.3h21.5c7.8,0,14.1-6.3,14.1-14.1   s-6.3-14.1-14.1-14.1h-21.5v-28.2h56.8c7.8,0,14.1-6.3,14.1-14.1s-6.3-14.1-14.1-14.1h-56.8v-30.1h257.3V355.7z M295.3,34   l133.4,104.3H161.9L295.3,34z"
        />
        <path d="M505.9,451.8l-34.1-34.1c-5.5-5.5-14.4-5.5-20,0c-5.5,5.5-5.5,14.4,0,20l10.1,10.1H150.1l10.1-10.1c5.5-5.5,5.5-14.4,0-20   l0,0c-5.5-5.5-14.4-5.5-20,0L106,451.8c-5.5,5.5-5.5,14.4,0,20l34.2,34.1c5.5,5.5,14.4,5.5,20,0c5.5-5.5,5.5-14.4,0-20l-10.1-10.1   h311.7l-10.1,10.1c-5.5,5.5-5.5,14.4,0,20h0c5.5,5.5,14.4,5.5,20,0l34.1-34.1C511.4,466.2,511.4,457.3,505.9,451.8z"
        />
        <path d="M74.4,60.2c5.5,5.5,14.4,5.5,20,0h0c5.5-5.5,5.5-14.4,0-20L60.2,6.1c-5.5-5.5-14.5-5.5-20,0L6.1,40.3   c-5.5,5.5-5.5,14.4,0,20c5.5,5.5,14.4,5.5,20,0l10.1-10.1V362l-10.1-10.1c-5.5-5.5-14.4-5.5-20,0h0c-5.5,5.5-5.5,14.4,0,20   L40.3,406c5.5,5.5,14.5,5.5,20,0l34.1-34.1c5.5-5.5,5.5-14.4,0-20c-5.5-5.5-14.4-5.5-20,0l-10.1,10.1V50.2L74.4,60.2z"
        />
    </g>
</svg>