<svg xmlns="http://www.w3.org/2000/svg" version="1.1" x="0px" y="0px"
viewBox="0 0 100 125" style="enable-background:new 0 0 100 100;">
    <path d="M93,25c1.1,0,2-0.9,2-2c0-1.1-0.9-2-2-2v-4c1.1,0,2-0.9,2-2c0-1.1-0.9-2-2-2h-1.2c-0.2-4.2-3.6-7.5-7.8-7.5  s-7.6,3.3-7.8,7.5H75c-1.1,0-2,0.9-2,2c0,1.1,0.9,2,2,2v4c-1.1,0-2,0.9-2,2c0,1.1,0.9,2,2,2h3v12h-2.7c-1.1-12.4-11-22.2-23.3-23.2  V8.5c0-1.1-0.9-2-2-2s-2,0.9-2,2v5.3c-12.4,1-22.3,10.8-23.3,23.2H22V25h3c1.1,0,2-0.9,2-2c0-1.1-0.9-2-2-2v-4c1.1,0,2-0.9,2-2  c0-1.1-0.9-2-2-2h-1.2c-0.2-4.2-3.6-7.5-7.8-7.5S8.4,8.8,8.2,13H7c-1.1,0-2,0.9-2,2c0,1.1,0.9,2,2,2v4c-1.1,0-2,0.9-2,2  c0,1.1,0.9,2,2,2h3v36H7c-1.1,0-2,0.9-2,2c0,1.1,0.9,2,2,2h1v26h0c-1.1,0-2,0.9-2,2c0,1.1,0.9,2,2,2h84c1.1,0,2-0.9,2-2  c0-1.1-0.9-2-2-2h0V65h1c1.1,0,2-0.9,2-2c0-1.1-0.9-2-2-2h-3V25H93z M16,9.5c2,0,3.6,1.5,3.8,3.5h-7.6C12.4,11.1,14,9.5,16,9.5z   M11,17h3v4h-3V17z M18,25v36h-4V25H18z M20,91h-8V65h8V91z M21,21h-3v-4h3V21z M50,17.7c11.1,0,20.2,8.5,21.3,19.3H28.7  C29.8,26.2,38.9,17.7,50,17.7z M66,41v4h-8v-4H66z M54,41v4h-8v-4H54z M42,41v4h-8v-4H42z M22,41h8v4h-8V41z M61,91H39V73.5  c0-6.1,4.9-11,11-11s11,4.9,11,11V91z M78,61h-3c-1.1,0-2,0.9-2,2c0,1.1,0.9,2,2,2h1v26H65V73.5c0-8.3-6.7-15-15-15s-15,6.7-15,15  V91H24V65h1c1.1,0,2-0.9,2-2c0-1.1-0.9-2-2-2h-3V49h56V61z M78,45h-8v-4h8V45z M84,9.5c2,0,3.6,1.5,3.8,3.5h-7.6  C80.4,11.1,82,9.5,84,9.5z M79,17h3v4h-3V17z M86,25v36h-4V25H86z M88,91h-8V65h8V91z M89,21h-3v-4h3V21z"
    />
</svg>