<svg xmlns="http://www.w3.org/2000/svg" version="1.1" x="0px" y="0px"
viewBox="0 0 100 125" style="enable-background:new 0 0 100 100;">
    <style type="text/css">
        .st0{fill:none;stroke:#000000;stroke-width:2;stroke-linecap:round;stroke-linejoin:round;stroke-miterlimit:10;}
    </style>
    <path d="M55.7,53.4c0-0.6-0.4-1-1-1h-8.4c-0.6,0-1,0.4-1,1v6.1c0,0.6,0.4,1,1,1h8.4c0.6,0,1-0.4,1-1V53.4z M53.7,58.5h-6.4v-4.1h6.4  V58.5z"
    />
    <path d="M40.4,85h20c0.6,0,1-0.4,1-1V26.9c0,0,0-0.1,0-0.1c0-0.1,0-0.1,0-0.2c0-0.1,0-0.1-0.1-0.2c0-0.1-0.1-0.1-0.1-0.2  c0-0.1-0.1-0.1-0.2-0.1c0,0,0-0.1-0.1-0.1l-9.5-5.8v-1.6h4.8c0.6,0,1-0.4,1-1v-4c0-0.6-0.4-1-1-1h-5.8c-0.6,0-1,0.4-1,1v0.7v3.2v2.5  L39.9,26c0,0-0.1,0.1-0.1,0.1c-0.1,0-0.1,0.1-0.1,0.1c0,0-0.1,0.1-0.1,0.2c0,0.1-0.1,0.1-0.1,0.2c0,0.1,0,0.1,0,0.2c0,0,0,0.1,0,0.1  V84C39.4,84.6,39.8,85,40.4,85z M50.3,21.9l6.5,4h-13L50.3,21.9z M53.5,78.5h-6.1V67.4h6.1V78.5z M54.5,65.4h-8.1c-0.6,0-1,0.4-1,1  v12.1h-4v-31h18v31h-4V66.4C55.5,65.9,55,65.4,54.5,65.4z M59.4,45.6h-18V27.9h18V45.6z M41.4,83v-2.5h18V83H41.4z M55.2,16.6h-3.8  v-2h3.8V16.6z"
    />
    <path d="M50.3,42.1c3.1,0,5.6-2.5,5.6-5.6s-2.5-5.6-5.6-5.6c-3.1,0-5.6,2.5-5.6,5.6S47.2,42.1,50.3,42.1z M50.3,32.8  c2,0,3.6,1.6,3.6,3.6s-1.6,3.6-3.6,3.6c-2,0-3.6-1.6-3.6-3.6S48.3,32.8,50.3,32.8z"
    />
</svg>