<svg xmlns="http://www.w3.org/2000/svg" version="1.1" x="0px" y="0px"
viewBox="0 0 100 125" style="enable-background:new 0 0 100 100;">
    <path d="M12.2,70.6c2,0,3-0.6,3.9-1.1c0.8-0.5,1.5-0.9,2.9-0.9s2.1,0.4,2.9,0.9c0.9,0.5,1.9,1.1,3.9,1.1c2,0,3-0.6,3.9-1.1  c0.8-0.5,1.5-0.9,2.9-0.9c1.4,0,2.1,0.4,2.9,0.9c0.9,0.5,1.9,1.1,3.9,1.1c2,0,3-0.6,3.9-1.1c0.8-0.5,1.5-0.9,2.9-0.9  c1.4,0,2.1,0.4,2.9,0.9c0.9,0.5,1.9,1.1,3.9,1.1s3-0.6,3.9-1.1c0.8-0.5,1.5-0.9,2.9-0.9s2.1,0.4,2.9,0.9c0.9,0.5,1.9,1.1,3.9,1.1  c2,0,3-0.6,3.9-1.1c0.8-0.5,1.5-0.9,2.9-0.9c1.4,0,2.1,0.4,2.9,0.9c0.9,0.5,1.9,1.1,3.9,1.1c2,0,3-0.6,3.9-1.1  c0.8-0.5,1.5-0.9,2.9-0.9c0.6,0,1-0.4,1-1s-0.4-1-1-1c-2,0-3,0.6-3.9,1.1c-0.8,0.5-1.5,0.9-2.9,0.9c-1.4,0-2.1-0.4-2.9-0.9  c-0.9-0.5-1.9-1.1-3.9-1.1c-2,0-3,0.6-3.9,1.1c-0.8,0.5-1.5,0.9-2.9,0.9c-1.4,0-2.1-0.4-2.9-0.9c-0.9-0.5-1.9-1.1-3.9-1.1  c-2,0-3,0.6-3.9,1.1c-0.8,0.5-1.5,0.9-2.9,0.9c-1.4,0-2.1-0.4-2.9-0.9c-0.9-0.5-1.9-1.1-3.9-1.1c-2,0-3,0.6-3.9,1.1  c-0.8,0.5-1.5,0.9-2.9,0.9c-1.4,0-2.1-0.4-2.9-0.9c-0.9-0.5-1.9-1.1-3.9-1.1c-2,0-3,0.6-3.9,1.1c-0.8,0.5-1.5,0.9-2.9,0.9  c-1.4,0-2.1-0.4-2.9-0.9C22,67.2,21,66.6,19,66.6s-3,0.6-3.9,1.1c-0.8,0.5-1.5,0.9-2.9,0.9c-0.6,0-1,0.4-1,1S11.6,70.6,12.2,70.6z"
    />
    <path d="M12.2,77.5c2,0,3-0.6,3.9-1.1c0.8-0.5,1.5-0.9,2.9-0.9s2.1,0.4,2.9,0.9c0.9,0.5,1.9,1.1,3.9,1.1c2,0,3-0.6,3.9-1.1  c0.8-0.5,1.5-0.9,2.9-0.9c1.4,0,2.1,0.4,2.9,0.9c0.9,0.5,1.9,1.1,3.9,1.1c2,0,3-0.6,3.9-1.1c0.8-0.5,1.5-0.9,2.9-0.9  c1.4,0,2.1,0.4,2.9,0.9c0.9,0.5,1.9,1.1,3.9,1.1s3-0.6,3.9-1.1c0.8-0.5,1.5-0.9,2.9-0.9s2.1,0.4,2.9,0.9c0.9,0.5,1.9,1.1,3.9,1.1  c2,0,3-0.6,3.9-1.1c0.8-0.5,1.5-0.9,2.9-0.9c1.4,0,2.1,0.4,2.9,0.9c0.9,0.5,1.9,1.1,3.9,1.1c2,0,3-0.6,3.9-1.1  c0.8-0.5,1.5-0.9,2.9-0.9c0.6,0,1-0.4,1-1s-0.4-1-1-1c-2,0-3,0.6-3.9,1.1c-0.8,0.5-1.5,0.9-2.9,0.9c-1.4,0-2.1-0.4-2.9-0.9  c-0.9-0.5-1.9-1.1-3.9-1.1c-2,0-3,0.6-3.9,1.1c-0.8,0.5-1.5,0.9-2.9,0.9c-1.4,0-2.1-0.4-2.9-0.9c-0.9-0.5-1.9-1.1-3.9-1.1  c-2,0-3,0.6-3.9,1.1c-0.8,0.5-1.5,0.9-2.9,0.9c-1.4,0-2.1-0.4-2.9-0.9c-0.9-0.5-1.9-1.1-3.9-1.1c-2,0-3,0.6-3.9,1.1  c-0.8,0.5-1.5,0.9-2.9,0.9c-1.4,0-2.1-0.4-2.9-0.9c-0.9-0.5-1.9-1.1-3.9-1.1c-2,0-3,0.6-3.9,1.1c-0.8,0.5-1.5,0.9-2.9,0.9  c-1.4,0-2.1-0.4-2.9-0.9C22,74.1,21,73.5,19,73.5s-3,0.6-3.9,1.1c-0.8,0.5-1.5,0.9-2.9,0.9c-0.6,0-1,0.4-1,1S11.6,77.5,12.2,77.5z"
    />
    <path d="M12.2,84.3c2,0,3-0.6,3.9-1.1c0.8-0.5,1.5-0.9,2.9-0.9s2.1,0.4,2.9,0.9c0.9,0.5,1.9,1.1,3.9,1.1c2,0,3-0.6,3.9-1.1  c0.8-0.5,1.5-0.9,2.9-0.9c1.4,0,2.1,0.4,2.9,0.9c0.9,0.5,1.9,1.1,3.9,1.1c2,0,3-0.6,3.9-1.1c0.8-0.5,1.5-0.9,2.9-0.9  c1.4,0,2.1,0.4,2.9,0.9c0.9,0.5,1.9,1.1,3.9,1.1s3-0.6,3.9-1.1c0.8-0.5,1.5-0.9,2.9-0.9s2.1,0.4,2.9,0.9c0.9,0.5,1.9,1.1,3.9,1.1  c2,0,3-0.6,3.9-1.1c0.8-0.5,1.5-0.9,2.9-0.9c1.4,0,2.1,0.4,2.9,0.9c0.9,0.5,1.9,1.1,3.9,1.1c2,0,3-0.6,3.9-1.1  c0.8-0.5,1.5-0.9,2.9-0.9c0.6,0,1-0.4,1-1s-0.4-1-1-1c-2,0-3,0.6-3.9,1.1c-0.8,0.5-1.5,0.9-2.9,0.9c-1.4,0-2.1-0.4-2.9-0.9  c-0.9-0.5-1.9-1.1-3.9-1.1c-2,0-3,0.6-3.9,1.1c-0.8,0.5-1.5,0.9-2.9,0.9c-1.4,0-2.1-0.4-2.9-0.9c-0.9-0.5-1.9-1.1-3.9-1.1  c-2,0-3,0.6-3.9,1.1c-0.8,0.5-1.5,0.9-2.9,0.9c-1.4,0-2.1-0.4-2.9-0.9c-0.9-0.5-1.9-1.1-3.9-1.1c-2,0-3,0.6-3.9,1.1  c-0.8,0.5-1.5,0.9-2.9,0.9c-1.4,0-2.1-0.4-2.9-0.9c-0.9-0.5-1.9-1.1-3.9-1.1c-2,0-3,0.6-3.9,1.1c-0.8,0.5-1.5,0.9-2.9,0.9  c-1.4,0-2.1-0.4-2.9-0.9C22,80.9,21,80.3,19,80.3s-3,0.6-3.9,1.1c-0.8,0.5-1.5,0.9-2.9,0.9c-0.6,0-1,0.4-1,1S11.6,84.3,12.2,84.3z"
    />
    <path d="M12.2,62.3h75.1c0.6,0,1-0.4,1-1s-0.4-1-1-1h-3.1v-6.4c0-0.6-0.4-1-1-1H70.9v-2.8c0-2.1,1.5-3.7,3.3-3.7s3.3,1.7,3.3,3.7  c0,0.6,0.4,1,1,1s1-0.4,1-1c0-3.2-2.4-5.7-5.3-5.7c-1.3,0-2.4,0.5-3.3,1.3V41c0-1.6,1.1-2.9,2.6-2.9S76,39.4,76,41c0,0.6,0.4,1,1,1  s1-0.4,1-1c0-2.7-2-4.9-4.6-4.9c-0.9,0-1.8,0.3-2.6,0.8v-3.4c0-1.1,0.7-1.9,1.7-1.9s1.7,0.9,1.7,1.9c0,0.6,0.4,1,1,1s1-0.4,1-1  c0-2.2-1.6-3.9-3.7-3.9c-1.1,0-2,0.5-2.7,1.2c-0.7-0.8-1.6-1.2-2.7-1.2c-2,0-3.7,1.8-3.7,3.9c0,0.6,0.4,1,1,1s1-0.4,1-1  c0-1.1,0.7-1.9,1.7-1.9s1.7,0.9,1.7,1.9V37c-0.7-0.5-1.6-0.8-2.6-0.8c-2.5,0-4.6,2.2-4.6,4.9c0,0.6,0.4,1,1,1s1-0.4,1-1  c0-1.6,1.1-2.9,2.6-2.9s2.6,1.3,2.6,2.9v4.7c-0.9-0.8-2.1-1.3-3.3-1.3c-2.9,0-5.3,2.6-5.3,5.7c0,0.6,0.4,1,1,1s1-0.4,1-1  c0-2.1,1.5-3.7,3.3-3.7s3.3,1.7,3.3,3.7v2.8H56.8c-0.6,0-1,0.4-1,1v6.4h-7.5V50c5.4-0.8,9.4-8.3,9.4-17.7c0-10-4.6-17.8-10.4-17.8  s-10.4,7.8-10.4,17.8c0,9.4,4.1,16.9,9.4,17.7v10.3H23.8V50c5.3-0.7,9.4-7,9.4-14.7c0-8.2-4.7-14.8-10.4-14.8s-10.4,6.6-10.4,14.8  c0,7.7,4.2,14,9.4,14.7v10.3h-9.6c-0.6,0-1,0.4-1,1S11.6,62.3,12.2,62.3z M57.8,54.9h24.4v5.4H57.8V54.9z M38.8,32.3  c0-8.6,3.9-15.8,8.4-15.8s8.4,7.2,8.4,15.8c0,7.9-3.3,14.7-7.4,15.7v-4.1c0.7-0.6,2-2.1,4.8-5.7c0.3-0.4,0.3-1.1-0.2-1.4  c-0.4-0.3-1.1-0.3-1.4,0.2c-1.1,1.4-2.3,2.9-3.2,4V27.1c0-0.6-0.4-1-1-1s-1,0.4-1,1v7.7l-2.8-3.2c-0.4-0.4-1-0.5-1.4-0.1  c-0.4,0.4-0.5,1-0.1,1.4l4.3,4.9V48C42.1,47,38.8,40.2,38.8,32.3z M14.4,35.3c0-7.1,3.8-12.8,8.4-12.8s8.4,5.7,8.4,12.8  c0,6.5-3.3,11.9-7.4,12.7v-4.1c0.7-0.6,2-2.1,4.8-5.7c0.3-0.4,0.3-1.1-0.2-1.4c-0.4-0.3-1.1-0.3-1.4,0.2c-1.1,1.4-2.3,2.9-3.2,4  V27.1c0-0.6-0.4-1-1-1s-1,0.4-1,1v7.7l-2.8-3.2c-0.4-0.4-1-0.5-1.4-0.1c-0.4,0.4-0.5,1-0.1,1.4l4.3,4.9V48  C17.6,47.2,14.4,41.8,14.4,35.3z"
    />
</svg>