<svg xmlns="http://www.w3.org/2000/svg" version="1.1" x="0px" y="0px"
viewBox="0 0 100 125" style="enable-background:new 0 0 100 100;">
    <path d="M96,29v-3c0-1.7-1.3-3-3-3H76v-6.4c2.3-0.8,4-3,4-5.6V8c0-1.7-1.3-3-3-3H23c-1.7,0-3,1.3-3,3v3c0,2.6,1.7,4.8,4,5.6V23H7  c-1.7,0-3,1.3-3,3v3c0,2.6,1.7,4.8,4,5.6V91H7c-1.1,0-2,0.9-2,2c0,1.1,0.9,2,2,2h86c1.1,0,2-0.9,2-2c0-1.1-0.9-2-2-2h-1V34.6  C94.3,33.8,96,31.6,96,29z M24,39h-6c-1.1,0-2,0.9-2,2c0,1.1,0.9,2,2,2h6v4h-6c-1.1,0-2,0.9-2,2c0,1.1,0.9,2,2,2h6v4h-6  c-1.1,0-2,0.9-2,2c0,1.1,0.9,2,2,2h6v4h-6c-1.1,0-2,0.9-2,2c0,1.1,0.9,2,2,2h6v24H12V35h12V39z M24,31H10c-1.1,0-2-0.9-2-2v-2h16V31  z M59,91H41V66c0-5,4-9,9-9s9,4,9,9V91z M72,91h-9V66c0-7.2-5.8-13-13-13s-13,5.8-13,13v25h-9V17h44V91z M74,13H26c-1.1,0-2-0.9-2-2  V9h52v2C76,12.1,75.1,13,74,13z M88,91H76V67h6c1.1,0,2-0.9,2-2c0-1.1-0.9-2-2-2h-6v-4h6c1.1,0,2-0.9,2-2c0-1.1-0.9-2-2-2h-6v-4h6  c1.1,0,2-0.9,2-2c0-1.1-0.9-2-2-2h-6v-4h6c1.1,0,2-0.9,2-2c0-1.1-0.9-2-2-2h-6v-4h12V91z M90,31H76v-4h16v2C92,30.1,91.1,31,90,31z   M50,49c6.1,0,11-4.7,11-10.5v-8.9c0-1.1-0.9-2-2-2c-3.8,0-7-2.1-7-4.6c0-1.1-0.9-2-2-2s-2,0.9-2,2c0,2.5-3.2,4.6-7,4.6  c-1.1,0-2,0.9-2,2v8.9C39,44.3,43.9,49,50,49z M43,31.4c2.9-0.4,5.4-1.7,7-3.5c1.6,1.8,4.1,3.1,7,3.5v7.1c0,3.6-3.1,6.5-7,6.5  s-7-2.9-7-6.5V31.4z M56,73.6c0,0.1,0,0.3,0,0.4s0,0.3,0,0.4c0,0.1-0.1,0.3-0.1,0.4c0,0.1-0.1,0.2-0.2,0.3c-0.1,0.1-0.1,0.2-0.2,0.3  c-0.1,0.1-0.2,0.2-0.3,0.2c-0.1,0.1-0.2,0.1-0.3,0.2s-0.2,0.1-0.4,0.1c-0.1,0-0.3,0-0.4,0c-0.5,0-1-0.2-1.4-0.6  c-0.1-0.1-0.2-0.2-0.3-0.3c-0.1-0.1-0.1-0.2-0.2-0.3c-0.1-0.1-0.1-0.2-0.1-0.4c0-0.1,0-0.3,0-0.4s0-0.3,0-0.4c0-0.1,0.1-0.3,0.1-0.4  c0-0.1,0.1-0.2,0.2-0.3c0.1-0.1,0.1-0.2,0.2-0.3c0.7-0.8,2.1-0.8,2.8,0c0.1,0.1,0.2,0.2,0.2,0.3c0.1,0.1,0.1,0.2,0.2,0.3  C55.9,73.3,55.9,73.5,56,73.6z"
    />
</svg>