<svg xmlns="http://www.w3.org/2000/svg" version="1.1" x="0px" y="0px"
viewBox="0 0 100 125" style="enable-background:new 0 0 100 100;">
    <path d="M93.6,91.1c-12.4-35.4-11.6-57.8-11.6-58l0.8-10.9c0.1-0.8-0.2-1.7-0.8-2.3c-0.6-0.6-1.4-1-2.2-1H60.1c-0.8,0-1.6,0.3-2.2,1  c-0.6,0.6-0.9,1.4-0.8,2.3l0.8,10.9c0,0.1,0.2,5-0.9,13.8c-2.2-0.9-4.6-1.4-7.1-1.4s-4.9,0.5-7.1,1.4c-1-8.8-0.9-13.7-0.9-13.7  l0.8-10.9c0.1-0.8-0.2-1.7-0.8-2.3c-0.6-0.6-1.4-1-2.2-1H25v-2c1.1,0,2-0.9,2-2c0-1.1-0.9-2-2-2h-3V7c0-1.1-0.9-2-2-2s-2,0.9-2,2v6  h-3c-1.1,0-2,0.9-2,2c0,1.1,0.9,2,2,2v35c-1.1,0-2,0.9-2,2c0,1.1,0.9,2,2,2v3.8c-1.7,8.7-4.4,19.2-8.6,31.3C5.6,91.4,5,92.1,5,93  c0,1.1,0.9,2,2,2h86c1.1,0,2-0.9,2-2C95,92.1,94.4,91.4,93.6,91.1z M15,91h-4.4c1.7-4.9,3.1-9.6,4.4-13.9V91z M21,91h-2V56h2V91z   M21,52h-2V17h2V52z M78.8,23l-0.2,3H61.4l-0.2-3H78.8z M50,49.5c6.5,0,12.1,4.2,14.1,10H35.9C37.9,53.7,43.5,49.5,50,49.5z M25,23  h13.8l-0.2,3H25V23z M31,91h-6V56c1.1,0,2-0.9,2-2c0-1.1-0.9-2-2-2V30h13.3l-0.2,2.9c0,0.5-0.2,6.1,1,16c-4.9,3.4-8.1,9.1-8.1,15.6  V91z M65,91H35V69.2h30V91z M65,65.2H35v-0.8c0-0.3,0-0.7,0-1H65c0,0.3,0,0.7,0,1V65.2z M69,91V64.5c0-6.4-3.2-12.1-8.1-15.6  c1.3-9.9,1.1-15.6,1-16.1L61.7,30h16.6l-0.2,2.9c0,0.7-0.5,11.9,3.7,31.1H75c-1.1,0-2,0.9-2,2c0,1.1,0.9,2,2,2h7.7  c0.6,2.5,1.3,5.2,2.1,8H75c-1.1,0-2,0.9-2,2c0,1.1,0.9,2,2,2h10.8c1,3.5,2.2,7.2,3.5,11H69z"
    />
</svg>