<svg xmlns="http://www.w3.org/2000/svg" version="1.1" x="0px" y="0px"
viewBox="0 0 100 125" enable-background="new 0 0 100 100">
    <g>
        <polygon points="55.989,20.666 55.989,7.75 46.933,7.75 46.933,20.666 31.75,20.666 31.75,10.5 8.25,10.5 8.25,68.004    10.75,68.004 10.75,13 29.25,13 29.25,23.166 49.433,23.166 49.433,10.25 53.489,10.25 53.489,23.166 90,23.166 90,45 92.5,45    92.5,20.666  "
        />
        <path d="M75.615,85.186c0-2.453-1.513-4.558-3.653-5.436H80.5v-2.5H34.724l-1.137-4.501H81.75V43.75h-14v5h-3v-9.375h-2.742   C61.415,36.042,58.502,33.5,55,33.5s-6.415,2.542-7.008,5.875H45.25v9.375h-3.375V41h-8.25v7.75h-6.103l-4.548-18H12.75v2.5h8.276   l11.75,46.5h6.152c-2.141,0.878-3.653,2.982-3.653,5.436c0,2.158,1.173,4.043,2.912,5.064H18.375v2.5H88.5v-2.5H72.703   C74.442,89.229,75.615,87.344,75.615,85.186z M79.25,54h-3v-2.75h3V54z M36.125,62h3.25v2.5h-3.25V62z M41.875,62h3.375v2.5h-3.375   V62z M56.75,62v2.5h-3.5V62H56.75z M53.25,59.5v-3h3.5v3H53.25z M62.25,64.5h-3V62h3V64.5z M64.75,62h3v2.5h-3V62z M50.75,64.5h-3   V62h3V64.5z M45.25,67v3.249h-3.375V67H45.25z M47.75,67h3v3.249h-3V67z M53.25,67h3.5v3.249h-3.5V67z M59.25,67h3v3.249h-3V67z    M64.75,67h3v3.249h-3V67z M70.25,67h3.5v3.249h-3.5V67z M70.25,64.5V62h3.5v2.5H70.25z M76.25,62h3v2.5h-3V62z M76.25,59.5v-3h3v3   H76.25z M73.75,54h-3.5v-2.75h3.5V54z M73.75,56.5v3h-3.5v-3H73.75z M67.75,59.5h-3v-3h3V59.5z M62.25,59.5h-3v-3h3V59.5z    M59.25,54v-2.75h3V54H59.25z M56.75,54h-3.5v-2.75h3.5V54z M50.75,54h-3v-2.75h3V54z M50.75,56.5v3h-3v-3H50.75z M45.25,59.5   h-3.375v-3h3.375V59.5z M39.375,59.5h-3.25v-3h3.25V59.5z M36.125,54v-2.75h3.25V54H36.125z M36.125,67h3.25v3.249h-3.25V67z    M76.25,70.249V67h3v3.249H76.25z M70.25,46.25h9v2.5h-9V46.25z M67.75,54h-3v-2.75h3V54z M62.25,48.75h-9v-6.875h9V48.75z M55,36   c2.114,0,3.882,1.435,4.432,3.375h-8.863C51.118,37.435,52.886,36,55,36z M47.75,41.875h3v6.875h-3V41.875z M45.25,51.25V54h-3.375   v-2.75H45.25z M36.125,43.5h3.25v5.25h-3.25V43.5z M33.625,51.25v18.999h-0.67L28.154,51.25H33.625z M73.115,85.186   c0,1.861-1.514,3.375-3.375,3.375s-3.375-1.514-3.375-3.375s1.514-3.375,3.375-3.375S73.115,83.324,73.115,85.186z M41.15,81.811   c1.861,0,3.375,1.514,3.375,3.375s-1.514,3.375-3.375,3.375s-3.375-1.514-3.375-3.375S39.289,81.811,41.15,81.811z M47.025,85.186   c0-2.453-1.513-4.558-3.653-5.436h24.147c-2.141,0.878-3.653,2.982-3.653,5.436c0,2.158,1.173,4.043,2.912,5.064H44.113   C45.852,89.229,47.025,87.344,47.025,85.186z"
        />
        <rect x="9.5" y="83.936" width="19" height="2.5" />
        <polygon points="14,17.5 26.548,17.5 26.548,15 11.5,15 11.5,23 14,23  "
        />
        <polygon points="86.5,37.688 86.5,25.75 69.74,25.75 69.74,28.25 84,28.25 84,37.688  "
        />
    </g>
</svg>