<svg xmlns="http://www.w3.org/2000/svg" data-name="Layer 1" viewBox="0 0 100 125"
x="0px" y="0px">
    <path d="M96.5,93.62H92.69V59.44a5.3,5.3,0,0,0-5.29-5.29h-14V29a5.3,5.3,0,0,0-5.29-5.29H59.54v-6.9h4.77a4.46,4.46,0,0,0,4.46-4.46V5.84a4.46,4.46,0,0,0-4.46-4.46H35.69a4.46,4.46,0,0,0-4.46,4.46v6.52a4.46,4.46,0,0,0,4.46,4.46h4.77v6.9H31.93A5.3,5.3,0,0,0,26.64,29V54.14h-14a5.3,5.3,0,0,0-5.29,5.29V93.62H3.5a2.5,2.5,0,0,0,0,5h93a2.5,2.5,0,0,0,0-5Zm-69.86,0H12.31V59.44a.29.29,0,0,1,.29-.29h14Zm9.6-81.8V6.38H63.77v5.44Zm18.31,5v6.9H45.46v-6.9Zm13.82,76.8H31.64V29a.29.29,0,0,1,.29-.29H68.07a.29.29,0,0,1,.29.29Zm19.32,0H73.36V59.14h14a.29.29,0,0,1,.29.29Z"
    />
    <path d="M60,82.29H40a2.5,2.5,0,0,0,0,5H60a2.5,2.5,0,0,0,0-5Z" />
    <path d="M60,70.63H40a2.5,2.5,0,0,0,0,5H60a2.5,2.5,0,0,0,0-5Z" />
    <path d="M60,59H40a2.5,2.5,0,0,0,0,5H60a2.5,2.5,0,0,0,0-5Z" />
    <path d="M60,47.29H40a2.5,2.5,0,0,0,0,5H60a2.5,2.5,0,0,0,0-5Z" />
    <path d="M60,35.63H40a2.5,2.5,0,0,0,0,5H60a2.5,2.5,0,0,0,0-5Z" />
</svg>