<svg xmlns="http://www.w3.org/2000/svg" version="1.1" x="0px" y="0px"
viewBox="0 0 100 125" style="enable-background:new 0 0 100 100;">
    <path d="M93,91h-3V51c0,0,0-0.1,0-0.1c0-0.1,0-0.2,0-0.2c0-0.1,0-0.1,0-0.2c0-0.1,0-0.1-0.1-0.2c0-0.1,0-0.1-0.1-0.2  c0-0.1-0.1-0.1-0.1-0.2c0,0-0.1-0.1-0.1-0.2c0,0-0.1-0.1-0.1-0.1c-0.1-0.1-0.1-0.1-0.2-0.2c0,0,0-0.1-0.1-0.1L85,46.2V24  c0,0,0-0.1,0-0.1c0-0.1,0-0.1,0-0.2c0-0.1,0-0.1,0-0.2c0-0.1,0-0.1-0.1-0.2c0-0.1,0-0.1-0.1-0.2c0-0.1-0.1-0.1-0.1-0.2  c0,0-0.1-0.1-0.1-0.2c0,0-0.1-0.1-0.1-0.1c-0.1-0.1-0.1-0.1-0.2-0.1c0,0-0.1-0.1-0.1-0.1L68,10V7c0-1.1-0.9-2-2-2s-2,0.9-2,2v29.6  c-3.3-3.4-8.3-5.6-14-5.6s-10.7,2.2-14,5.6V7c0-1.1-0.9-2-2-2s-2,0.9-2,2v3L15.8,22.4c0,0-0.1,0.1-0.1,0.1c0,0-0.1,0.1-0.2,0.1  c0,0-0.1,0.1-0.1,0.1c0,0-0.1,0.1-0.1,0.2c0,0-0.1,0.1-0.1,0.2c0,0.1-0.1,0.1-0.1,0.2c0,0.1,0,0.1,0,0.2c0,0.1,0,0.1,0,0.2  c0,0.1,0,0.1,0,0.2c0,0,0,0.1,0,0.1v22.2l-4.2,3.2c0,0-0.1,0.1-0.1,0.1c-0.1,0-0.1,0.1-0.2,0.2c0,0-0.1,0.1-0.1,0.1  c0,0-0.1,0.1-0.1,0.2c0,0-0.1,0.1-0.1,0.2c0,0-0.1,0.1-0.1,0.2c0,0.1,0,0.1-0.1,0.2c0,0.1,0,0.1,0,0.2c0,0.1,0,0.2,0,0.2  c0,0,0,0.1,0,0.1v40H7c-1.1,0-2,0.9-2,2c0,1.1,0.9,2,2,2h86c1.1,0,2-0.9,2-2C95,91.9,94.1,91,93,91z M32,91H14V52l18-13.7V91z   M32,33.3c-0.1,0-0.1,0.1-0.2,0.1L19,43.1V25L32,15V33.3z M50,35c6.8,0,12.5,3.9,13.8,9H36.2C37.5,38.9,43.2,35,50,35z M56,91H44V80  h12V91z M64,91h-4V79c0-1.7-1.3-3-3-3H43c-1.7,0-3,1.3-3,3v12h-4V48h28V91z M68,15L81,25v18.2l-12.8-9.7c-0.1,0-0.1-0.1-0.2-0.1V15z   M86,91H68V38.3L86,52V91z M16,56c0-1.1,0.9-2,2-2h10c1.1,0,2,0.9,2,2c0,1.1-0.9,2-2,2H18C16.9,58,16,57.1,16,56z M16,64  c0-1.1,0.9-2,2-2h10c1.1,0,2,0.9,2,2c0,1.1-0.9,2-2,2H18C16.9,66,16,65.1,16,64z M16,72c0-1.1,0.9-2,2-2h10c1.1,0,2,0.9,2,2  c0,1.1-0.9,2-2,2H18C16.9,74,16,73.1,16,72z M16,80c0-1.1,0.9-2,2-2h10c1.1,0,2,0.9,2,2c0,1.1-0.9,2-2,2H18C16.9,82,16,81.1,16,80z   M22,26c0-1.1,0.9-2,2-2h3c1.1,0,2,0.9,2,2c0,1.1-0.9,2-2,2h-3C22.9,28,22,27.1,22,26z M22,32c0-1.1,0.9-2,2-2h3c1.1,0,2,0.9,2,2  c0,1.1-0.9,2-2,2h-3C22.9,34,22,33.1,22,32z M70,56c0-1.1,0.9-2,2-2h10c1.1,0,2,0.9,2,2c0,1.1-0.9,2-2,2H72C70.9,58,70,57.1,70,56z   M70,64c0-1.1,0.9-2,2-2h10c1.1,0,2,0.9,2,2c0,1.1-0.9,2-2,2H72C70.9,66,70,65.1,70,64z M70,72c0-1.1,0.9-2,2-2h10c1.1,0,2,0.9,2,2  c0,1.1-0.9,2-2,2H72C70.9,74,70,73.1,70,72z M70,80c0-1.1,0.9-2,2-2h10c1.1,0,2,0.9,2,2c0,1.1-0.9,2-2,2H72C70.9,82,70,81.1,70,80z   M71,26c0-1.1,0.9-2,2-2h3c1.1,0,2,0.9,2,2c0,1.1-0.9,2-2,2h-3C71.9,28,71,27.1,71,26z M71,32c0-1.1,0.9-2,2-2h3c1.1,0,2,0.9,2,2  c0,1.1-0.9,2-2,2h-3C71.9,34,71,33.1,71,32z M40,70c0-1.1,0.9-2,2-2h16c1.1,0,2,0.9,2,2c0,1.1-0.9,2-2,2H42C40.9,72,40,71.1,40,70z   M40,62c0-1.1,0.9-2,2-2h16c1.1,0,2,0.9,2,2c0,1.1-0.9,2-2,2H42C40.9,64,40,63.1,40,62z M40,54c0-1.1,0.9-2,2-2h16c1.1,0,2,0.9,2,2  c0,1.1-0.9,2-2,2H42C40.9,56,40,55.1,40,54z"
    />
</svg>