<svg xmlns="http://www.w3.org/2000/svg" version="1.1" x="0px" y="0px"
viewBox="0 0 100 125" style="enable-background:new 0 0 100 100;">
    <style type="text/css">
        .st0{fill:none;}
    </style>
    <g>
        <path class="st0" d="M16,50.7V39.2c-2.8-1.4-5.2-3.1-7-4.9V42C9,45.1,11.6,48.1,16,50.7z"
        />
        <path d="M50,6c-6.8,0-13.4,0.6-19.5,1.9c-1.1,0.2-1.8,1.3-1.6,2.4c0.2,1.1,1.3,1.8,2.4,1.6C37.2,10.6,43.4,10,50,10   c24.5,0,41,8.3,41,16c0,3.5-3.4,7.1-9.5,10.1c-0.3,0.1-0.5,0.2-0.8,0.3c-1,0.4-2,0.9-3,1.2c-0.7-2.1-2.8-3.8-5.9-5.1l6.4-7.5   c0.7-0.8,0.6-2.1-0.2-2.8c-0.8-0.7-2.1-0.6-2.8,0.2L68,31c0,0-0.1,0.1-0.1,0.2c-2.8-0.8-5.9-1.3-9.2-1.7l3.2-9   c0.4-1-0.2-2.2-1.2-2.5c-1.1-0.4-2.2,0.2-2.6,1.2l-3.6,10.1C53,29,51.5,29,50,29s-3,0-4.5,0.1l-3.6-10.1c-0.4-1-1.5-1.6-2.6-1.2   c-1,0.4-1.6,1.5-1.2,2.5l3.2,9c-3.3,0.4-6.5,0.9-9.2,1.7c0-0.1-0.1-0.1-0.1-0.2l-7.2-8.5c-0.7-0.9-2-1-2.8-0.2   c-0.8,0.7-1,2-0.2,2.8l6.4,7.5c-3.1,1.3-5.2,3-5.9,5.1c-1.1-0.4-2.1-0.8-3-1.2c-0.2-0.2-0.5-0.3-0.8-0.3C12.4,33.1,9,29.5,9,26   c0-3.7,3.7-6.7,6.7-8.6c1.2-0.7,2.5-1.4,3.9-2c1-0.4,1.5-1.6,1-2.6c-0.4-1-1.6-1.5-2.6-1c-1.6,0.7-3,1.4-4.3,2.2   C8,17.4,5,21.6,5,26v48c0,5.4,4.5,10.2,12,13.7c0.1,0.1,0.2,0.1,0.4,0.2C25.5,91.7,37,94,50,94s24.5-2.3,32.7-6.1   c0.1-0.1,0.2-0.1,0.4-0.2c7.5-3.5,12-8.3,12-13.7V26C95,14.8,75.2,6,50,6z M16,82.8C11.5,80.1,9,77,9,74v-7.5   c1.8,1.8,4.1,3.4,7,4.8V82.8z M16,66.7c-4.4-2.6-7-5.6-7-8.7v-7.5c1.8,1.8,4.1,3.4,7,4.8V66.7z M16,50.7c-4.4-2.6-7-5.6-7-8.7v-7.6   c1.8,1.8,4.2,3.4,7,4.9V50.7z M50,33c14.7,0,23.7,3.8,24,5.9C67.5,40.8,59.3,42,50,42s-17.5-1.2-24-3.1C26.3,36.8,35.3,33,50,33z    M30,87.9c-3.8-0.9-7.1-1.9-10-3.2V73.1c3,1.1,6.3,2.1,10,2.9V87.9z M30,71.9c-3.8-0.9-7.1-1.9-10-3.2V57.1c3,1.1,6.3,2.1,10,2.9   V71.9z M56,89.8c-1.9,0.1-3.9,0.2-6,0.2s-4.1-0.1-6-0.2V68c0-3.3,2.7-6,6-6s6,2.7,6,6V89.8z M66,88.7c-1.9,0.3-3.9,0.6-6,0.8V68   c0-5.5-4.5-10-10-10s-10,4.5-10,10v21.5c-2.1-0.2-4.1-0.5-6-0.8V52.5h32V88.7z M80,84.8c-2.9,1.2-6.2,2.3-10,3.2V76   c3.7-0.8,7-1.8,10-2.9V84.8z M80,68.7c-2.9,1.2-6.2,2.3-10,3.2V60c3.7-0.8,7-1.8,10-2.9V68.7z M80,52.7c-2.9,1.2-6.2,2.3-10,3.2   v-4.4c0-1.7-1.3-3-3-3H33c-1.7,0-3,1.3-3,3v4.4c-3.8-0.9-7.1-1.9-10-3.2V41c7.9,3.1,18.4,5,30,5s22.1-1.9,30-5V52.7z M91,74   c0,3-2.5,6.1-7,8.8V71.3c2.9-1.4,5.2-3.1,7-4.8V74z M91,58c0,3.1-2.6,6.1-7,8.7V55.3c2.9-1.5,5.2-3.1,7-4.8V58z M91,42   c0,3.1-2.6,6.1-7,8.7V39.2c2.8-1.5,5.2-3.1,7-4.9V42z"
        />
        <path d="M54,76c0,0.1,0,0.3,0,0.4c0,0.1-0.1,0.3-0.1,0.4c0,0.1-0.1,0.2-0.2,0.3c-0.1,0.1-0.1,0.2-0.2,0.3c-0.1,0.1-0.2,0.2-0.3,0.2   c-0.1,0.1-0.2,0.1-0.3,0.2s-0.2,0.1-0.4,0.1c-0.1,0-0.3,0-0.4,0c-0.5,0-1-0.2-1.4-0.6c-0.1-0.1-0.2-0.2-0.2-0.3   c-0.1-0.1-0.1-0.2-0.2-0.3c-0.1-0.1-0.1-0.2-0.1-0.4c0-0.1,0-0.3,0-0.4c0-0.5,0.2-1,0.6-1.4c0.5-0.5,1.1-0.7,1.8-0.5   c0.1,0,0.2,0.1,0.4,0.1c0.1,0.1,0.2,0.1,0.3,0.2s0.2,0.2,0.3,0.2C53.8,75,54,75.5,54,76z"
        />
        <path d="M23.1,12.2c0,0.1,0.1,0.2,0.2,0.4s0.1,0.2,0.2,0.3c0.1,0.1,0.2,0.2,0.3,0.2c0.1,0.1,0.2,0.1,0.4,0.2   c0.1,0.1,0.2,0.1,0.4,0.1c0.1,0,0.3,0,0.4,0c0.1,0,0.3,0,0.4,0c0.1,0,0.2-0.1,0.4-0.1c0.1,0,0.2-0.1,0.3-0.2   c0.1-0.1,0.2-0.1,0.3-0.2c0.1-0.1,0.2-0.2,0.2-0.3c0.1-0.1,0.1-0.2,0.2-0.4c0.1-0.1,0.1-0.2,0.1-0.4c0-0.1,0-0.3,0-0.4   c0-0.5-0.2-1-0.6-1.4c-0.1-0.1-0.2-0.2-0.3-0.2c-0.1-0.1-0.2-0.1-0.3-0.2c-0.1-0.1-0.2-0.1-0.4-0.1c-0.3-0.1-0.5-0.1-0.8,0   c-0.1,0-0.2,0.1-0.4,0.1c-0.1,0-0.2,0.1-0.4,0.2c-0.1,0.1-0.2,0.1-0.3,0.2c-0.1,0.1-0.2,0.2-0.2,0.3c-0.1,0.1-0.1,0.2-0.2,0.3   c-0.1,0.1-0.1,0.2-0.1,0.4c0,0.1,0,0.3,0,0.4c0,0.1,0,0.3,0,0.4C23.1,12,23.1,12.1,23.1,12.2z"
        />
    </g>
</svg>