<svg xmlns="http://www.w3.org/2000/svg" version="1.1" x="0px" y="0px"
viewBox="0 0 100 125" enable-background="new 0 0 100 100">
    <g>
        <path d="M88.75,89.334V7H66v19.5H39.958V15.357H11.25v73.977H8.5v2.5h82.75v-2.5H88.75z M13.75,17.857h23.708V29H68.5V9.5h17.75   v79.834H79.5V52H82v-2.5h-2.5v-10H67v-6.875H33.5V39.5H20.75v10h-3V52h3v37.334h-7V17.857z M72.75,89.334H67v-28.5h5.75V89.334z    M64.5,58.334v31h-1.959v-31H38V83h-2V58.334H25.25v31h-2V52H77v37.334h-1.75v-31H64.5z M33.5,83h-5.206l2,6.334H27.75v-28.5h5.75   V83z M31.706,85.5h10.121l-1.135,3.834h-7.775L31.706,85.5z M40.5,83V60.834h8.521v28.5h-5.722L45.174,83H40.5z M51.521,60.834   h8.521v28.5h-8.521V60.834z M67,42h10v7.5H67V42z M64.5,49.5H36V35.125h28.5V49.5z M33.5,49.5H23.25V42H33.5V49.5z"
        />
        <rect x="44.625" y="72.125" width="2.5" height="3.75" />
        <rect x="53.5" y="72.125" width="2.5" height="3.75" />
        <path d="M50,47.625c1.945,0,3.631-1.062,4.557-2.625h7.984v-5.5h-8.052C53.548,38.004,51.895,37,50,37   c-1.894,0-3.548,1.004-4.489,2.5H38V45h7.443C46.369,46.563,48.055,47.625,50,47.625z M60.041,42v0.5h-4.747   c0.002-0.063,0.019-0.123,0.019-0.188c0-0.107-0.025-0.207-0.031-0.313H60.041z M50,39.5c1.551,0,2.813,1.262,2.813,2.813   c0,1.551-1.262,2.813-2.813,2.813s-2.813-1.262-2.813-2.813C47.188,40.761,48.449,39.5,50,39.5z M40.5,42.5V42h4.219   c-0.006,0.105-0.032,0.206-0.032,0.313c0,0.064,0.017,0.124,0.019,0.188H40.5z"
        />
    </g>
</svg>