<svg xmlns="http://www.w3.org/2000/svg" version="1.1" x="0px" y="0px"
viewBox="0 0 100 125" style="enable-background:new 0 0 100 100;">
    <path d="M63,53.2c0.6,0,1-0.4,1-1V49c0-0.6-0.4-1-1-1s-1,0.4-1,1v3.2C62,52.8,62.5,53.2,63,53.2z"
    />
    <path d="M58.8,53.2c0.6,0,1-0.4,1-1V49c0-0.6-0.4-1-1-1s-1,0.4-1,1v3.2C57.8,52.8,58.3,53.2,58.8,53.2z"
    />
    <path d="M54.6,53.2c0.6,0,1-0.4,1-1V49c0-0.6-0.4-1-1-1s-1,0.4-1,1v3.2C53.6,52.8,54.1,53.2,54.6,53.2z"
    />
    <path d="M45.6,55c-0.6,0-1,0.4-1,1v3.2c0,0.6,0.4,1,1,1s1-0.4,1-1V56C46.6,55.4,46.1,55,45.6,55z"
    />
    <path d="M41.7,55c-0.6,0-1,0.4-1,1v3.2c0,0.6,0.4,1,1,1s1-0.4,1-1V56C42.7,55.4,42.2,55,41.7,55z"
    />
    <path d="M37.8,55c-0.6,0-1,0.4-1,1v3.2c0,0.6,0.4,1,1,1s1-0.4,1-1V56C38.8,55.4,38.4,55,37.8,55z"
    />
    <path d="M63,66.4c0.6,0,1-0.4,1-1v-3.2c0-0.6-0.4-1-1-1s-1,0.4-1,1v3.2C62,65.9,62.5,66.4,63,66.4z"
    />
    <path d="M58.8,66.4c0.6,0,1-0.4,1-1v-3.2c0-0.6-0.4-1-1-1s-1,0.4-1,1v3.2C57.8,65.9,58.3,66.4,58.8,66.4z"
    />
    <path d="M54.6,66.4c0.6,0,1-0.4,1-1v-3.2c0-0.6-0.4-1-1-1s-1,0.4-1,1v3.2C53.6,65.9,54.1,66.4,54.6,66.4z"
    />
    <path d="M63,79.5c0.6,0,1-0.4,1-1v-3.2c0-0.6-0.4-1-1-1s-1,0.4-1,1v3.2C62,79.1,62.5,79.5,63,79.5z"
    />
    <path d="M58.8,79.5c0.6,0,1-0.4,1-1v-3.2c0-0.6-0.4-1-1-1s-1,0.4-1,1v3.2C57.8,79.1,58.3,79.5,58.8,79.5z"
    />
    <path d="M54.6,79.5c0.6,0,1-0.4,1-1v-3.2c0-0.6-0.4-1-1-1s-1,0.4-1,1v3.2C53.6,79.1,54.1,79.5,54.6,79.5z"
    />
    <path d="M18.9,85.4c-0.6,0-1,0.4-1,1s0.4,1,1,1h60.9c0.6,0,1-0.4,1-1s-0.4-1-1-1h-3.6v-4.1c2.1-0.5,3.7-2.4,3.7-4.7  c0-1.7-0.9-3.2-2.3-4.1c0.9-0.7,1.4-1.8,1.4-3.1c0-2.2-1.8-4-4-4s-4,1.8-4,4c0,1.2,0.6,2.3,1.4,3.1c-1.4,0.9-2.3,2.4-2.3,4.1  c0,2.4,1.7,4.4,4,4.8v4h-5.4v-50V35v-6.2c0-0.4-0.2-0.7-0.5-0.9l-15.6-9.1c-0.3-0.2-0.7-0.2-1,0c-0.3,0.2-0.5,0.5-0.5,0.9v22.9  l-2.4,1.3c-0.3,0.2-0.5,0.5-0.5,0.9v5.2L34.8,42c-0.3-0.2-0.7-0.2-1,0c-0.3,0.2-0.5,0.5-0.5,0.9L33,62.8h-2.8c-0.6,0-1,0.4-1,1v21.7  h-4.9v-4.1c2.1-0.5,3.7-2.4,3.7-4.7c0-1.7-0.9-3.2-2.2-4.1c0.9-0.7,1.5-1.8,1.5-3.1c0-2.2-1.8-4-4-4s-4,1.8-4,4c0,1.2,0.5,2.3,1.4,3  c-1.4,0.9-2.4,2.4-2.4,4.1c0,2.4,1.7,4.4,4,4.8v4H18.9z M75.1,67.4c1.1,0,2,0.9,2,2s-0.9,2-2,2s-2-0.9-2-2S74,67.4,75.1,67.4z   M72.2,76.6c0-1.6,1.3-2.9,2.9-2.9S78,75,78,76.6s-1.3,2.9-2.9,2.9S72.2,78.2,72.2,76.6z M23.4,67.4c1.1,0,2,0.9,2,2s-0.9,2-2,2  s-2-0.9-2-2S22.3,67.4,23.4,67.4z M20.4,76.6c0-1.6,1.3-2.9,2.9-2.9s2.9,1.3,2.9,2.9s-1.3,2.9-2.9,2.9S20.4,78.2,20.4,76.6z   M43.5,85.4h-7.3v-8c0-2.1,1.6-3.8,3.7-3.8s3.7,1.7,3.7,3.8V85.4z M53.2,21.4l13.6,8v5l-13.6,7.1V21.4z M66.8,36.6v48.8H50.2V45.3  L66.8,36.6z M35.2,44.6l13,7.6c0,0,0,0,0,0v10.6H35L35.2,44.6z M31.2,64.8h17v20.7h-2.7v-8c0-3.2-2.5-5.8-5.7-5.8s-5.7,2.6-5.7,5.8  v8h-2.9V64.8z"
    />
</svg>