<svg xmlns="http://www.w3.org/2000/svg" version="1.1" x="0px" y="0px"
viewBox="0 0 100 125" style="enable-background:new 0 0 100 100;">
    <style type="text/css">
        .st0{fill:none;stroke:#000000;stroke-width:2;stroke-linecap:round;stroke-linejoin:round;stroke-miterlimit:10;}
        	.st1{fill:none;stroke:#000000;stroke-width:2;stroke-miterlimit:10;}
        	.st2{fill:none;stroke:#000000;stroke-width:2;stroke-linecap:round;stroke-miterlimit:10;}
    </style>
    <g>
        <path d="M64.319,84.543v-4.754c0-0.553,0.447-1,1-1h6.707c0.553,0,1,0.447,1,1v4.754c0,0.553-0.447,1-1,1h-6.707   C64.766,85.543,64.319,85.096,64.319,84.543z M71.026,80.789h-4.707v2.754h4.707V80.789z"
        />
    </g>
    <g>
        <path d="M53.636,84.543v-4.754c0-0.553,0.447-1,1-1h6.707c0.553,0,1,0.447,1,1v4.754c0,0.553-0.447,1-1,1h-6.707   C54.083,85.543,53.636,85.096,53.636,84.543z M60.343,80.789h-4.707v2.754h4.707V80.789z"
        />
    </g>
    <g>
        <path d="M42.953,84.543v-4.754c0-0.553,0.447-1,1-1h6.707c0.553,0,1,0.447,1,1v4.754c0,0.553-0.447,1-1,1h-6.707   C43.401,85.543,42.953,85.096,42.953,84.543z M49.66,80.789h-4.707v2.754h4.707V80.789z"
        />
    </g>
    <g>
        <path d="M69.207,72.928c0.256,0,0.512-0.098,0.707-0.293l2.699-2.699c0.391-0.391,0.391-1.023,0-1.414s-1.023-0.391-1.414,0   L68.5,71.221c-0.391,0.391-0.391,1.023,0,1.414C68.696,72.83,68.951,72.928,69.207,72.928z"
        />
    </g>
    <g>
        <path d="M65.853,71.43c0.256,0,0.512-0.098,0.707-0.293l5.431-5.432c0.391-0.391,0.391-1.023,0-1.414s-1.023-0.391-1.414,0   l-5.431,5.432c-0.391,0.391-0.391,1.023,0,1.414C65.341,71.332,65.597,71.43,65.853,71.43z"
        />
    </g>
    <g>
        <path d="M26.122,85.046h13.124c0.495,0,0.896-0.447,0.896-1s-0.401-1-0.896-1H26.122c-0.495,0-0.896,0.447-0.896,1   S25.627,85.046,26.122,85.046z"
        />
    </g>
    <g>
        <path d="M25.478,27.258h50.36c0.553,0,1-0.447,1-1s-0.447-1-1-1h-50.36c-0.553,0-1,0.447-1,1S24.925,27.258,25.478,27.258z"
        />
    </g>
    <path d="M23.105,56.849c-0.034,0.284,0.055,0.569,0.245,0.783c0.189,0.215,0.462,0.337,0.748,0.337h0.371v30.336  c0,0.553,0.447,1,1,1h14.642h35.758c0.553,0,1-0.447,1-1V76.027V57.969h0.367c0.286,0,0.559-0.122,0.748-0.337  c0.19-0.214,0.279-0.499,0.245-0.783l-1.384-11.471c-0.001-0.008-0.006-0.014-0.007-0.022V25.245c0-0.055-0.005-0.109-0.014-0.163  l-1.988-12.029c-0.079-0.482-0.497-0.837-0.986-0.837h-5.39c-0.065,0-0.121,0.025-0.183,0.037V9.762c0-0.553-0.447-1-1-1H62.2  c-0.553,0-1,0.447-1,1v2.491c-0.062-0.012-0.119-0.037-0.185-0.037H40.116V9.762c0-0.553-0.447-1-1-1h-5.078c-0.553,0-1,0.447-1,1  v2.478c-0.041-0.005-0.076-0.024-0.118-0.024h-5.454c-0.489,0-0.907,0.354-0.986,0.837l-1.988,12.029  c-0.009,0.054-0.014,0.108-0.014,0.163v20.222L23.105,56.849z M38.116,20.836h-3.078V10.762h3.078V20.836z M66.278,20.836H63.2  V10.762h3.078V20.836z M74.838,44.498h-48.36V25.327l1.837-11.111h4.605c0.042,0,0.078-0.019,0.118-0.024v7.644c0,0.553,0.447,1,1,1  h5.078c0.553,0,1-0.447,1-1v-7.62h20.898c0.065,0,0.123-0.025,0.185-0.037v7.657c0,0.553,0.447,1,1,1h5.078c0.553,0,1-0.447,1-1  v-7.657c0.061,0.012,0.118,0.037,0.183,0.037h4.541l1.837,11.111V44.498z M35.293,46.498v9.471h-3.768v-9.471H35.293z   M74.868,58.104v16.923H41.111V58.104H74.868z M66.134,55.969v-9.471h3.769v9.471H66.134z M60.366,55.969v-9.471h3.768v9.471H60.366  z M54.598,55.969v-9.471h3.769v9.471H54.598z M48.83,55.969v-9.471h3.768v9.471H48.83z M43.062,55.969v-9.471h3.769v9.471H43.062z   M37.293,55.969v-9.471h3.769v9.471H37.293z M76.108,55.969h-4.205v-9.471h3.062L76.108,55.969z M74.868,87.305H41.111V77.027  h33.758V87.305z M26.469,58.104h12.642v17.923v11.277H26.469V58.104z M25.226,55.969l1.143-9.471h3.157v9.471H25.226z"
    />
    <g>
        <path d="M59.775,40.176V31.61c0-0.553,0.447-1,1-1h7.457c0.553,0,1,0.447,1,1v8.565c0,0.553-0.447,1-1,1h-7.457   C60.222,41.176,59.775,40.729,59.775,40.176z M67.232,32.61h-5.457v6.565h5.457V32.61z"
        />
    </g>
    <g>
        <path d="M45.52,40.176V31.61c0-0.553,0.447-1,1-1h7.457c0.553,0,1,0.447,1,1v8.565c0,0.553-0.447,1-1,1H46.52   C45.967,41.176,45.52,40.729,45.52,40.176z M52.977,32.61H47.52v6.565h5.457V32.61z"
        />
    </g>
    <g>
        <path d="M31.264,40.176V31.61c0-0.553,0.447-1,1-1h7.457c0.553,0,1,0.447,1,1v8.565c0,0.553-0.447,1-1,1h-7.457   C31.711,41.176,31.264,40.729,31.264,40.176z M38.721,32.61h-5.457v6.565h5.457V32.61z"
        />
    </g>
</svg>